<?xml version="1.0" encoding="utf-8"?>
<!-- Generator: Adobe Illustrator 19.2.1, SVG Export Plug-In . SVG Version: 6.00 Build 0)  -->
<!DOCTYPE svg PUBLIC "-//W3C//DTD SVG 1.1//EN" "http://www.w3.org/Graphics/SVG/1.1/DTD/svg11.dtd">
<svg version="1.1" id="CD_Projekt_RED_logo" xmlns="http://www.w3.org/2000/svg" xmlns:xlink="http://www.w3.org/1999/xlink"
	 x="0px" y="0px" viewBox="0 0 588.7 260.4" style="enable-background:new 0 0 588.7 260.4;" xml:space="preserve">
<style type="text/css">
	.st0{fill:#DB0D15;}
</style>
<g id="CD_Projekt_RED_horizontal_1_">
	<g>
		<path class="st0" d="M42.8,229.2c3.7-3.9,8-8.4,10.5-10.5c-0.7-0.1-1.9-0.2-3.1-0.4c-2.7,2.4-6.1,6-9.1,9.3
			c-3.9,4.2-7.1,7.8-7.1,7.8c0,0-0.1,0.1-0.1,0.1c-2.5,0.7-6.8,1.9-9.7,2.7c-4.2,1.2-8,0.9-8,3.7c0,0-4.4,2.4-3.4,5.9
			c0,0,8.8-7,16.3-8.2c0,0-4.6,3-4.2,7c0,0,6.2-9.3,13.4-3.6c0,0-3.2-4.4-1.9-6.8C37.6,234.8,40,232.1,42.8,229.2z M28.9,119.7
			c-0.4,0.2-0.8,0.2-1.2,0.2c-1.3,0-2.5-0.8-3-2c0-0.1-0.1-0.2-0.1-0.4l-1,0.3c0.8,2.3,3.2,3.6,5.4,2.9c0.5-0.2,1-0.5,1.4-0.9
			c1.2-1.1,1.7-3,1.1-4.7l-2.2,0.7c0.1,0.3,0.2,0.7,0.2,1c0,0.3-0.1,0.6-0.2,0.9l1,0.6c-0.2,0.3-0.4,0.5-0.6,0.7
			C29.5,119.4,29.2,119.6,28.9,119.7z M117.5,112.6l-43.2,10.5c0,0,0,0,0,0l0,0l84.5-36.6l-69.6,8.5l37.3-27.2L86.4,83.5l0,0l6-12.1
			L63.9,92l-0.2-0.4L104.1,4L38.3,82l-0.4-42.5L13.7,96.3l-1.3-16.7L0.5,123.1l0,0v0c0,0,1.6-1.2,3.8-1.8l0,0c0.2,0,0.3-0.1,0.5-0.1
			c0,0,0,0,0.1,0c0.2,0,0.3-0.1,0.5-0.1c0,0,0,0,0.1,0c0.2,0,0.3-0.1,0.5-0.1c0,0,0,0,0,0c0.2,0,0.4,0,0.5,0c0,0,0.1,0,0.1,0
			c0.2,0,0.4,0,0.6,0c0,0,0,0,0.1,0c0.2,0,0.3,0,0.5,0c0,0,0.1,0,0.1,0c0.2,0,0.4,0.1,0.5,0.1c0,0,0.1,0,0.1,0
			c0.2,0,0.4,0.1,0.6,0.2c4.1,1.5,7.5,0,7.5,0s3.8,2.5,3.8,4.5h0c0,0,0,0,0,0s-5,0.3-5-1.9c0,0-6.5-2.3-15.5,1.1l19,8.2
			c0-0.1-1-3.6,0.1-4.9c0.3-0.4,1-0.6,1.9-0.3c0.3,0.1,0.6,0.1,0.8-0.1c1.5-1.5-5.7-14.8-5.7-14.8s-6.4-0.6-12,5.2
			c-0.4,0.4-0.8,0.8-1.1,1.3v0c0,0,0,0,0,0c0.6-1,2.4-3.9,5.4-6.4c1.8-1.5,4.1-2.9,6.8-3.6c0.7-1.8-0.2-0.6,1.3-1.6c0,0,0,0,0,0
			c0.7-4.7,3.4-16.7,12.5-27c0.6-0.7,1.2-1.4,1.9-2c0,0-2.3,4.4-2.3,7.5c0.1-0.1,2.4-3.5,5.6-6.7l0,0v0c0,0,0,0.1-0.1,0.1
			c-0.6,1.3-4.9,10.6-4.5,13.3c0,0,0,0,0,0.1l8.8-8.1c0,0,0,0,0,0c-0.3,0.3-8.3,11.2-9.1,14.9c0,0,0,0,0,0l13.3-9.5l0,0
			c0,0.1-1.7,2.4-2.4,3.6c-0.5,0.9-0.6,1.2-0.6,1.3l0,0.1l7.2-3.1c0,0-0.3,0.4-0.8,0.9L43.4,96l-0.7,0.7l-4.9,4.9l-0.1,0.1l-3.7,3.8
			l-2.4,2.4l0,0c0,0-1.9,2-2.2,3.1c-0.2,1,0.9,1.7,0.9,1.7h0c1,0.5,1.8,1.4,2.3,2.4c0.3,0.6,0.4,1.3,0.4,2c0,1.4-0.6,2.7-1.5,3.6
			c-0.9,0.9-2.3,1.5-3.8,1.5c-1.3,0-2.5-0.5-3.5-1.3c0.2,0.2,2.8,3.5,7.6,1l6-4.3l0.3-0.2l6.2-4.5c1.5,1.7,2.8,3.8,4.1,6.1l0,0
			c-3.7,3.5-9.9,9.5-16.1,16.1c-3.7,3.9-7.4,8.1-10.6,12l0,0l0,0l2.2-10.4l0,0l0.2-0.9c0,0,0,0,0,0l0,0c0,0,0,0-0.1,0c0,0,0,0,0,0
			c0,0,0,0-0.1,0c0,0,0,0,0,0c0,0-0.1,0-0.1,0c0,0,0,0-0.1,0c0,0-0.1,0-0.1,0.1c0,0,0,0-0.1,0.1c0,0,0,0-0.1,0.1
			c0,0-0.1,0.1-0.1,0.1c0,0-0.1,0.1-0.1,0.1c0,0-0.1,0.1-0.1,0.1c-0.1,0-0.1,0.1-0.1,0.1c0,0-0.1,0.1-0.1,0.1c0,0-0.1,0.1-0.1,0.1
			c-0.1,0-0.1,0.1-0.1,0.1c0,0.1-0.1,0.1-0.2,0.1c0,0-0.1,0.1-0.1,0.1c-0.1,0-0.1,0.1-0.2,0.2c0,0-0.1,0.1-0.1,0.1
			c0,0.1-0.1,0.1-0.2,0.2c0,0-0.1,0.1-0.1,0.1c0,0-0.1,0.1-0.1,0.1c0,0,0,0,0,0c-0.1,0.1-0.1,0.1-0.2,0.2c-0.1,0-0.1,0.1-0.2,0.2
			c-0.1,0.1-0.1,0.1-0.2,0.2c-0.1,0.1-0.1,0.1-0.2,0.2c0,0.1-0.1,0.1-0.1,0.2c0,0-0.1,0.1-0.1,0.1c0,0,0,0,0,0.1
			c0,0-0.1,0.1-0.1,0.1c-0.1,0.1-0.1,0.1-0.2,0.2c0,0,0,0,0,0c0,0,0,0-0.1,0.1c0,0.1-0.1,0.1-0.1,0.1c-0.1,0.1-0.1,0.2-0.2,0.3
			c-0.1,0.1-0.1,0.1-0.2,0.2c-0.1,0.1-0.2,0.2-0.2,0.3c-0.1,0.1-0.1,0.2-0.2,0.2c-0.1,0.1-0.2,0.2-0.3,0.3c-0.1,0.1-0.1,0.2-0.2,0.3
			c-0.1,0.1-0.2,0.2-0.2,0.3c-0.1,0.1-0.1,0.2-0.2,0.2c-0.1,0.1-0.2,0.2-0.3,0.4c-0.1,0.1-0.1,0.2-0.2,0.2c-0.1,0.1-0.2,0.3-0.3,0.4
			c0,0.1-0.1,0.1-0.1,0.2c-0.2,0.2-0.3,0.5-0.5,0.7l0,0c-0.2,0.2-0.3,0.5-0.5,0.7c0,0.1-0.1,0.1-0.1,0.2c-0.1,0.2-0.2,0.3-0.3,0.5
			c-0.1,0.1-0.1,0.2-0.2,0.3c-0.1,0.2-0.2,0.3-0.3,0.5c-0.1,0.1-0.1,0.2-0.2,0.3c-0.1,0.2-0.2,0.4-0.3,0.5c0,0.1-0.1,0.2-0.2,0.3
			c-0.1,0.2-0.2,0.4-0.3,0.5c-0.1,0.1-0.1,0.2-0.2,0.3c-0.1,0.2-0.2,0.4-0.3,0.6c0,0.1-0.1,0.2-0.2,0.3c-0.5,0.9-1,1.8-1.5,2.8
			c0,0,0,0,0,0l0,0l0,0l-2.5,0.4c0.5-1.3,1-2.4,1.5-3.5l-4,5.6l4-0.4c-3.4,7.9-5.9,18.1-5.9,32.8l3.3-2.1
			c2.9,16.3,16.3,23.5,16.3,23.5l0-0.1c7.4,4.9,16.4,8.2,26.4,9.6l0,0c1.4,0.2,2.5,0.3,2.8,0.3c0,0,0,0,0,0c0.2,0,0.3,0.1,0.5,0.1
			c5.4,0.5,10.6,0.3,15.6-0.5c0,0.2,0,0.4,0,0.6c0,3.2,1.8,5.9,4.1,6.1c-4.7,8-8.5,18.6-8.5,18.7c-0.2,0.5-0.6,1.4-0.9,1.7
			c-1.2,0.3-1.3,0.3-2.5,0.7l0,0c-0.4-0.4-4.1-1.1-7.9,0.3l0,0c0,0,0,0,0,0c-2.1,0.9-4.2,2.7-5.7,5.5c1.5-1.2,4.4-3.3,6.7-3
			c-2.8,1.6-7.5,4.6-8.1,8.9c0,0,16.6-11.6,24.8-9.5c0,0-1.2,1.4,1.6,6.4l1.3-4.7c1.5-4.5-4.2-5.2-6.6-5.3c0,0,0-0.1,0-0.1
			c0,0,0.3-0.7,0.7-1.9c1.4-3.6,4.7-11.7,8.3-17.4c0.1-0.1,0.1-0.2,0.1-0.4l-0.7-0.9c0,0,0.5-0.5,0.7-0.9c0.5-0.8,1.1-2,1.1-3.7
			c0-1.3-0.3-3-1.3-5.1l0,0l0,0l2.1-1c0.1,0.3,0.2,0.5,0.3,0.8c0,0.1,0.1,0.2,0.1,0.2c0.1,0.2,0.1,0.3,0.2,0.5
			c0,0.1,0.1,0.2,0.1,0.3c0.1,0.2,0.1,0.4,0.2,0.5c0,0.1,0,0.1,0.1,0.2l12.1-3.7l-2.7-2.2l0,0l0,0l0,0h0l-0.1-0.1l-0.1,0l0,0
			L44,166.9c0,0,0,0,0,0l0,0c12.8,6.2,27.7,13.4,52.9,25.1c24.9,11.5,40.7,18.2,48.8,21.5c0.1,0,0.1,0.1,0.2,0.1h0
			c1.2,0.5,2.2,0.9,3,1.2c1.7,0.7,3.4,1.3,3.5,1.4c0.1-0.1,0.3-0.1,0.4-0.2l-92.9-63.7L117.5,112.6z M53.2,132.3L53.2,132.3
			l-13.8,10.5l9.9-21.9l0,0v0C50.9,124.3,52.2,128.1,53.2,132.3L53.2,132.3z M102.6,207.6l0.3,1.7h0l0,0l16.2,9.5l4.1,2.4l-2.2-5.8
			c13.3,3.9,24.2,4.2,31.5,0.7c0,0,0,0,0,0C139.9,219.9,108.7,209.4,102.6,207.6z"/>
		<path d="M15.5,123.8c0,2.2,5,1.9,5,1.9c0-2.1-3.8-4.5-3.8-4.5s-3.5,1.5-7.6,0c-1.6-0.6-3.4-0.4-4.8,0c-1.9,1.3-4.3,3.6-4.3,3.6
			C9,121.5,15.5,123.8,15.5,123.8z M49.3,120.9l-9.9,21.9l13.8-10.5C52.2,128.1,50.8,124.3,49.3,120.9z M152.5,216.2
			c0,0-31.1-11.7-108.5-49.3l46.1,42h0l0,0c4.1-1.7,7-2.9,12.8,0.4l-0.3-1.7C108.6,209.4,140,220,152.5,216.2z M77.6,213.2
			c0.9,2.1,1.3,3.7,1.3,5.1c0,1.7-0.7,3-1.1,3.7c-0.3,0.4-0.7,0.9-0.7,0.9l1.4,1.9c0.1-0.1,2.8-2.1,2.8-6.5c0-1.7-0.4-3.7-1.5-6.1
			L77.6,213.2z M49.9,218.3c2.2,0.3,4.2,0.5,4.2,0.5l0.1-1.2c0,0-2-0.2-4.1-0.5L49.9,218.3z M48.3,119c-1.2-2.3-2.6-4.4-4.1-6.1
			l-12.4,9.1c-5,2.6-7.6-1-7.6-1c0.9,0.8,2.1,1.3,3.5,1.3c2.9,0,5.3-2.3,5.3-5.1c0-0.7-0.1-1.4-0.4-2c-0.5-1-1.3-1.9-2.3-2.4l0,0
			c0,0-1.1-0.6-0.9-1.7c0.2-1,2.2-3.1,2.2-3.1l0,0l6.1-6.2l0.1-0.1l5.5-5.6l2.7-2.7c0.5-0.5,0.8-0.9,0.8-0.9l-7.2,3.1
			c0,0-0.1-0.1,0.6-1.4c0.7-1.3,2.4-3.6,2.4-3.6L29.2,100c0.8-3.7,9.1-14.9,9.1-14.9l-8.8,8.1c-0.6-2.8,4.6-13.5,4.6-13.5
			c-3.2,3.2-5.6,6.7-5.6,6.7c0-3.1,2.3-7.5,2.3-7.5C20.2,89.6,17.2,103,16.5,108c-1.5,1-0.6-0.2-1.3,1.6c-7.2,2-11.2,8.4-12.2,10
			c5.8-7.2,13.2-6.5,13.2-6.5s8.7,16.2,4.9,14.9c-3.8-1.3-2,5.1-2,5.1l-7.2-3.1c1.2,2.3,3.5,7.8,2.2,13.6c-1.5,2.2-2.9,5-4.2,8.3
			l2.5-0.4c0.5-1,1-2,1.4-2.9c0.1-0.1,0.1-0.2,0.2-0.3c0.1-0.2,0.2-0.4,0.3-0.6c0.1-0.1,0.1-0.2,0.2-0.3c0.1-0.2,0.2-0.3,0.3-0.5
			c0.1-0.1,0.1-0.2,0.2-0.3c0.1-0.2,0.2-0.4,0.3-0.5c0.1-0.1,0.1-0.2,0.2-0.3c0.1-0.2,0.2-0.3,0.3-0.5c0-0.1,0.1-0.2,0.2-0.3
			c0.1-0.2,0.2-0.3,0.3-0.5c0-0.1,0.1-0.2,0.1-0.2c0.1-0.2,0.3-0.5,0.5-0.7c0,0,0,0,0,0c0.2-0.2,0.3-0.5,0.5-0.7
			c0-0.1,0.1-0.1,0.1-0.2c0.1-0.2,0.2-0.3,0.3-0.5c0.1-0.1,0.1-0.1,0.2-0.2c0.1-0.1,0.2-0.3,0.3-0.4c0.1-0.1,0.1-0.2,0.2-0.2
			c0.1-0.1,0.2-0.2,0.3-0.3c0.1-0.1,0.1-0.2,0.2-0.2c0.1-0.1,0.2-0.2,0.2-0.3c0.1-0.1,0.1-0.2,0.2-0.2c0.1-0.1,0.2-0.2,0.2-0.3
			c0.1-0.1,0.1-0.1,0.2-0.2c0.1-0.1,0.2-0.2,0.2-0.3c0.1-0.1,0.1-0.1,0.2-0.2c0.1-0.1,0.1-0.1,0.2-0.2c0.1-0.1,0.1-0.1,0.2-0.2
			c0.1-0.1,0.1-0.1,0.2-0.2c0,0,0.1-0.1,0.2-0.2c0.1-0.1,0.1-0.1,0.2-0.2c0,0,0.1-0.1,0.2-0.2c0.1-0.1,0.1-0.2,0.2-0.2
			c0.1,0,0.1-0.1,0.1-0.1c0.1-0.1,0.2-0.2,0.3-0.3c0.1,0,0.1-0.1,0.1-0.1c0-0.1,0.1-0.1,0.2-0.2c0,0,0.1-0.1,0.1-0.1
			c0.1,0,0.1-0.1,0.2-0.1c0.1,0,0.1-0.1,0.1-0.1c0-0.1,0.1-0.1,0.1-0.1c0,0,0.1-0.1,0.1-0.1c0,0,0.1-0.1,0.1-0.1
			c0,0,0.1-0.1,0.1-0.1c0,0,0.1-0.1,0.1-0.1c0,0,0.1-0.1,0.1-0.1c0,0,0.1,0,0.1-0.1c0,0,0.1,0,0.1-0.1c0,0,0.1,0,0.1-0.1
			c0,0,0,0,0.1,0c0,0,0.1,0,0.1,0c0,0,0,0,0,0c0,0,0,0,0.1,0c0,0,0,0,0,0c0,0,0,0,0.1,0l0,0c0,0,0,0,0,0l-0.2,0.9l0,0L21.6,147
			C30,136.6,42.5,124.5,48.3,119z M23.6,117.9l1-0.3c0,0.1,0.1,0.3,0.1,0.4c0.5,1.3,1.7,2,3,2c0.4,0,0.8-0.1,1.2-0.2
			c0.6-0.3,1.2-0.7,1.5-1.3l-1-0.6c0.1-0.3,0.2-0.6,0.2-0.9c0-0.4-0.1-0.7-0.2-1l2.2-0.7c0.8,2.3-0.3,4.8-2.5,5.6
			C26.8,121.5,24.4,120.2,23.6,117.9z"/>
	</g>
	<g>
		<path d="M226.1,135.4c-1.5-0.4-3.7-0.6-6.6-0.6h-6.2V170l0.7-0.5l5.1-3.6l0.2-0.1v-10h2c3.6,0,6.6-1,8.7-2.8
			c2.2-1.9,3.3-4.5,3.3-7.7c0-3-1-5.5-3-7.5C229,136.6,227.6,135.8,226.1,135.4z M220.9,150.7h-1.6v-10.8h1.8c4.7,0,7.1,1.7,7.1,5.2
			C228.2,148.9,225.7,150.7,220.9,150.7z M259.2,155c2.1-0.6,3.8-1.7,5.1-3.3c1.4-1.8,2.2-4,2.2-6.5c0-3.2-1.2-5.8-3.5-7.8
			c-2.1-1.7-5.4-2.6-10-2.6h-6.4V170l0.6-0.5l5.1-3.6l0.2-0.1v-10.1h0.3l9.6,13.7l0.2,0.3l0.3-0.2l4.1-3l0.3-0.2l-0.2-0.3L259.2,155
			z M252.5,150.7v-0.4l0,0v-9.9l0,0v-0.5h1.8c4.7,0,7.1,1.7,7.1,5.2c0,3.7-2.4,5.6-7.3,5.6H252.5z M169.7,135.8c-2-0.7-4.8-1-8.2-1
			H154v34.8h7.5c3.5,0,6.2-0.3,8.1-1c2-0.6,4-1.8,5.9-3.4c3.7-3.3,5.6-7.7,5.6-13c0-5.3-1.8-9.7-5.4-12.9
			C173.9,137.7,171.9,136.5,169.7,135.8z M171.4,160.9c-1.2,1.1-2.5,1.9-4,2.3c-1.5,0.5-3.3,0.7-5.6,0.7h-1.9v-23.5h1.9
			c4.2,0,7.5,1,9.6,3c2.4,2.2,3.6,5.2,3.6,8.8C175,155.7,173.8,158.7,171.4,160.9z M132.2,139.8c2.2,0,4.4,0.6,6.5,1.9l0.4,0.2
			l0.2-0.4l2.5-4.3l0.2-0.4l-0.4-0.2c-2.9-1.7-6-2.5-9-2.5c-5.7,0-10.4,2.1-14,6.4c-2.9,3.5-4.4,7.4-4.4,11.9
			c0,4.9,1.8,9.2,5.2,12.7c3.5,3.5,7.8,5.2,12.8,5.2c3.3,0,6.5-0.9,9.4-2.6l0.2-0.1v-0.3l0-0.1l-2.5-4.3l-0.2-0.4l-0.4,0.2
			c-0.7,0.4-1.4,0.8-2,1.1c-1.2,0.6-2.7,0.8-4.4,0.8c-3.3,0-6.2-1.2-8.5-3.6c-2.3-2.3-3.5-5.3-3.5-8.7c0-3.5,1.2-6.5,3.5-8.9
			C126,141,128.9,139.8,132.2,139.8z M524.7,140.4l0.1-0.1l4.7-4.8l0.7-0.7H510v34.8h14.7l0.1-0.1l4.6-4.8l0.7-0.7H516v-10.8h4.4
			l0.1-0.1l4.8-4.8l0.7-0.7h-10v-7H524.7z M422.5,140.4h7.8V170l0.7-0.5l5.1-3.6l0.2-0.1v-25.3h7.8v-5.7h-21.6V140.4z M296.3,134.1
			c-5,0-9.3,1.8-12.9,5.3c-3.6,3.5-5.4,7.7-5.4,12.6c0,5.5,2,10.1,5.9,13.5c3.5,3.1,7.6,4.7,12.1,4.7c5,0,9.4-1.8,13-5.3
			c3.6-3.5,5.4-7.7,5.4-12.7c0-4.9-1.8-9.3-5.3-12.8C305.5,135.9,301.2,134.1,296.3,134.1z M304.8,161c-2.4,2.4-5.3,3.6-8.7,3.6
			c-3.1,0-6-1.2-8.4-3.5c-2.4-2.3-3.7-5.3-3.7-9c0-3.4,1.2-6.4,3.5-8.7c2.3-2.4,5.3-3.6,8.7-3.6c3.4,0,6.3,1.2,8.6,3.6
			c2.3,2.4,3.5,5.3,3.5,8.8C308.4,155.6,307.2,158.6,304.8,161z M565.8,139.3c-1.8-1.6-3.8-2.8-6-3.5c-2-0.7-4.8-1-8.2-1h-7.5v34.8
			h7.5c3.5,0,6.2-0.3,8.1-1c2-0.6,4-1.8,5.9-3.4c3.7-3.3,5.6-7.7,5.6-13C571.2,146.9,569.4,142.5,565.8,139.3z M561.6,160.9
			c-1.2,1.1-2.5,1.9-4,2.3c-1.5,0.5-3.4,0.7-5.6,0.7h-1.9v-23.5h1.9c4.2,0,7.5,1,9.6,3c2.4,2.2,3.6,5.2,3.6,8.8
			C565.2,155.7,564,158.7,561.6,160.9z M487.1,155c2.1-0.6,3.8-1.7,5.1-3.3c1.4-1.8,2.2-4,2.2-6.5c0-3.2-1.2-5.8-3.4-7.8
			c-2.1-1.7-5.4-2.6-10-2.6h-6.4V170l0.7-0.5l5.1-3.6l0.2-0.1v-10.1h0.3l9.6,13.7l0.3,0.3l0.3-0.2l4.1-3l0.3-0.2l-0.2-0.3L487.1,155
			z M480.4,150.7v-10.8h1.8c4.7,0,7.1,1.7,7.1,5.2c0,3.7-2.4,5.6-7.3,5.6H480.4z M406.2,134.9l-12.5,12.8v-13.3l-0.7,0.5l-5.1,3.6
			l-0.2,0.1V170l0.7-0.5l5.1-3.6l0.2-0.1v-10.5l0.6-0.6l11.9,14.8l0.2,0.3l0.3-0.2l4.4-3l0.4-0.3l-0.3-0.4l-12.7-15.3l15.1-15.1
			l0.7-0.7h-8L406.2,134.9z M332.8,138.5l-0.2,0.1v18.6c0,2.8-0.3,4.8-0.9,5.9c-0.5,1-1.4,1.5-2.8,1.5c-1,0-2.1-0.4-3.2-1.2
			l-0.4-0.2l-0.2,0.4l-2.5,4.4l-0.2,0.4l0.3,0.2c1.9,1.1,4,1.7,6.2,1.7c3,0,5.4-1.1,7.1-3.2c0.9-1.1,1.6-2.4,2-3.9
			c0.4-1.3,0.6-3.3,0.6-6v-22.8l-0.7,0.5L332.8,138.5z M369.5,140.4l0.1-0.1l4.7-4.8l0.7-0.7h-20.2v34.8h14.7l0.1-0.1l4.6-4.8
			l0.7-0.7h-14.2v-10.8h4.4l0.1-0.1l4.8-4.8l0.7-0.7h-10v-7H369.5z"/>
		<g>
			<path d="M582.6,146.3c-3.4,0-6.1-2.7-6.1-6.1c0-3.4,2.7-6.1,6.1-6.1c3.4,0,6.1,2.7,6.1,6.1C588.7,143.6,586,146.3,582.6,146.3z
				 M582.6,135c-2.9,0-5.2,2.3-5.2,5.2c0,2.8,2.3,5.2,5.2,5.2s5.2-2.3,5.2-5.2C587.8,137.3,585.5,135,582.6,135z M584.3,143.7
				l-1.8-2.8h-1.2v2.8h-1v-7h2.8c1.2,0,2.3,0.8,2.3,2.1c0,1.5-1.4,2.1-1.8,2.1l1.9,2.8H584.3z M583.1,137.6h-1.9v2.5h1.9
				c0.6,0,1.3-0.5,1.3-1.2C584.4,138.1,583.7,137.6,583.1,137.6z"/>
		</g>
	</g>
</g>
</svg>
