<?xml version="1.0" standalone="no"?><!DOCTYPE svg PUBLIC "-//W3C//DTD SVG 1.1//EN" "http://www.w3.org/Graphics/SVG/1.1/DTD/svg11.dtd"><svg t="1609850354161" class="icon" viewBox="0 0 1024 1024" version="1.1" xmlns="http://www.w3.org/2000/svg" p-id="1743" xmlns:xlink="http://www.w3.org/1999/xlink" width="250" height="250"><defs><style type="text/css"></style></defs><path d="M14 449.02c-10-4.74-18.8 8.18-10.98 16l170.24 170.26A64 64 0 0 1 192 680.54V768h87.48a64 64 0 0 1 45.26 18.74l234.28 234.32c7.72 7.72 20.64-1.12 16-10.98C412.8 666.22 126.72 502.52 14 449.02zM1023.02 562C860.8 218.22 574.72 54.52 462 1.02c-10-4.74-18.8 8.18-10.98 16l42.26 42.24A64 64 0 0 1 512 104.52V192h87.48a64 64 0 0 1 45.26 18.74l104.52 104.52a64 64 0 0 1 18.74 45.26V448h87.46a64 64 0 0 1 45.26 18.74l106.32 106.32c7.72 7.72 20.64-1.06 15.98-11.06z" p-id="1744" fill="#d81e06"></path><path d="M5.34 30.26C-8.56 16.36 7.08-6.6 24.84 1.82A2021 2021 0 0 1 233.78 118 64.8 64.8 0 0 0 268 128h116v62.58a62.88 62.88 0 0 0 24.54 50c210.62 163.3 448.26 408 613.72 758.6 8.28 17.54-14.68 33.24-28.4 19.52l-168-168a64 64 0 0 0-45.28-18.7H704v-76.58a64 64 0 0 0-18.74-45.26l-179.42-179.42a64 64 0 0 0-45.26-18.74H384v-76.56a64 64 0 0 0-18.74-45.26z" p-id="1745" fill="#d81e06"></path></svg>