<?xml version="1.0" standalone="no"?><!DOCTYPE svg PUBLIC "-//W3C//DTD SVG 1.1//EN" "http://www.w3.org/Graphics/SVG/1.1/DTD/svg11.dtd"><svg t="1609160880589" class="icon" viewBox="0 0 1024 1024" version="1.1" xmlns="http://www.w3.org/2000/svg" p-id="4848" xmlns:xlink="http://www.w3.org/1999/xlink" width="110" height="110"><defs><style type="text/css"></style></defs><path d="M105.244444 572.472889h116.451556c32.085333 0 58.140444-24.860444 58.140444-55.296V295.822222c0-30.492444 26.168889-55.296 58.140445-55.296h348.956444c32.028444 0 58.311111 24.917333 58.311111 55.296v221.411556c0 30.435556 26.168889 55.296 58.140445 55.296h116.451555c32.028444 0 39.651556 17.749333 16.952889 39.139555L553.699556 976.213333a60.472889 60.472889 0 0 1-82.204445 0L88.291556 611.555556c-22.698667-21.333333-14.961778-39.082667 16.952888-39.082667z m232.846223-442.936889c-32.312889 0-58.140444-24.519111-58.140445-55.296 0-30.378667 26.055111-55.296 58.140445-55.296h349.297777c32.199111 0 58.083556 24.917333 58.083556 55.296 0 30.72-26.055111 55.296-58.140444 55.296h-349.297778z" p-id="4849" fill="#ffffff"></path></svg>