<?xml version="1.0" standalone="no"?><!DOCTYPE svg PUBLIC "-//W3C//DTD SVG 1.1//EN" "http://www.w3.org/Graphics/SVG/1.1/DTD/svg11.dtd"><svg t="1609167080383" class="icon" viewBox="0 0 1239 1024" version="1.1" xmlns="http://www.w3.org/2000/svg" p-id="2886" xmlns:xlink="http://www.w3.org/1999/xlink" width="133.095703125" height="110"><defs><style type="text/css"></style></defs><path d="M1189.126 335.383c-10.948-67.38-39.31-125.519-86.906-172.978-23.56-23.488-52.816-41.646-80.849-60.17-38.654-25.545-82.269-37.049-128.393-38.977-36.072-1.506-71.163 3.135-106.253 12.663-50.076 13.603-92.609 38.544-128.095 75.818-7.123 7.484-11.144 8.65-18.947 0.542-58.548-60.849-131.525-87.626-220.9-90.247-10.303 1.166-26.616 2.414-42.726 4.942-64.097 10.060-119.993 37.543-166.64 82.406-55.121 53.019-89.31 117.226-101.609 193.376-7.988 49.451-0.71 96.201 19.766 140.905 28.043 61.23 69.88 113.35 114.771 162.634 28.673 31.49 59.906 60.949 92.16 88.803 50.638 43.727 102.214 86.487 155.099 127.454 39.865 30.886 82.484 58.211 123.722 87.337 23.302 16.46 46.369 15.849 69.647 0.258 16.058-10.752 32.317-21.214 48.173-32.251 78.808-54.857 154.673-113.429 225.977-177.866 68.878-62.245 133.837-127.639 185.264-205.847 40.184-61.117 58.682-125.32 46.742-198.802z" p-id="2887" fill="#d81e06"></path></svg>