<?xml version="1.0" standalone="no"?><!DOCTYPE svg PUBLIC "-//W3C//DTD SVG 1.1//EN" "http://www.w3.org/Graphics/SVG/1.1/DTD/svg11.dtd"><svg t="1609160355085" class="icon" viewBox="0 0 1024 1024" version="1.1" xmlns="http://www.w3.org/2000/svg" p-id="6824" xmlns:xlink="http://www.w3.org/1999/xlink" width="110" height="110"><defs><style type="text/css"></style></defs><path d="M220.444714 684.682921c16.210193 0 29.352515-13.143345 29.352515-29.352515L249.797229 543.78696l152.636353 0 0 111.542422c0 16.210193 13.143345 29.352515 29.352515 29.352515 16.210193 0 29.352515-13.143345 29.352515-29.352515L461.138612 373.540532c0-16.210193-13.143345-29.352515-29.352515-29.352515-16.210193 0-29.352515 13.143345-29.352515 29.352515l0 111.540376-152.636353 0 0-111.540376c0-16.210193-13.143345-29.352515-29.352515-29.352515s-29.352515 13.143345-29.352515 29.352515l0 281.788851C191.091176 671.539576 204.234521 684.682921 220.444714 684.682921z" p-id="6825" fill="#1296db"></path><path d="M537.455765 684.682921l199.969381 0 18.48398 18.023492c5.709025 5.565762 13.102413 8.336876 20.490683 8.336876 7.636934 0 15.266705-2.962471 21.018709-8.859785 11.317767-11.607362 11.083429-30.191626-0.522909-41.509393l-18.744923-18.277272L778.150686 373.540532c0-16.210193-13.143345-29.352515-29.353538-29.352515L537.455765 344.188017c-16.210193 0-29.352515 13.143345-29.352515 29.352515l0 281.788851C508.102227 671.539576 521.245572 684.682921 537.455765 684.682921zM566.80828 402.893047l152.636353 0 0 182.261067-1.564635-1.52575c-11.609409-11.317767-30.191626-11.081383-41.509393 0.522909-11.317767 11.607362-11.083429 30.191626 0.522909 41.509393l0.323365 0.315178L566.80828 625.975844 566.80828 402.893047z" p-id="6826" fill="#1296db"></path><path d="M933.720857 236.364289 88.355327 236.364289c-13.508665 0-24.461111 10.952446-24.461111 24.461111L63.894216 768.045537c0 13.508665 10.952446 24.461111 24.461111 24.461111l845.36553 0c13.508665 0 24.461111-10.952446 24.461111-24.461111L958.181969 260.824377C958.181969 247.315712 947.229522 236.364289 933.720857 236.364289zM909.260769 743.584426 112.816438 743.584426 112.816438 285.285488l796.444331 0L909.260769 743.584426z" p-id="6827" fill="#1296db"></path></svg>