<?xml version="1.0" standalone="no"?><!DOCTYPE svg PUBLIC "-//W3C//DTD SVG 1.1//EN" "http://www.w3.org/Graphics/SVG/1.1/DTD/svg11.dtd"><svg t="1609831005369" class="icon" viewBox="0 0 1024 1024" version="1.1" xmlns="http://www.w3.org/2000/svg" p-id="1230" xmlns:xlink="http://www.w3.org/1999/xlink" width="200" height="200"><defs><style type="text/css"></style></defs><path d="M298.666667 213.333333h682.666666v170.666667h-42.666666v42.666667h-256a42.666667 42.666667 0 0 0-42.666667 42.666666v42.666667a85.333333 85.333333 0 0 1-85.333333 85.333333H410.453333c-16.213333 0-31.146667 9.386667-38.4 23.893334l-104.533333 208.64c-7.253333 14.506667-21.76 23.466667-37.973333 23.466666H85.333333s-128 0 42.666667-256c0 0 128-170.666667-42.666667-170.666666V213.333333h42.666667l21.333333-42.666666h128L298.666667 213.333333m298.666666 298.666667v-42.666667a42.666667 42.666667 0 0 0-42.666666-42.666666h-42.666667s-42.666667 42.666667 0 85.333333a85.333333 85.333333 0 0 1-85.333333-85.333333 42.666667 42.666667 0 0 0-42.666667 42.666666v42.666667a42.666667 42.666667 0 0 0 42.666667 42.666667h128a42.666667 42.666667 0 0 0 42.666666-42.666667z" fill="#f4ea2a" p-id="1231"></path></svg>