<?xml version="1.0" standalone="no"?><!DOCTYPE svg PUBLIC "-//W3C//DTD SVG 1.1//EN" "http://www.w3.org/Graphics/SVG/1.1/DTD/svg11.dtd"><svg t="1609850532671" class="icon" viewBox="0 0 1024 1024" version="1.1" xmlns="http://www.w3.org/2000/svg" p-id="9515" xmlns:xlink="http://www.w3.org/1999/xlink" width="250" height="250"><defs><style type="text/css"></style></defs><path d="M213.333333 85.333333a85.333333 85.333333 0 0 0-85.333333 85.333334c0 16 4.352 31.232 11.989333 43.989333a63.146667 63.146667 0 0 0 1.322667 125.354667A303.061333 303.061333 0 0 0 128 426.666667c0 75.306667 29.696 120.576 42.666667 138.666666v36.010667A66.048 66.048 0 0 0 149.333333 597.333333 64 64 0 0 0 85.333333 661.333333a63.146667 63.146667 0 0 0 54.656 62.677334C132.352 736.810667 128 752 128 768a85.333333 85.333333 0 0 0 170.666667 0c23.68 0 42.666667 18.986667 42.666666 42.666667 0 70.186667 57.813333 128 128 128h85.333334c70.186667 0 128-57.813333 128-128 0-23.68 18.986667-42.666667 42.666666-42.666667a85.333333 85.333333 0 0 0 170.666667 0c0-16-4.352-31.232-11.989333-43.989333A63.146667 63.146667 0 0 0 938.666667 661.333333a64 64 0 0 0-64-64c-7.381333 0-14.762667 1.706667-21.333334 4.010667v-36.010667c12.970667-18.090667 42.666667-63.36 42.666667-138.666666 0-30.378667-5.12-58.88-13.354667-86.656a63.146667 63.146667 0 1 0 1.322667-125.354667c7.68-12.8 12.032-27.989333 12.032-43.989333a85.205333 85.205333 0 1 0-166.656-25.344A419.456 419.456 0 0 0 512 85.333333c-79.701333 0-155.093333 22.186667-217.344 59.989334A85.205333 85.205333 0 0 0 213.333333 85.333333z m298.666667 85.333334c167.68 0 298.666667 115.84 298.666667 256 0 61.013333-33.322667 101.333333-33.322667 101.333333l-9.344 10.666667V640c0 23.68-18.986667 42.666667-42.666667 42.666667-70.186667 0-128 57.813333-128 128 0 23.68-18.986667 42.666667-42.666666 42.666666h-85.333334c-23.68 0-42.666667-18.986667-42.666666-42.666666 0-70.186667-57.813333-128-128-128-23.68 0-42.666667-18.986667-42.666667-42.666667v-101.333333l-9.344-10.666667S213.333333 487.68 213.333333 426.666667c0-140.16 130.986667-256 298.666667-256z m-128 298.666666c-46.933333 0-85.333333 38.4-85.333333 85.333334s17.066667 85.333333 64 85.333333 106.666667-38.4 106.666666-85.333333-38.4-85.333333-85.333333-85.333334z m256 0c-46.933333 0-85.333333 38.4-85.333333 85.333334s59.733333 85.333333 106.666666 85.333333 64-38.4 64-85.333333-38.4-85.333333-85.333333-85.333334z m-128 170.666667c-17.066667 4.266667-50.688 64.512-50.688 98.688 0 17.066667 8.533333 25.301333 21.333333 25.301333 17.066667 0 29.354667-17.578667 29.354667-34.645333 0 12.8 12.245333 34.645333 29.354667 34.645333 8.533333 0 21.333333-8.277333 21.333333-25.301333 0-34.133333-33.621333-94.421333-50.688-98.688z" p-id="9516" fill="#d81e06"></path></svg>