<?xml version="1.0" standalone="no"?><!DOCTYPE svg PUBLIC "-//W3C//DTD SVG 1.1//EN" "http://www.w3.org/Graphics/SVG/1.1/DTD/svg11.dtd"><svg t="1609831344872" class="icon" viewBox="0 0 1024 1024" version="1.1" xmlns="http://www.w3.org/2000/svg" p-id="3214" xmlns:xlink="http://www.w3.org/1999/xlink" width="200" height="200"><defs><style type="text/css"></style></defs><path d="M459.612 700.156a21.31 21.31 0 0 1-21.438 5.312l-46.014-14.342c-11.25-3.5-17.53-15.438-14.03-26.688 3.516-11.248 15.468-17.53 26.716-14.03l46.014 14.31c11.25 3.5 17.53 15.468 14.014 26.718a21.108 21.108 0 0 1-5.262 8.72z" fill="#f4ea2a" p-id="3215"></path><path d="M262.712 1017.738a21.196 21.196 0 0 1-8.188 5.094 21.38 21.38 0 0 1-17.874-1.876l-150.838-90.498a21.368 21.368 0 0 1-10.124-15.094 21.296 21.296 0 0 1 5.172-17.404l181.994-203.99a21.168 21.168 0 0 1 10.796-6.5l16.766-4.156c6.952-25.312 25.608-80.904 62.826-118.152h0.016L761.3 157.116c4-4 9.406-6.25 15.062-6.25s11.094 2.25 15.094 6.25l60.34 60.34a21.332 21.332 0 0 1 0 30.188L418.612 680.814l-14.078 98.556a21.318 21.318 0 0 1-11.796 16.188L341.6 820.4l-74.092 190.026a21.36 21.36 0 0 1-4.796 7.312z" fill="#f4ea2a" p-id="3216"></path><path d="M776.364 150.866c-5.656 0-264.754 269.458-256.428 277.8l60.344 60.34a21.304 21.304 0 0 0 30.154 0l226.272-226.272 15.092-15.092a21.332 21.332 0 0 0 0-30.188l-60.34-60.34a21.368 21.368 0 0 0-15.094-6.248z" fill="#f4ea2a" p-id="3217"></path><path d="M806.55 292.892l30.156-30.156-90.498-90.528-30.184 30.186zM746.208 353.234l30.156-30.156-90.494-90.528-30.188 30.186zM685.87 413.574l30.154-30.156-90.496-90.526-30.186 30.186zM625.528 473.916l30.154-30.188-90.496-90.494-30.156 30.154z" fill="#f4ea2a" p-id="3218"></path><path d="M942.294 36.464L413.582 565.162c-8.328 8.344-21.828 8.344-30.17 0-8.328-8.312-8.328-21.81 0-30.154L912.14 6.278c8.312-8.344 21.842-8.344 30.154 0a21.33 21.33 0 0 1 0 30.186z" fill="#f4ea2a" p-id="3219"></path><path d="M406.66 530.382a21.334 21.334 0 0 0-23.248 4.624l-30.156 30.154h-0.016c-37.216 37.248-55.874 92.84-62.826 118.152l-16.766 4.156a21.232 21.232 0 0 0-10.796 6.5L80.86 897.96a21.304 21.304 0 0 0-5.172 17.404 21.38 21.38 0 0 0 10.124 15.094l150.838 90.498a21.396 21.396 0 0 0 26.062-3.218 21.408 21.408 0 0 0 4.796-7.312L341.6 820.4l51.138-24.842a21.318 21.318 0 0 0 11.796-16.188l15.094-105.588c0.14-1 0.204-2 0.204-3V550.1c0-8.624-5.188-16.404-13.172-19.718z" fill="#f4ea2a" p-id="3220"></path></svg>