<?xml version="1.0" standalone="no"?><!DOCTYPE svg PUBLIC "-//W3C//DTD SVG 1.1//EN" "http://www.w3.org/Graphics/SVG/1.1/DTD/svg11.dtd"><svg t="1609831241844" class="icon" viewBox="0 0 1024 1024" version="1.1" xmlns="http://www.w3.org/2000/svg" p-id="2659" xmlns:xlink="http://www.w3.org/1999/xlink" width="200" height="200"><defs><style type="text/css"></style></defs><path d="M512 512m-21.328 0a21.328 21.328 0 1 0 42.656 0 21.328 21.328 0 1 0-42.656 0Z" fill="#f4ea2a" p-id="2660"></path><path d="M512 959.992c-119.67 0-232.168-46.594-316.776-131.214C110.6 744.184 64.008 631.688 64.008 512c0-119.67 46.592-232.168 131.216-316.776C279.832 110.6 392.33 64.008 512 64.008c119.688 0 232.184 46.592 316.778 131.216 84.59 84.608 131.214 197.106 131.214 316.776 0 119.686-46.624 232.182-131.214 316.776-84.594 84.622-197.09 131.216-316.778 131.216z m0-853.312c-108.264 0-210.058 42.156-286.604 118.716C148.834 301.942 106.678 403.738 106.678 512c0 108.25 42.156 210.058 118.716 286.62 76.546 76.562 178.34 118.684 286.604 118.684 108.25 0 210.058-42.122 286.622-118.684 76.558-76.562 118.684-178.372 118.684-286.62 0-108.264-42.124-210.058-118.684-286.606C722.058 148.834 620.25 106.68 512 106.68z" fill="#f4ea2a" p-id="2661"></path><path d="M512 874.684c-96.874 0-187.95-37.75-256.434-106.25C187.068 699.934 149.334 608.876 149.334 512s37.734-187.95 106.232-256.434C324.05 187.07 415.126 149.334 512 149.334c96.876 0 187.934 37.734 256.434 106.232 68.5 68.484 106.246 159.56 106.246 256.434s-37.746 187.932-106.246 256.432S608.876 874.684 512 874.684z m0-682.678c-85.468 0-165.826 33.28-226.278 93.718C225.286 346.174 192.006 426.534 192.006 512s33.28 165.808 93.716 226.276c60.452 60.438 140.81 93.718 226.278 93.718 85.468 0 165.808-33.282 226.246-93.718 60.468-60.468 93.75-140.808 93.75-226.276s-33.282-165.826-93.75-226.278C677.808 225.286 597.468 192.006 512 192.006z" fill="#f4ea2a" p-id="2662"></path><path d="M512 640c-70.578 0-127.998-57.438-127.998-128 0-70.578 57.42-127.998 127.998-127.998 70.562 0 127.996 57.42 127.996 127.998 0 70.562-57.434 128-127.996 128z m0-213.326c-47.046 0-85.328 38.28-85.328 85.328 0 47.062 38.282 85.312 85.328 85.312 47.062 0 85.312-38.25 85.312-85.312 0-47.048-38.25-85.328-85.312-85.328z" fill="#f4ea2a" p-id="2663"></path><path d="M1002.68 533.328H789.308c-11.75 0-21.312-9.546-21.312-21.328s9.562-21.328 21.312-21.328H1002.68c11.75 0 21.312 9.546 21.312 21.328s-9.562 21.328-21.312 21.328zM234.676 533.328H21.336C9.554 533.328 0.008 523.782 0.008 512s9.546-21.328 21.328-21.328h213.34c11.782 0 21.328 9.546 21.328 21.328s-9.546 21.328-21.328 21.328zM512 1023.992c-11.782 0-21.328-9.562-21.328-21.312V789.308c0-11.75 9.546-21.312 21.328-21.312s21.328 9.562 21.328 21.312V1002.68c0 11.75-9.546 21.312-21.328 21.312zM512 256.004c-11.782 0-21.328-9.546-21.328-21.328V21.336c0-11.782 9.546-21.328 21.328-21.328s21.328 9.546 21.328 21.328v213.34c0 11.782-9.546 21.328-21.328 21.328z" fill="#f4ea2a" p-id="2664"></path></svg>