<?xml version="1.0" standalone="no"?><!DOCTYPE svg PUBLIC "-//W3C//DTD SVG 1.1//EN" "http://www.w3.org/Graphics/SVG/1.1/DTD/svg11.dtd"><svg t="1609831123241" class="icon" viewBox="0 0 1024 1024" version="1.1" xmlns="http://www.w3.org/2000/svg" p-id="2274" xmlns:xlink="http://www.w3.org/1999/xlink" width="200" height="200"><defs><style type="text/css"></style></defs><path d="M915.298462 187.470769h94.523076v94.523077h-94.523076z" fill="#f4ea2a" p-id="2275"></path><path d="M899.544615 155.963077h-31.507692v157.538461h31.507692c7.876923 0 15.753846-7.876923 15.753847-15.753846v-126.030769c0-9.452308-6.301538-15.753846-15.753847-15.753846zM868.036923 61.44h-47.261538l-31.507693 31.507692v47.261539h78.769231z" fill="#f4ea2a" p-id="2276"></path><path d="M836.529231 61.44h-15.753846l-31.507693 31.507692v47.261539h15.753846V94.523077z" fill="#f4ea2a" p-id="2277"></path><path d="M316.652308 754.609231h-31.507693c-44.110769-130.756923 15.753846-267.815385 15.753847-346.584616l-47.261539-31.507692v-15.753846h220.553846v393.846154h-157.538461z" fill="#f4ea2a" p-id="2278"></path><path d="M458.436923 376.516923v378.092308h15.753846v-378.092308z" fill="#f4ea2a" p-id="2279"></path><path d="M316.652308 408.024615l-47.261539-31.507692h-15.753846l47.261539 31.507692c0 78.769231-59.864615 215.827692-15.753847 346.584616h15.753847c-44.110769-132.332308 15.753846-267.815385 15.753846-346.584616z" fill="#f4ea2a" p-id="2280"></path><path d="M726.252308 140.209231l-31.507693-15.753846h-677.415384v173.292307h78.769231v15.753846l94.523076 47.261539h519.876924l31.507692-15.753846h110.276923l15.753846-15.753846v-189.046154h-141.784615z m-488.369231 47.261538c0-7.876923 7.876923-15.753846 15.753846-15.753846h141.784615c7.876923 0 15.753846 7.876923 15.753847 15.753846v47.261539c0 7.876923-7.876923 15.753846-15.753847 15.753846h-141.784615c-7.876923 0-15.753846-7.876923-15.753846-15.753846v-47.261539z m362.338461 141.784616h-346.584615c-7.876923 0-15.753846-7.876923-15.753846-15.753847s7.876923-15.753846 15.753846-15.753846h346.584615c7.876923 0 15.753846 7.876923 15.753847 15.753846s-7.876923 15.753846-15.753847 15.753847z" fill="#f4ea2a" p-id="2281"></path><path d="M852.283077 140.209231v189.046154l-15.753846 15.753846h15.753846l15.753846-15.753846v-189.046154z" fill="#f4ea2a" p-id="2282"></path><path d="M17.329231 124.455385h15.753846v173.292307h-15.753846zM127.606154 61.44h-78.769231l-31.507692 31.507692v31.507693h110.276923z" fill="#f4ea2a" p-id="2283"></path><path d="M64.590769 61.44h-15.753846l-31.507692 31.507692v31.507693h15.753846V94.523077z" fill="#f4ea2a" p-id="2284"></path><path d="M127.606154 305.624615c-4.726154 0-7.876923-3.150769-7.876923-7.876923s3.150769-7.876923 7.876923-7.876923 7.876923 3.150769 7.876923 7.876923-3.150769 7.876923-7.876923 7.876923zM694.744615 305.624615c-4.726154 0-7.876923-3.150769-7.876923-7.876923s3.150769-7.876923 7.876923-7.876923 7.876923 3.150769 7.876923 7.876923-3.150769 7.876923-7.876923 7.876923zM316.652308 557.686154c-4.726154 0-7.876923-3.150769-7.876923-7.876923s3.150769-7.876923 7.876923-7.876923 7.876923 3.150769 7.876923 7.876923-3.150769 7.876923-7.876923 7.876923zM190.621538 337.132308c-4.726154 0-7.876923-3.150769-7.876923-7.876923s3.150769-7.876923 7.876923-7.876923 7.876923 3.150769 7.876924 7.876923-3.150769 7.876923-7.876924 7.876923zM891.667692 195.347692c-4.726154 0-7.876923-3.150769-7.876923-7.876923s3.150769-7.876923 7.876923-7.876923 7.876923 3.150769 7.876923 7.876923-3.150769 7.876923-7.876923 7.876923zM891.667692 226.855385c-4.726154 0-7.876923-3.150769-7.876923-7.876923s3.150769-7.876923 7.876923-7.876924 7.876923 3.150769 7.876923 7.876924-3.150769 7.876923-7.876923 7.876923zM891.667692 258.363077c-4.726154 0-7.876923-3.150769-7.876923-7.876923s3.150769-7.876923 7.876923-7.876923 7.876923 3.150769 7.876923 7.876923-3.150769 7.876923-7.876923 7.876923zM891.667692 289.870769c-4.726154 0-7.876923-3.150769-7.876923-7.876923s3.150769-7.876923 7.876923-7.876923 7.876923 3.150769 7.876923 7.876923-3.150769 7.876923-7.876923 7.876923zM80.344615 100.824615c-4.726154 0-7.876923-3.150769-7.876923-7.876923s3.150769-7.876923 7.876923-7.876923 7.876923 3.150769 7.876923 7.876923-3.150769 7.876923-7.876923 7.876923z" fill="#f4ea2a" p-id="2285"></path><path d="M600.221538 329.255385h-346.584615c-7.876923 0-15.753846-7.876923-15.753846-15.753847s7.876923-15.753846 15.753846-15.753846h346.584615c7.876923 0 15.753846 7.876923 15.753847 15.753846s-7.876923 15.753846-15.753847 15.753847zM411.175385 187.470769v47.261539c0 7.876923-7.876923 15.753846-15.753847 15.753846h-141.784615c-7.876923 0-15.753846-7.876923-15.753846-15.753846v-47.261539c0-7.876923 7.876923-15.753846 15.753846-15.753846h141.784615c7.876923 0 15.753846 7.876923 15.753847 15.753846z" fill="#f4ea2a" p-id="2286"></path><path d="M600.221538 329.255385h-346.584615c-7.876923 0-15.753846-7.876923-15.753846-15.753847s7.876923-15.753846 15.753846-15.753846h346.584615c7.876923 0 15.753846 7.876923 15.753847 15.753846s-7.876923 15.753846-15.753847 15.753847zM411.175385 187.470769v47.261539c0 7.876923-7.876923 15.753846-15.753847 15.753846h-141.784615c-7.876923 0-15.753846-7.876923-15.753846-15.753846v-47.261539c0-7.876923 7.876923-15.753846 15.753846-15.753846h141.784615c7.876923 0 15.753846 7.876923 15.753847 15.753846z" fill="#f4ea2a" p-id="2287"></path><path d="M316.652308 754.609231h141.784615v204.8c0 7.876923-7.876923 15.753846-15.753846 15.753846h-110.276923c-7.876923 0-15.753846-7.876923-15.753846-15.753846v-204.8z" fill="#f4ea2a" p-id="2288"></path><path d="M332.406154 959.409231v-189.046154h-15.753846v189.046154c0 7.876923 7.876923 15.753846 15.753846 15.753846h15.753846c-9.452308 0-15.753846-7.876923-15.753846-15.753846z" fill="#f4ea2a" p-id="2289"></path><path d="M442.683077 959.409231v-189.046154h15.753846v189.046154c0 7.876923-7.876923 15.753846-15.753846 15.753846h-15.753846c7.876923 0 15.753846-7.876923 15.753846-15.753846z" fill="#f4ea2a" p-id="2290"></path><path d="M253.636923 360.763077h220.553846v15.753846h-220.553846z" fill="#f4ea2a" p-id="2291"></path><path d="M615.975385 92.947692h47.261538v31.507693h-47.261538z" fill="#f4ea2a" p-id="2292"></path><path d="M316.652308 754.609231h141.784615v15.753846h-141.784615zM868.036923 155.963077h15.753846v157.538461h-15.753846zM915.298462 187.470769h15.753846v94.523077h-15.753846z" fill="#f4ea2a" p-id="2293"></path><path d="M48.836923 187.470769h78.769231v47.261539h-78.769231z" fill="#f4ea2a" p-id="2294"></path><path d="M111.852308 61.44h15.753846v63.015385h-15.753846zM852.283077 61.44h15.753846v78.769231h-15.753846z" fill="#f4ea2a" p-id="2295"></path><path d="M931.052308 187.470769h78.76923v15.753846h-78.76923z" fill="#f4ea2a" p-id="2296"></path><path d="M931.052308 266.24h78.76923v15.753846h-78.76923z" fill="#f4ea2a" p-id="2297"></path><path d="M1009.821538 195.347692h-78.76923c-4.726154 0-7.876923-3.150769-7.876923-7.876923s3.150769-7.876923 7.876923-7.876923h78.76923c4.726154 0 7.876923 3.150769 7.876924 7.876923s-3.150769 7.876923-7.876924 7.876923zM1009.821538 289.870769h-78.76923c-4.726154 0-7.876923-3.150769-7.876923-7.876923s3.150769-7.876923 7.876923-7.876923h78.76923c4.726154 0 7.876923 3.150769 7.876924 7.876923s-3.150769 7.876923-7.876924 7.876923z" fill="#f4ea2a" p-id="2298"></path><path d="M915.298462 305.624615c-4.726154 0-7.876923-3.150769-7.876924-7.876923v-126.030769c0-4.726154 3.150769-7.876923 7.876924-7.876923s7.876923 3.150769 7.876923 7.876923v126.030769c0 4.726154-3.150769 7.876923-7.876923 7.876923zM694.744615 132.332308h-677.415384c-4.726154 0-7.876923-3.150769-7.876923-7.876923s3.150769-7.876923 7.876923-7.876923h677.415384c4.726154 0 7.876923 3.150769 7.876923 7.876923s-3.150769 7.876923-7.876923 7.876923z" fill="#f4ea2a" p-id="2299"></path><path d="M726.252308 148.086154c-1.575385 0-3.150769 0-3.15077-1.575385l-31.507692-15.753846c-3.150769-1.575385-4.726154-6.301538-3.150769-11.027692 1.575385-3.150769 6.301538-4.726154 11.027692-3.150769l31.507693 15.753846c3.150769 1.575385 4.726154 6.301538 3.150769 11.027692-1.575385 3.150769-4.726154 4.726154-7.876923 4.726154z" fill="#f4ea2a" p-id="2300"></path><path d="M868.036923 148.086154h-141.784615c-4.726154 0-7.876923-3.150769-7.876923-7.876923s3.150769-7.876923 7.876923-7.876923h141.784615c4.726154 0 7.876923 3.150769 7.876923 7.876923s-3.150769 7.876923-7.876923 7.876923zM757.76 352.886154h-15.753846c-4.726154 0-7.876923-3.150769-7.876923-7.876923s3.150769-7.876923 7.876923-7.876923h15.753846c4.726154 0 7.876923 3.150769 7.876923 7.876923s-3.150769 7.876923-7.876923 7.876923z" fill="#f4ea2a" p-id="2301"></path><path d="M710.498462 368.64c-3.150769 0-6.301538-1.575385-6.301539-4.726154-1.575385-3.150769 0-7.876923 3.150769-11.027692l31.507693-15.753846c3.150769-1.575385 7.876923 0 11.027692 3.150769 1.575385 3.150769 0 7.876923-3.150769 11.027692l-31.507693 15.753846c-1.575385 1.575385-3.150769 1.575385-4.726153 1.575385z" fill="#f4ea2a" p-id="2302"></path><path d="M710.498462 368.64h-519.876924c-4.726154 0-7.876923-3.150769-7.876923-7.876923s3.150769-7.876923 7.876923-7.876923h519.876924c4.726154 0 7.876923 3.150769 7.876923 7.876923s-3.150769 7.876923-7.876923 7.876923z" fill="#f4ea2a" p-id="2303"></path><path d="M190.621538 368.64c-1.575385 0-3.150769 0-3.150769-1.575385l-94.523077-47.261538c-3.150769-1.575385-4.726154-6.301538-3.150769-11.027692 1.575385-3.150769 6.301538-4.726154 11.027692-3.15077l94.523077 47.261539c3.150769 1.575385 4.726154 6.301538 3.15077 11.027692-1.575385 3.150769-4.726154 4.726154-7.876924 4.726154z" fill="#f4ea2a" p-id="2304"></path><path d="M96.098462 321.378462c-4.726154 0-7.876923-3.150769-7.876924-7.876924v-15.753846c0-4.726154 3.150769-7.876923 7.876924-7.876923s7.876923 3.150769 7.876923 7.876923v15.753846c0 4.726154-3.150769 7.876923-7.876923 7.876924z" fill="#f4ea2a" p-id="2305"></path><path d="M96.098462 305.624615h-78.769231c-4.726154 0-7.876923-3.150769-7.876923-7.876923s3.150769-7.876923 7.876923-7.876923h78.769231c4.726154 0 7.876923 3.150769 7.876923 7.876923s-3.150769 7.876923-7.876923 7.876923zM1009.821538 289.870769c-4.726154 0-7.876923-3.150769-7.876923-7.876923v-94.523077c0-4.726154 3.150769-7.876923 7.876923-7.876923s7.876923 3.150769 7.876924 7.876923v94.523077c0 4.726154-3.150769 7.876923-7.876924 7.876923zM915.298462 179.593846c-4.726154 0-7.876923-3.150769-7.876924-7.876923s-3.150769-7.876923-7.876923-7.876923-7.876923-3.150769-7.876923-7.876923 3.150769-7.876923 7.876923-7.876923c12.603077 0 23.630769 11.027692 23.63077 23.630769 0 4.726154-3.150769 7.876923-7.876923 7.876923zM899.544615 321.378462c-4.726154 0-7.876923-3.150769-7.876923-7.876924s3.150769-7.876923 7.876923-7.876923 7.876923-3.150769 7.876923-7.876923 3.150769-7.876923 7.876924-7.876923 7.876923 3.150769 7.876923 7.876923c0 12.603077-11.027692 23.630769-23.63077 23.63077z" fill="#f4ea2a" p-id="2306"></path><path d="M899.544615 163.84h-15.753846c-4.726154 0-7.876923-3.150769-7.876923-7.876923s3.150769-7.876923 7.876923-7.876923h15.753846c4.726154 0 7.876923 3.150769 7.876923 7.876923s-3.150769 7.876923-7.876923 7.876923zM899.544615 321.378462h-15.753846c-4.726154 0-7.876923-3.150769-7.876923-7.876924s3.150769-7.876923 7.876923-7.876923h15.753846c4.726154 0 7.876923 3.150769 7.876923 7.876923s-3.150769 7.876923-7.876923 7.876924zM868.036923 337.132308c-4.726154 0-7.876923-3.150769-7.876923-7.876923v-189.046154c0-4.726154 3.150769-7.876923 7.876923-7.876923s7.876923 3.150769 7.876923 7.876923v189.046154c0 4.726154-3.150769 7.876923-7.876923 7.876923zM17.329231 305.624615c-4.726154 0-7.876923-3.150769-7.876923-7.876923v-173.292307c0-4.726154 3.150769-7.876923 7.876923-7.876923s7.876923 3.150769 7.876923 7.876923v173.292307c0 4.726154-3.150769 7.876923-7.876923 7.876923z" fill="#f4ea2a" p-id="2307"></path><path d="M17.329231 116.578462c-4.726154 0-7.876923-3.150769-7.876923-7.876924v-15.753846c0-4.726154 3.150769-7.876923 7.876923-7.876923s7.876923 3.150769 7.876923 7.876923v15.753846c0 4.726154-3.150769 7.876923-7.876923 7.876924z" fill="#f4ea2a" p-id="2308"></path><path d="M17.329231 100.824615c-1.575385 0-4.726154 0-6.301539-1.575384-3.150769-3.150769-3.150769-7.876923 0-11.027693l31.507693-31.507692c3.150769-3.150769 7.876923-3.150769 11.027692 0s3.150769 7.876923 0 11.027692l-31.507692 31.507693c0 1.575385-3.150769 1.575385-4.726154 1.575384z" fill="#f4ea2a" p-id="2309"></path><path d="M127.606154 69.316923h-78.769231c-4.726154 0-7.876923-3.150769-7.876923-7.876923s3.150769-7.876923 7.876923-7.876923h78.769231c4.726154 0 7.876923 3.150769 7.876923 7.876923s-3.150769 7.876923-7.876923 7.876923z" fill="#f4ea2a" p-id="2310"></path><path d="M127.606154 116.578462c-4.726154 0-7.876923-3.150769-7.876923-7.876924v-47.261538c0-4.726154 3.150769-7.876923 7.876923-7.876923s7.876923 3.150769 7.876923 7.876923v47.261538c0 4.726154-3.150769 7.876923-7.876923 7.876924zM868.036923 132.332308c-4.726154 0-7.876923-3.150769-7.876923-7.876923v-63.015385c0-4.726154 3.150769-7.876923 7.876923-7.876923s7.876923 3.150769 7.876923 7.876923v63.015385c0 4.726154-3.150769 7.876923-7.876923 7.876923z" fill="#f4ea2a" p-id="2311"></path><path d="M868.036923 69.316923h-47.261538c-4.726154 0-7.876923-3.150769-7.876923-7.876923s3.150769-7.876923 7.876923-7.876923h47.261538c4.726154 0 7.876923 3.150769 7.876923 7.876923s-3.150769 7.876923-7.876923 7.876923z" fill="#f4ea2a" p-id="2312"></path><path d="M789.267692 100.824615c-1.575385 0-4.726154 0-6.301538-1.575384-3.150769-3.150769-3.150769-7.876923 0-11.027693l31.507692-31.507692c3.150769-3.150769 7.876923-3.150769 11.027692 0s3.150769 7.876923 0 11.027692l-31.507692 31.507693c0 1.575385-3.150769 1.575385-4.726154 1.575384z" fill="#f4ea2a" p-id="2313"></path><path d="M789.267692 132.332308c-4.726154 0-7.876923-3.150769-7.876923-7.876923v-31.507693c0-4.726154 3.150769-7.876923 7.876923-7.876923s7.876923 3.150769 7.876923 7.876923v31.507693c0 4.726154-3.150769 7.876923-7.876923 7.876923zM663.236923 100.824615h-47.261538c-4.726154 0-7.876923-3.150769-7.876923-7.876923s3.150769-7.876923 7.876923-7.876923h47.261538c4.726154 0 7.876923 3.150769 7.876923 7.876923s-3.150769 7.876923-7.876923 7.876923z" fill="#f4ea2a" p-id="2314"></path><path d="M663.236923 116.578462c-4.726154 0-7.876923-3.150769-7.876923-7.876924v-63.015384c0-4.726154 3.150769-7.876923 7.876923-7.876923s7.876923 3.150769 7.876923 7.876923v63.015384c0 4.726154-3.150769 7.876923-7.876923 7.876924zM615.975385 116.578462c-4.726154 0-7.876923-3.150769-7.876923-7.876924v-15.753846c0-4.726154 3.150769-7.876923 7.876923-7.876923s7.876923 3.150769 7.876923 7.876923v15.753846c0 4.726154-3.150769 7.876923-7.876923 7.876924zM757.76 352.886154c-1.575385 0-4.726154 0-6.301538-1.575385-3.150769-3.150769-3.150769-7.876923 0-11.027692l15.753846-15.753846c3.150769-3.150769 7.876923-3.150769 11.027692 0s3.150769 7.876923 0 11.027692l-15.753846 15.753846c0 1.575385-3.150769 1.575385-4.726154 1.575385zM805.021538 352.886154h-15.753846c-4.726154 0-7.876923-3.150769-7.876923-7.876923s3.150769-7.876923 7.876923-7.876923h15.753846c4.726154 0 7.876923 3.150769 7.876924 7.876923s-3.150769 7.876923-7.876924 7.876923z" fill="#f4ea2a" p-id="2315"></path><path d="M805.021538 352.886154c-1.575385 0-4.726154 0-6.301538-1.575385-3.150769-3.150769-3.150769-7.876923 0-11.027692l15.753846-15.753846c3.150769-3.150769 7.876923-3.150769 11.027692 0s3.150769 7.876923 0 11.027692l-15.753846 15.753846c0 1.575385-3.150769 1.575385-4.726154 1.575385zM852.283077 352.886154h-15.753846c-4.726154 0-7.876923-3.150769-7.876923-7.876923s3.150769-7.876923 7.876923-7.876923h15.753846c4.726154 0 7.876923 3.150769 7.876923 7.876923s-3.150769 7.876923-7.876923 7.876923z" fill="#f4ea2a" p-id="2316"></path><path d="M852.283077 352.886154c-1.575385 0-4.726154 0-6.301539-1.575385-3.150769-3.150769-3.150769-7.876923 0-11.027692l15.753847-15.753846c3.150769-3.150769 7.876923-3.150769 11.027692 0s3.150769 7.876923 0 11.027692l-15.753846 15.753846c0 1.575385-3.150769 1.575385-4.726154 1.575385zM237.883077 148.086154c-1.575385 0-4.726154 0-6.301539-1.575385-3.150769-3.150769-3.150769-7.876923 0-11.027692l15.753847-15.753846c3.150769-3.150769 7.876923-3.150769 11.027692 0s3.150769 7.876923 0 11.027692l-15.753846 15.753846c0 1.575385-3.150769 1.575385-4.726154 1.575385zM285.144615 148.086154c-1.575385 0-4.726154 0-6.301538-1.575385-3.150769-3.150769-3.150769-7.876923 0-11.027692l15.753846-15.753846c3.150769-3.150769 7.876923-3.150769 11.027692 0s3.150769 7.876923 0 11.027692l-15.753846 15.753846c0 1.575385-3.150769 1.575385-4.726154 1.575385zM332.406154 148.086154c-1.575385 0-4.726154 0-6.301539-1.575385-3.150769-3.150769-3.150769-7.876923 0-11.027692l15.753847-15.753846c3.150769-3.150769 7.876923-3.150769 11.027692 0s3.150769 7.876923 0 11.027692l-15.753846 15.753846c0 1.575385-3.150769 1.575385-4.726154 1.575385zM379.667692 148.086154c-1.575385 0-4.726154 0-6.301538-1.575385-3.150769-3.150769-3.150769-7.876923 0-11.027692l15.753846-15.753846c3.150769-3.150769 7.876923-3.150769 11.027692 0s3.150769 7.876923 0 11.027692l-15.753846 15.753846c0 1.575385-3.150769 1.575385-4.726154 1.575385zM426.929231 148.086154c-1.575385 0-4.726154 0-6.301539-1.575385-3.150769-3.150769-3.150769-7.876923 0-11.027692l15.753846-15.753846c3.150769-3.150769 7.876923-3.150769 11.027693 0s3.150769 7.876923 0 11.027692l-15.753846 15.753846c0 1.575385-3.150769 1.575385-4.726154 1.575385zM474.190769 148.086154c-1.575385 0-4.726154 0-6.301538-1.575385-3.150769-3.150769-3.150769-7.876923 0-11.027692l15.753846-15.753846c3.150769-3.150769 7.876923-3.150769 11.027692 0s3.150769 7.876923 0 11.027692l-15.753846 15.753846c0 1.575385-3.150769 1.575385-4.726154 1.575385zM521.452308 148.086154c-1.575385 0-4.726154 0-6.301539-1.575385-3.150769-3.150769-3.150769-7.876923 0-11.027692l15.753846-15.753846c3.150769-3.150769 7.876923-3.150769 11.027693 0s3.150769 7.876923 0 11.027692l-15.753846 15.753846c0 1.575385-3.150769 1.575385-4.726154 1.575385zM237.883077 195.347692c-4.726154 0-7.876923-3.150769-7.876923-7.876923 0-12.603077 11.027692-23.630769 23.630769-23.630769 4.726154 0 7.876923 3.150769 7.876923 7.876923s-3.150769 7.876923-7.876923 7.876923-7.876923 3.150769-7.876923 7.876923-3.150769 7.876923-7.876923 7.876923zM253.636923 258.363077c-12.603077 0-23.630769-11.027692-23.630769-23.630769 0-4.726154 3.150769-7.876923 7.876923-7.876923s7.876923 3.150769 7.876923 7.876923 3.150769 7.876923 7.876923 7.876923 7.876923 3.150769 7.876923 7.876923-3.150769 7.876923-7.876923 7.876923z" fill="#f4ea2a" p-id="2317"></path><path d="M237.883077 242.609231c-4.726154 0-7.876923-3.150769-7.876923-7.876923v-47.261539c0-4.726154 3.150769-7.876923 7.876923-7.876923s7.876923 3.150769 7.876923 7.876923v47.261539c0 4.726154-3.150769 7.876923-7.876923 7.876923zM395.421538 258.363077c-4.726154 0-7.876923-3.150769-7.876923-7.876923s3.150769-7.876923 7.876923-7.876923 7.876923-3.150769 7.876924-7.876923 3.150769-7.876923 7.876923-7.876923 7.876923 3.150769 7.876923 7.876923c0 12.603077-11.027692 23.630769-23.63077 23.630769zM411.175385 195.347692c-4.726154 0-7.876923-3.150769-7.876923-7.876923s-3.150769-7.876923-7.876924-7.876923-7.876923-3.150769-7.876923-7.876923 3.150769-7.876923 7.876923-7.876923c12.603077 0 23.630769 11.027692 23.63077 23.630769 0 4.726154-3.150769 7.876923-7.876923 7.876923z" fill="#f4ea2a" p-id="2318"></path><path d="M411.175385 242.609231c-4.726154 0-7.876923-3.150769-7.876923-7.876923v-47.261539c0-4.726154 3.150769-7.876923 7.876923-7.876923s7.876923 3.150769 7.876923 7.876923v47.261539c0 4.726154-3.150769 7.876923-7.876923 7.876923zM395.421538 258.363077h-141.784615c-4.726154 0-7.876923-3.150769-7.876923-7.876923s3.150769-7.876923 7.876923-7.876923h141.784615c4.726154 0 7.876923 3.150769 7.876924 7.876923s-3.150769 7.876923-7.876924 7.876923zM395.421538 179.593846h-141.784615c-4.726154 0-7.876923-3.150769-7.876923-7.876923s3.150769-7.876923 7.876923-7.876923h141.784615c4.726154 0 7.876923 3.150769 7.876924 7.876923s-3.150769 7.876923-7.876924 7.876923zM615.975385 195.347692h-173.292308c-4.726154 0-7.876923-3.150769-7.876923-7.876923s3.150769-7.876923 7.876923-7.876923h173.292308c4.726154 0 7.876923 3.150769 7.876923 7.876923s-3.150769 7.876923-7.876923 7.876923zM615.975385 242.609231h-173.292308c-4.726154 0-7.876923-3.150769-7.876923-7.876923s3.150769-7.876923 7.876923-7.876923h173.292308c4.726154 0 7.876923 3.150769 7.876923 7.876923s-3.150769 7.876923-7.876923 7.876923zM253.636923 337.132308c-12.603077 0-23.630769-11.027692-23.630769-23.63077s11.027692-23.630769 23.630769-23.630769c4.726154 0 7.876923 3.150769 7.876923 7.876923s-3.150769 7.876923-7.876923 7.876923-7.876923 3.150769-7.876923 7.876923 3.150769 7.876923 7.876923 7.876924 7.876923 3.150769 7.876923 7.876923-3.150769 7.876923-7.876923 7.876923zM600.221538 337.132308c-4.726154 0-7.876923-3.150769-7.876923-7.876923s3.150769-7.876923 7.876923-7.876923 7.876923-3.150769 7.876924-7.876924-3.150769-7.876923-7.876924-7.876923-7.876923-3.150769-7.876923-7.876923 3.150769-7.876923 7.876923-7.876923c12.603077 0 23.630769 11.027692 23.63077 23.630769s-11.027692 23.630769-23.63077 23.63077z" fill="#f4ea2a" p-id="2319"></path><path d="M600.221538 305.624615h-346.584615c-4.726154 0-7.876923-3.150769-7.876923-7.876923s3.150769-7.876923 7.876923-7.876923h346.584615c4.726154 0 7.876923 3.150769 7.876924 7.876923s-3.150769 7.876923-7.876924 7.876923zM600.221538 337.132308h-346.584615c-4.726154 0-7.876923-3.150769-7.876923-7.876923s3.150769-7.876923 7.876923-7.876923h346.584615c4.726154 0 7.876923 3.150769 7.876924 7.876923s-3.150769 7.876923-7.876924 7.876923zM127.606154 195.347692h-78.769231c-4.726154 0-7.876923-3.150769-7.876923-7.876923s3.150769-7.876923 7.876923-7.876923h78.769231c4.726154 0 7.876923 3.150769 7.876923 7.876923s-3.150769 7.876923-7.876923 7.876923z" fill="#f4ea2a" p-id="2320"></path><path d="M127.606154 242.609231c-4.726154 0-7.876923-3.150769-7.876923-7.876923v-47.261539c0-4.726154 3.150769-7.876923 7.876923-7.876923s7.876923 3.150769 7.876923 7.876923v47.261539c0 4.726154-3.150769 7.876923-7.876923 7.876923z" fill="#f4ea2a" p-id="2321"></path><path d="M127.606154 242.609231h-78.769231c-4.726154 0-7.876923-3.150769-7.876923-7.876923s3.150769-7.876923 7.876923-7.876923h78.769231c4.726154 0 7.876923 3.150769 7.876923 7.876923s-3.150769 7.876923-7.876923 7.876923zM726.252308 179.593846c-4.726154 0-7.876923-3.150769-7.876923-7.876923v-31.507692c0-4.726154 3.150769-7.876923 7.876923-7.876923s7.876923 3.150769 7.876923 7.876923v31.507692c0 4.726154-3.150769 7.876923-7.876923 7.876923z" fill="#f4ea2a" p-id="2322"></path><path d="M805.021538 179.593846h-78.76923c-4.726154 0-7.876923-3.150769-7.876923-7.876923s3.150769-7.876923 7.876923-7.876923h78.76923c4.726154 0 7.876923 3.150769 7.876924 7.876923s-3.150769 7.876923-7.876924 7.876923zM552.96 526.178462c-1.575385 0-3.150769 0-3.150769-1.575385l-63.015385-31.507692c-3.150769-1.575385-4.726154-6.301538-3.150769-11.027693 1.575385-3.150769 6.301538-4.726154 11.027692-3.150769l59.864616 29.932308 130.756923-44.110769-11.027693-23.63077c0-1.575385-1.575385-1.575385-1.575384-3.150769v-47.261538c0-1.575385 1.575385-4.726154 1.575384-6.301539l15.753847-15.753846c3.150769-3.150769 7.876923-3.150769 11.027692 0s3.150769 7.876923 0 11.027692l-14.178462 14.178462v42.535384l14.178462 29.932308c1.575385 1.575385 1.575385 4.726154 0 6.301539l-4.726154 4.726153-141.784615 47.261539c0 1.575385 0 1.575385-1.575385 1.575385zM285.144615 762.486154c-3.150769 0-6.301538-1.575385-7.876923-4.726154-29.932308-91.372308-12.603077-184.32 3.15077-258.363077 6.301538-33.083077 12.603077-61.44 12.603076-85.070769l-44.110769-28.356923c-3.150769-3.150769-4.726154-7.876923-1.575384-11.027693 3.150769-3.150769 7.876923-4.726154 11.027692-1.575384l47.261538 31.507692c1.575385 1.575385 3.150769 3.150769 3.15077 6.301539 0 26.781538-6.301538 56.713846-12.603077 92.947692-14.178462 72.467692-31.507692 163.84-3.15077 250.486154 1.575385 4.726154-1.575385 7.876923-4.726153 9.452307-1.575385-1.575385-1.575385-1.575385-3.15077-1.575384zM474.190769 762.486154c-4.726154 0-7.876923-3.150769-7.876923-7.876923v-378.092308c0-4.726154 3.150769-7.876923 7.876923-7.876923s7.876923 3.150769 7.876923 7.876923v378.092308c0 4.726154-3.150769 7.876923-7.876923 7.876923z" fill="#f4ea2a" p-id="2323"></path><path d="M489.944615 762.486154h-204.8c-4.726154 0-7.876923-3.150769-7.876923-7.876923s3.150769-7.876923 7.876923-7.876923h204.8c4.726154 0 7.876923 3.150769 7.876923 7.876923s-3.150769 7.876923-7.876923 7.876923zM269.390769 494.670769c-4.726154 0-7.876923-3.150769-7.876923-7.876923v-78.769231c0-4.726154 3.150769-7.876923 7.876923-7.876923s7.876923 3.150769 7.876923 7.876923v78.769231c0 4.726154-3.150769 7.876923-7.876923 7.876923zM442.683077 730.978462h-135.483077c-4.726154 0-7.876923-3.150769-7.876923-7.876924s3.150769-7.876923 7.876923-7.876923h135.483077c4.726154 0 7.876923 3.150769 7.876923 7.876923s-3.150769 7.876923-7.876923 7.876924zM442.683077 699.470769h-141.784615c-4.726154 0-7.876923-3.150769-7.876924-7.876923s3.150769-7.876923 7.876924-7.876923h141.784615c4.726154 0 7.876923 3.150769 7.876923 7.876923s-3.150769 7.876923-7.876923 7.876923zM442.683077 667.963077h-141.784615c-4.726154 0-7.876923-3.150769-7.876924-7.876923s3.150769-7.876923 7.876924-7.876923h141.784615c4.726154 0 7.876923 3.150769 7.876923 7.876923s-3.150769 7.876923-7.876923 7.876923zM442.683077 636.455385h-141.784615c-4.726154 0-7.876923-3.150769-7.876924-7.876923s3.150769-7.876923 7.876924-7.876924h141.784615c4.726154 0 7.876923 3.150769 7.876923 7.876924s-3.150769 7.876923-7.876923 7.876923zM442.683077 604.947692h-126.030769c-4.726154 0-7.876923-3.150769-7.876923-7.876923s3.150769-7.876923 7.876923-7.876923h126.030769c4.726154 0 7.876923 3.150769 7.876923 7.876923s-3.150769 7.876923-7.876923 7.876923zM442.683077 573.44h-94.523077c-4.726154 0-7.876923-3.150769-7.876923-7.876923s3.150769-7.876923 7.876923-7.876923h94.523077c4.726154 0 7.876923 3.150769 7.876923 7.876923s-3.150769 7.876923-7.876923 7.876923zM442.683077 541.932308h-63.015385c-4.726154 0-7.876923-3.150769-7.876923-7.876923s3.150769-7.876923 7.876923-7.876923h63.015385c4.726154 0 7.876923 3.150769 7.876923 7.876923s-3.150769 7.876923-7.876923 7.876923zM442.683077 510.424615h-31.507692c-4.726154 0-7.876923-3.150769-7.876923-7.876923s3.150769-7.876923 7.876923-7.876923h31.507692c4.726154 0 7.876923 3.150769 7.876923 7.876923s-3.150769 7.876923-7.876923 7.876923zM600.221538 463.163077c-70.892308 0-70.892308-56.713846-70.892307-86.646154 0-4.726154 3.150769-7.876923 7.876923-7.876923s7.876923 3.150769 7.876923 7.876923c0 31.507692 0 70.892308 55.138461 70.892308 4.726154 0 7.876923 3.150769 7.876924 7.876923s-3.150769 7.876923-7.876924 7.876923zM458.436923 967.286154c-4.726154 0-7.876923-3.150769-7.876923-7.876923v-189.046154c0-4.726154 3.150769-7.876923 7.876923-7.876923s7.876923 3.150769 7.876923 7.876923v189.046154c0 4.726154-3.150769 7.876923-7.876923 7.876923zM316.652308 967.286154c-4.726154 0-7.876923-3.150769-7.876923-7.876923v-189.046154c0-4.726154 3.150769-7.876923 7.876923-7.876923s7.876923 3.150769 7.876923 7.876923v189.046154c0 4.726154-3.150769 7.876923-7.876923 7.876923z" fill="#f4ea2a" p-id="2324"></path><path d="M332.406154 983.04c-12.603077 0-23.630769-11.027692-23.630769-23.630769 0-4.726154 3.150769-7.876923 7.876923-7.876923s7.876923 3.150769 7.876923 7.876923 3.150769 7.876923 7.876923 7.876923 7.876923 3.150769 7.876923 7.876923-3.150769 7.876923-7.876923 7.876923zM442.683077 983.04c-4.726154 0-7.876923-3.150769-7.876923-7.876923s3.150769-7.876923 7.876923-7.876923 7.876923-3.150769 7.876923-7.876923 3.150769-7.876923 7.876923-7.876923 7.876923 3.150769 7.876923 7.876923c0 12.603077-11.027692 23.630769-23.630769 23.630769z" fill="#f4ea2a" p-id="2325"></path><path d="M442.683077 983.04h-110.276923c-4.726154 0-7.876923-3.150769-7.876923-7.876923s3.150769-7.876923 7.876923-7.876923h110.276923c4.726154 0 7.876923 3.150769 7.876923 7.876923s-3.150769 7.876923-7.876923 7.876923zM363.913846 920.024615c-4.726154 0-7.876923-3.150769-7.876923-7.876923v-141.784615c0-4.726154 3.150769-7.876923 7.876923-7.876923s7.876923 3.150769 7.876923 7.876923v141.784615c0 4.726154-3.150769 7.876923-7.876923 7.876923zM395.421538 920.024615c-4.726154 0-7.876923-3.150769-7.876923-7.876923v-141.784615c0-4.726154 3.150769-7.876923 7.876923-7.876923s7.876923 3.150769 7.876924 7.876923v141.784615c0 4.726154-3.150769 7.876923-7.876924 7.876923z" fill="#f4ea2a" p-id="2326"></path></svg>