<?xml version="1.0" standalone="no"?><!DOCTYPE svg PUBLIC "-//W3C//DTD SVG 1.1//EN" "http://www.w3.org/Graphics/SVG/1.1/DTD/svg11.dtd"><svg t="1610005475483" class="icon" viewBox="0 0 1024 1024" version="1.1" xmlns="http://www.w3.org/2000/svg" p-id="3661" xmlns:xlink="http://www.w3.org/1999/xlink" width="250" height="250"><defs><style type="text/css"></style></defs><path d="M 380.471 972.744 h 217.507 v -59.8132 h -217.507 v 59.8132 Z m 217.155 -630.283 l -24.0013 -97.0423 s -34.693 -231.983 -84.4013 -231.983 c -49.7127 0 -84.4057 231.983 -84.4057 231.983 l -24.0013 97.0423 l -0.352032 3.17279 v 532.886 h 217.507 V 345.615 l -0.343002 -3.17279 Z m -142.467 458.274 c 0 38.9255 -38.186 41.0521 -38.186 0 v -394.773 c 0 -41.2279 38.186 -41.6525 38.186 0 v 394.773 Z m 27.219 -656.215 l -22.5388 142.704 c -5.39324 24.2587 -32.5853 17.4075 -26.8625 -5.79491 l 26.9887 -137.733 c 3.89486 -22.9633 26.6592 -22.0694 22.4125 0.825913 Z" p-id="3662" fill="#05e3ec"></path></svg>