<?xml version="1.0" standalone="no"?><!DOCTYPE svg PUBLIC "-//W3C//DTD SVG 1.1//EN" "http://www.w3.org/Graphics/SVG/1.1/DTD/svg11.dtd"><svg t="1609831270691" class="icon" viewBox="0 0 1024 1024" version="1.1" xmlns="http://www.w3.org/2000/svg" p-id="2958" xmlns:xlink="http://www.w3.org/1999/xlink" width="200" height="200"><defs><style type="text/css"></style></defs><path d="M551.857231 337.888492l111.379692-111.379692 22.291692 22.275938-111.395446 111.379693zM430.08 661.661538l-11.027692 11.027693 55.138461 122.88-44.110769 22.055384-44.110769-89.796923-34.658462-11.027692-11.027692-11.027692 67.741538-66.166154z" fill="#f4ea2a" p-id="2959"></path><path d="M712.073846 543.507692l18.904616 63.015385c-74.043077 40.96-170.141538 29.932308-233.156924-33.083077l-11.027692-11.027692 44.110769-44.11077 11.027693 11.027693c45.686154 44.110769 118.153846 50.412308 170.141538 14.178461zM932.627692 25.206154l31.507693 12.603077-234.732308 234.732307-9.452308 9.452308-22.055384-22.055384 110.276923-111.852308 113.427692-111.852308z" fill="#f4ea2a" p-id="2960"></path><path d="M719.950769 281.993846l11.027693 11.027692L630.153846 393.846154c-22.055385 22.055385-33.083077 55.138462-44.110769 66.166154l-55.138462-55.138462 44.11077-44.110769 111.852307-111.852308 33.083077 33.083077z" fill="#f4ea2a" p-id="2961"></path><path d="M686.867692 248.910769l-111.852307 111.852308-44.11077 44.110769 11.027693 11.027692 44.110769-44.110769 111.852308-111.852307 33.083077 33.083076-11.027693-11.027692z" fill="#f4ea2a" p-id="2962"></path><path d="M575.015385 448.984615l-44.11077-44.110769 55.138462 55.138462c11.027692-11.027692 22.055385-44.110769 44.110769-66.166154l100.824616-100.824616-11.027693-11.027692-100.824615 100.824616c-22.055385 22.055385-33.083077 55.138462-44.110769 66.166153z" fill="#f4ea2a" p-id="2963"></path><path d="M296.172308 615.975385l200.073846-200.073847 11.027692-11.027692-11.027692-11.027692 23.630769-22.055385 33.083077-33.083077 11.027692 11.027693 11.027693 11.027692-44.11077 44.110769 55.138462 55.138462-11.027692 11.027692-44.11077 45.686154-45.686153 44.110769-22.055385 22.055385-55.138462 56.713846-78.76923 77.193846-44.11077-44.110769z" fill="#f4ea2a" p-id="2964"></path><path d="M563.987692 460.012308l-45.686154 45.686154-44.110769 44.110769-22.055384 22.055384-55.138462 55.138462-78.769231 78.769231 11.027693 11.027692 78.76923-77.193846 55.138462-56.713846 22.055385-22.055385 45.686153-44.110769 44.11077-45.686154 11.027692-11.027692-11.027692-11.027693z" fill="#f4ea2a" p-id="2965"></path><path d="M296.172308 615.975385l-11.027693 56.713846 11.027693 11.027692 11.027692-56.713846 200.073846-200.073846 11.027692-11.027693-11.027692-11.027692-11.027692 11.027692zM541.932308 415.901538l44.110769 44.11077-44.110769-44.11077zM519.876923 371.790769L496.246154 393.846154l11.027692 11.027692 23.630769-22.055384 33.083077-33.083077-11.027692-11.027693z" fill="#f4ea2a" p-id="2966"></path><path d="M285.144615 672.689231l44.11077 44.110769-11.027693 11.027692L173.292308 984.615385l-22.055385 22.055384L63.015385 894.818462l133.907692-133.907693c42.535385 20.48 75.618462-70.892308 77.193846-77.193846l11.027692-11.027692z" fill="#f4ea2a" p-id="2967"></path><path d="M162.264615 973.587692L141.784615 994.067692l9.452308 12.603077 22.055385-22.055384 144.935384-256.787693-11.027692-11.027692z" fill="#f4ea2a" p-id="2968"></path><path d="M274.116923 683.716923c-3.150769 7.876923-34.658462 99.249231-77.193846 77.193846L63.015385 894.818462l9.452307 12.603076 129.181539-129.181538c42.535385 20.48 80.344615-75.618462 83.495384-83.495385l-11.027692-11.027692zM496.198892 393.515323l55.7056-55.7056 22.275939 22.275939-55.7056 55.7056z" fill="#f4ea2a" p-id="2969"></path><path d="M274.951877 683.638154l11.137969-11.137969 44.567631 44.56763-11.137969 11.13797z" fill="#f4ea2a" p-id="2970"></path><path d="M519.120738 416.610462l11.13797-11.13797 44.551877 44.551877-11.13797 11.153723z" fill="#f4ea2a" p-id="2971"></path><path d="M151.236923 1014.547692c-1.575385 0-4.726154 0-6.301538-1.575384-3.150769-3.150769-3.150769-7.876923 0-11.027693l22.055384-22.055384c3.150769-3.150769 7.876923-3.150769 11.027693 0s3.150769 7.876923 0 11.027692L157.538462 1012.972308c-1.575385 0-4.726154 1.575385-6.301539 1.575384z" fill="#f4ea2a" p-id="2972"></path><path d="M151.236923 1014.547692c-1.575385 0-4.726154-1.575385-6.301538-3.150769l-89.796923-111.852308c-3.150769-3.150769-1.575385-7.876923 1.575384-11.027692 3.150769-3.150769 7.876923-1.575385 11.027692 1.575385l89.796924 111.852307c3.150769 3.150769 1.575385 7.876923-1.575385 11.027693-1.575385 1.575385-3.150769 1.575385-4.726154 1.575384z" fill="#f4ea2a" p-id="2973"></path><path d="M63.015385 902.695385c-1.575385 0-4.726154 0-6.301539-1.575385-3.150769-3.150769-3.150769-7.876923 0-11.027692l133.907692-133.907693c3.150769-3.150769 7.876923-3.150769 11.027693 0s3.150769 7.876923 0 11.027693l-133.907693 133.907692c-1.575385 1.575385-3.150769 1.575385-4.726153 1.575385zM173.292308 992.492308c-1.575385 0-3.150769 0-3.15077-1.575385-3.150769-1.575385-4.726154-6.301538-3.150769-11.027692L311.926154 724.676923c1.575385-3.150769 6.301538-4.726154 11.027692-3.150769 3.150769 1.575385 4.726154 6.301538 3.150769 11.027692l-144.935384 255.212308c-1.575385 3.150769-4.726154 4.726154-7.876923 4.726154z" fill="#f4ea2a" p-id="2974"></path><path d="M209.526154 771.938462c-4.726154 0-11.027692-1.575385-15.753846-4.726154-3.150769-1.575385-6.301538-6.301538-3.15077-11.027693 1.575385-3.150769 6.301538-4.726154 11.027693-3.150769 6.301538 3.150769 11.027692 3.150769 17.329231 0 20.48-7.876923 39.384615-44.110769 48.836923-74.043077 0-3.150769 3.150769-6.301538 7.876923-6.301538s7.876923 3.150769 7.876923 7.876923v3.150769c-6.301538 15.753846-26.781538 70.892308-58.289231 83.495385-7.876923 4.726154-11.027692 4.726154-15.753846 4.726154z" fill="#f4ea2a" p-id="2975"></path><path d="M329.255385 724.676923c-1.575385 0-4.726154 0-6.301539-1.575385L278.843077 677.415385c-3.150769-3.150769-3.150769-7.876923 0-11.027693s7.876923-3.150769 11.027692 0l44.110769 44.11077c3.150769 3.150769 3.150769 7.876923 0 11.027692 0 3.150769-1.575385 3.150769-4.726153 3.150769z" fill="#f4ea2a" p-id="2976"></path><path d="M285.144615 680.566154s-1.575385 0 0 0c-6.301538-1.575385-7.876923-4.726154-7.876923-9.452308l11.027693-55.138461c1.575385-4.726154 4.726154-6.301538 9.452307-6.301539s6.301538 4.726154 6.301539 9.452308l-11.027693 55.138461c-1.575385 3.150769-4.726154 6.301538-7.876923 6.301539z" fill="#f4ea2a" p-id="2977"></path><path d="M296.172308 623.852308c-1.575385 0-4.726154 0-6.301539-1.575385-3.150769-3.150769-3.150769-7.876923 0-11.027692l200.073846-200.073846c3.150769-3.150769 7.876923-3.150769 11.027693 0 3.150769 3.150769 3.150769 7.876923 0 11.027692L302.473846 622.276923c-1.575385 1.575385-4.726154 1.575385-6.301538 1.575385zM329.255385 724.676923c-1.575385 0-4.726154 0-6.301539-1.575385-3.150769-3.150769-3.150769-7.876923 0-11.027692l245.76-245.76c3.150769-3.150769 7.876923-3.150769 11.027692 0s3.150769 7.876923 0 11.027692L335.556923 723.101538c-1.575385 1.575385-3.150769 1.575385-6.301538 1.575385z" fill="#f4ea2a" p-id="2978"></path><path d="M586.043077 467.889231c-1.575385 0-4.726154 0-6.301539-1.575385l-55.138461-55.138461c-3.150769-3.150769-3.150769-7.876923 0-11.027693s7.876923-3.150769 11.027692 0l55.138462 55.138462c3.150769 3.150769 3.150769 7.876923 0 11.027692 0 1.575385-3.150769 1.575385-4.726154 1.575385z" fill="#f4ea2a" p-id="2979"></path><path d="M518.301538 423.778462c-1.575385 0-4.726154 0-6.301538-1.575385-3.150769-3.150769-3.150769-7.876923 0-11.027692l166.990769-166.99077c3.150769-3.150769 7.876923-3.150769 11.027693 0s3.150769 7.876923 0 11.027693L524.603077 422.203077c-1.575385 1.575385-3.150769 1.575385-6.301539 1.575385zM563.987692 335.556923c-1.575385 0-4.726154 0-6.301538-1.575385-3.150769-3.150769-3.150769-7.876923 0-11.027692l100.824615-100.824615c3.150769-3.150769 7.876923-3.150769 11.027693 0s3.150769 7.876923 0 11.027692l-100.824616 100.824615c-1.575385 0-3.150769 1.575385-4.726154 1.575385zM586.043077 467.889231c-1.575385 0-4.726154 0-6.301539-1.575385-3.150769-3.150769-3.150769-7.876923 0-11.027692 3.150769-3.150769 7.876923-12.603077 12.603077-20.48 7.876923-14.178462 17.329231-31.507692 31.507693-45.686154l100.824615-100.824615 11.027692 11.027692-100.824615 100.824615c-12.603077 12.603077-20.48 28.356923-28.356923 42.535385-6.301538 11.027692-11.027692 18.904615-15.753846 25.206154h-4.726154z" fill="#f4ea2a" p-id="2980"></path><path d="M507.273846 412.750769c-1.575385 0-4.726154 0-6.301538-1.575384l-22.055385-22.055385c-3.150769-3.150769-3.150769-7.876923 0-11.027692s7.876923-3.150769 11.027692 0l22.055385 22.055384c3.150769 3.150769 3.150769 7.876923 0 11.027693 0 1.575385-1.575385 1.575385-4.726154 1.575384z" fill="#f4ea2a" p-id="2981"></path><path d="M496.246154 401.723077c-1.575385 0-4.726154 0-6.301539-1.575385-3.150769-3.150769-3.150769-7.876923 0-11.027692l55.138462-55.138462c3.150769-3.150769 7.876923-3.150769 11.027692 0s3.150769 7.876923 0 11.027693l-55.138461 55.138461c0 1.575385-1.575385 1.575385-4.726154 1.575385z" fill="#f4ea2a" p-id="2982"></path><path d="M563.987692 357.612308c-1.575385 0-4.726154 0-6.301538-1.575385l-11.027692-11.027692c-3.150769-3.150769-3.150769-7.876923 0-11.027693s7.876923-3.150769 11.027692 0l11.027692 11.027693c3.150769 3.150769 3.150769 7.876923 0 11.027692-1.575385 0-3.150769 1.575385-4.726154 1.575385zM730.978462 300.898462c-1.575385 0-4.726154 0-6.301539-1.575385l-44.110769-44.110769c-3.150769-3.150769-3.150769-7.876923 0-11.027693s7.876923-3.150769 11.027692 0l44.110769 44.11077c3.150769 3.150769 3.150769 7.876923 0 11.027692-1.575385 1.575385-3.150769 1.575385-4.726153 1.575385zM674.264615 245.76c-1.575385 0-4.726154 0-6.301538-1.575385l-11.027692-11.027692c-3.150769-3.150769-3.150769-7.876923 0-11.027692s7.876923-3.150769 11.027692 0l11.027692 11.027692c3.150769 3.150769 3.150769 7.876923 0 11.027692 0 1.575385-1.575385 1.575385-4.726154 1.575385zM430.08 669.538462c-1.575385 0-4.726154 0-6.301538-1.575385L401.723077 645.907692c-3.150769-3.150769-3.150769-7.876923 0-11.027692 3.150769-3.150769 7.876923-3.150769 11.027692 0l22.055385 22.055385c3.150769 3.150769 3.150769 7.876923 0 11.027692-1.575385 0-3.150769 1.575385-4.726154 1.575385z" fill="#f4ea2a" p-id="2983"></path><path d="M474.190769 803.446154c-3.150769 0-6.301538-1.575385-7.876923-4.726154l-55.138461-122.88c-1.575385-4.726154 0-7.876923 3.150769-11.027692 4.726154-1.575385 7.876923 0 11.027692 3.150769l55.138462 122.88c1.575385 4.726154 0 7.876923-3.15077 11.027692 0 0-1.575385 1.575385-3.150769 1.575385z" fill="#f4ea2a" p-id="2984"></path><path d="M430.08 825.501538c-3.150769 0-6.301538-1.575385-6.301538-4.726153-1.575385-3.150769 0-7.876923 3.150769-11.027693l44.110769-22.055384c3.150769-1.575385 7.876923 0 11.027692 3.150769 1.575385 3.150769 0 7.876923-3.150769 11.027692l-44.110769 22.055385c-3.150769 1.575385-3.150769 1.575385-4.726154 1.575384z" fill="#f4ea2a" p-id="2985"></path><path d="M430.08 825.501538c-3.150769 0-6.301538-1.575385-6.301538-4.726153L378.092308 730.978462c-1.575385-3.150769 0-7.876923 3.150769-11.027693 3.150769-1.575385 7.876923 0 11.027692 3.150769l44.110769 89.796924c1.575385 3.150769 0 7.876923-3.150769 11.027692-1.575385 1.575385-1.575385 1.575385-3.150769 1.575384z" fill="#f4ea2a" p-id="2986"></path><path d="M385.969231 735.704615h-3.150769l-33.083077-11.027692c-4.726154-1.575385-6.301538-6.301538-4.726154-9.452308 1.575385-4.726154 6.301538-6.301538 9.452307-4.726153l33.083077 11.027692c4.726154 1.575385 6.301538 6.301538 4.726154 9.452308 0 3.150769-3.150769 4.726154-6.301538 4.726153zM636.455385 575.015385c-36.233846 0-72.467692-14.178462-100.824616-40.96-3.150769-3.150769-3.150769-7.876923 0-11.027693 3.150769-3.150769 7.876923-3.150769 11.027693 0 44.110769 42.535385 111.852308 48.836923 160.68923 14.178462 3.150769-3.150769 7.876923-1.575385 11.027693 1.575384 3.150769 3.150769 1.575385 7.876923-1.575385 11.027693-23.630769 15.753846-51.987692 25.206154-80.344615 25.206154zM636.455385 638.030769c-53.563077 0-105.550769-20.48-144.935385-59.864615-3.150769-3.150769-3.150769-7.876923 0-11.027692s7.876923-3.150769 11.027692 0c59.864615 59.864615 151.236923 72.467692 225.28 31.507692 3.150769-1.575385 7.876923 0 11.027693 3.150769 1.575385 3.150769 0 7.876923-3.15077 11.027692-31.507692 15.753846-66.166154 25.206154-99.24923 25.206154z" fill="#f4ea2a" p-id="2987"></path><path d="M636.455385 606.523077c-39.384615 0-78.769231-14.178462-110.276923-39.384615-3.150769-3.150769-3.150769-7.876923-1.575385-11.027693 3.150769-3.150769 7.876923-3.150769 11.027692-1.575384 42.535385 34.658462 100.824615 45.686154 152.812308 26.781538 4.726154-1.575385 7.876923 0 9.452308 4.726154s0 7.876923-4.726154 9.452308c-17.329231 7.876923-37.809231 11.027692-56.713846 11.027692zM730.978462 612.824615c-3.150769 0-6.301538-1.575385-7.876924-6.301538l-18.904615-63.015385c-1.575385-4.726154 1.575385-7.876923 4.726154-9.452307 4.726154-1.575385 7.876923 1.575385 9.452308 4.726153l18.904615 63.015385c1.575385 4.726154-1.575385 7.876923-4.726154 9.452308 0 1.575385-1.575385 1.575385-1.575384 1.575384zM530.904615 390.695385c-1.575385 0-4.726154 0-6.301538-1.575385l-11.027692-11.027692c-3.150769-3.150769-3.150769-7.876923 0-11.027693s7.876923-3.150769 11.027692 0l11.027692 11.027693c3.150769 3.150769 3.150769 7.876923 0 11.027692-1.575385 0-3.150769 1.575385-4.726154 1.575385zM485.218462 612.824615c-1.575385 0-4.726154 0-6.301539-1.575384L456.861538 589.193846c-3.150769-3.150769-3.150769-7.876923 0-11.027692s7.876923-3.150769 11.027693 0l22.055384 22.055384c3.150769 3.150769 3.150769 7.876923 0 11.027693 0 1.575385-1.575385 1.575385-4.726153 1.575384z" fill="#f4ea2a" p-id="2988"></path><path d="M485.218462 636.455385c-1.575385 0-4.726154 0-6.301539-1.575385-3.150769-3.150769-3.150769-7.876923 0-11.027692 3.150769-3.150769 3.150769-7.876923 0-11.027693-3.150769-3.150769-3.150769-7.876923 0-11.027692s7.876923-3.150769 11.027692 0c9.452308 9.452308 9.452308 23.630769 0 33.083077 0 0-1.575385 1.575385-4.726153 1.575385z" fill="#f4ea2a" p-id="2989"></path><path d="M452.135385 669.538462c-1.575385 0-4.726154 0-6.301539-1.575385-3.150769-3.150769-3.150769-7.876923 0-11.027692l33.083077-33.083077c3.150769-3.150769 7.876923-3.150769 11.027692 0s3.150769 7.876923 0 11.027692L456.861538 667.963077s-3.150769 1.575385-4.726153 1.575385z" fill="#f4ea2a" p-id="2990"></path><path d="M441.107692 674.264615c-6.301538 0-12.603077-1.575385-17.32923-6.301538-3.150769-3.150769-3.150769-7.876923 0-11.027692s7.876923-3.150769 11.027692 0c3.150769 3.150769 7.876923 3.150769 11.027692 0l11.027692 11.027692c-3.150769 3.150769-9.452308 6.301538-15.753846 6.301538zM419.052308 546.658462c-1.575385 0-4.726154 0-6.301539-1.575385-3.150769-3.150769-3.150769-7.876923 0-11.027692l66.166154-66.166154c3.150769-3.150769 7.876923-3.150769 11.027692 0s3.150769 7.876923 0 11.027692l-66.166153 66.166154c-1.575385 1.575385-3.150769 1.575385-4.726154 1.575385z" fill="#f4ea2a" p-id="2991"></path><path d="M496.246154 491.52c-1.575385 0-4.726154 0-6.301539-1.575385l-11.027692-11.027692c-3.150769-3.150769-3.150769-7.876923 0-11.027692s7.876923-3.150769 11.027692 0l11.027693 11.027692c3.150769 3.150769 3.150769 7.876923 0 11.027692 0 0-1.575385 1.575385-4.726154 1.575385zM318.227692 647.483077c-1.575385 0-4.726154 0-6.301538-1.575385-3.150769-3.150769-3.150769-7.876923 0-11.027692l44.110769-44.110769c3.150769-3.150769 7.876923-3.150769 11.027692 0s3.150769 7.876923 0 11.027692L322.953846 645.907692s-1.575385 1.575385-4.726154 1.575385zM452.135385 639.606154c-6.301538 0-12.603077-3.150769-17.329231-6.301539-3.150769-3.150769-3.150769-7.876923 0-11.027692 3.150769-3.150769 7.876923-3.150769 11.027692 0 1.575385 1.575385 3.150769 1.575385 4.726154 1.575385 1.575385 0 4.726154-1.575385 6.301538-3.15077 3.150769-3.150769 7.876923-3.150769 11.027693 0 3.150769 3.150769 3.150769 7.876923 0 11.027693-3.150769 6.301538-9.452308 7.876923-15.753846 7.876923zM708.923077 256.787692c-1.575385 0-4.726154 0-6.301539-1.575384-3.150769-3.150769-3.150769-7.876923 0-11.027693L926.326154 20.48c3.150769-3.150769 7.876923-3.150769 11.027692 0s3.150769 7.876923 0 11.027692L713.649231 255.212308c-1.575385 1.575385-3.150769 1.575385-4.726154 1.575384zM729.403077 280.418462c-1.575385 0-4.726154 0-6.301539-1.575385-3.150769-3.150769-3.150769-7.876923 0-11.027692l236.307693-236.307693c3.150769-3.150769 7.876923-3.150769 11.027692 0s3.150769 7.876923 0 11.027693L735.704615 277.267692c-1.575385 1.575385-3.150769 3.150769-6.301538 3.15077z" fill="#f4ea2a" p-id="2992"></path><path d="M964.135385 45.686154H960.984615l-31.507692-12.603077c-4.726154-1.575385-6.301538-6.301538-4.726154-9.452308 1.575385-4.726154 6.301538-6.301538 9.452308-4.726154l33.083077 12.603077c4.726154 1.575385 6.301538 6.301538 4.726154 9.452308-1.575385 1.575385-4.726154 4.726154-7.876923 4.726154zM921.6 44.110769c-1.575385 0-4.726154 0-6.301538-1.575384l-22.055385-22.055385c-3.150769-3.150769-3.150769-7.876923 0-11.027692s7.876923-3.150769 11.027692 0L926.326154 31.507692c3.150769 3.150769 3.150769 7.876923 0 11.027693-1.575385 1.575385-3.150769 1.575385-4.726154 1.575384zM685.292308 234.732308c-1.575385 0-4.726154 0-6.301539-1.575385-3.150769-3.150769-3.150769-7.876923 0-11.027692l78.769231-78.769231c3.150769-3.150769 7.876923-3.150769 11.027692 0s3.150769 7.876923 0 11.027692l-78.76923 78.769231c0 1.575385-3.150769 1.575385-4.726154 1.575385z" fill="#f4ea2a" p-id="2993"></path><path d="M808.172308 155.963077h-44.11077c-4.726154 0-7.876923-3.150769-7.876923-7.876923s3.150769-7.876923 7.876923-7.876923h44.11077c4.726154 0 7.876923 3.150769 7.876923 7.876923s-3.150769 7.876923-7.876923 7.876923z" fill="#f4ea2a" p-id="2994"></path></svg>