<?xml version="1.0" standalone="no"?><!DOCTYPE svg PUBLIC "-//W3C//DTD SVG 1.1//EN" "http://www.w3.org/Graphics/SVG/1.1/DTD/svg11.dtd"><svg t="1609850954808" class="icon" viewBox="0 0 1024 1024" version="1.1" xmlns="http://www.w3.org/2000/svg" p-id="23448" xmlns:xlink="http://www.w3.org/1999/xlink" width="250" height="250"><defs><style type="text/css"></style></defs><path d="M86.3558163 471.61040592c15.53445925 6.2137837 31.06891852 18.64135111 43.49648592 27.96202667 6.2137837 6.2137837 62.13783703 105.63432297 93.20675556 146.02391704 71.45851259 90.0998637 164.66526815 139.81013333 292.04783407 139.81013334 127.38256592 0 220.58932148-52.81716148 292.04783407-139.81013334 31.06891852-40.38959408 90.0998637-139.81013333 93.20675556-146.02391704 12.42756741-12.42756741 27.96202667-21.74824297 43.49648593-27.96202667-31.06891852-15.53445925-52.81716148-31.06891852-65.24472889-40.38959407l-130.48945777-108.74121482c-62.13783703-52.81716148-121.16878222-55.92405333-189.52040297-6.2137837L512 353.54851555l-46.60337778-37.28270222c-65.24472889-49.71026963-124.27567408-46.60337778-189.52040297 6.2137837l-130.48945777 111.84810667c-6.2137837 6.2137837-27.96202667 18.64135111-59.03094518 37.28270222z m459.81999407-183.30661925c77.6722963-59.03094518 152.23770075-55.92405333 226.80310518 6.2137837l130.48945778 108.74121481c12.42756741 9.32067555 43.49648592 27.96202667 90.0998637 52.81716149l40.38959408 18.64135111-43.49648593 9.32067555c-24.85513482 6.2137837-46.60337778 18.64135111-65.24472888 34.17581037 0 0-55.92405333 99.42053925-90.09986371 142.91702519-77.6722963 96.31364741-180.19972741 152.23770075-316.90296889 152.23770074-136.70324148 0-239.23067259-55.92405333-316.90296888-152.23770074-37.28270222-37.28270222-93.20675555-136.70324148-93.20675557-136.70324148-18.64135111-18.64135111-40.38959408-27.96202667-65.24472888-34.17581038L-0.63715555 480.93108148l40.38959407-18.64135111c46.60337778-24.85513482 77.6722963-40.38959408 90.0998637-52.81716148l130.48945778-111.84810667c74.56540445-62.13783703 149.13080889-65.24472889 226.80310518-6.2137837l27.96202667 21.74824296 31.06891852-24.85513481z m-223.69621334 211.26864592c114.95499852 71.45851259 260.97891555 71.45851259 375.93391408 0-114.95499852-65.24472889-257.8720237-65.24472889-375.93391408 0z m416.32350815 12.42756741c-136.70324148 96.31364741-316.90296889 96.31364741-453.60621036 0l-18.64135112-12.42756741 18.64135112-12.42756741c136.70324148-90.0998637 313.79607703-90.0998637 450.49931851 0l18.64135112 12.42756741-15.53445927 12.42756741z" fill="#d81e06" p-id="23449"></path><path d="M86.3558163 471.61040592c31.06891852-15.53445925 52.81716148-27.96202667 65.24472888-40.38959407l130.48945779-111.84810667c62.13783703-52.81716148 121.16878222-55.92405333 189.52040295-6.2137837l46.60337778 37.28270222 46.60337778-37.28270222c65.24472889-49.71026963 124.27567408-46.60337778 189.52040297 6.2137837l130.48945777 108.74121482c12.42756741 9.32067555 34.17581037 21.74824297 65.24472889 40.38959408-15.53445925 6.2137837-31.06891852 18.64135111-43.49648593 27.96202667-6.2137837 6.2137837-62.13783703 105.63432297-93.20675555 146.02391703-71.45851259 90.0998637-164.66526815 139.81013333-292.04783408 139.81013333-127.38256592 0-220.58932148-52.81716148-292.04783407-139.81013333-31.06891852-40.38959408-90.0998637-139.81013333-93.20675556-146.02391703-21.74824297-9.32067555-34.17581037-18.64135111-49.71026962-24.85513483z m652.44728888 40.38959408l18.64135112-12.42756741-18.64135112-12.42756741c-136.70324148-90.0998637-313.79607703-90.0998637-450.49931851 0l-18.64135112 12.42756741 18.64135112 12.42756741c133.59634963 96.31364741 313.79607703 96.31364741 450.49931851 0z" fill="#d81e06" p-id="23450"></path></svg>