<?xml version="1.0" standalone="no"?><!DOCTYPE svg PUBLIC "-//W3C//DTD SVG 1.1//EN" "http://www.w3.org/Graphics/SVG/1.1/DTD/svg11.dtd"><svg t="1610007967478" class="icon" viewBox="0 0 1436 1024" version="1.1" xmlns="http://www.w3.org/2000/svg" p-id="5435" xmlns:xlink="http://www.w3.org/1999/xlink" width="350.5859375" height="250"><defs><style type="text/css"></style></defs><path d="M1403.970109 280.793807h-64.303925a32.151963 32.151963 0 0 0-32.151963 32.151963v392.968433a32.151963 32.151963 0 0 0 32.151963 32.151963h64.303925a32.151963 32.151963 0 0 0 32.151963-32.151963v-392.968433c3.57244-17.862201-10.717321-32.151963-32.151963-32.151963m-807.371507 743.067582a60.731485 60.731485 0 0 1-25.007082-3.57244 92.16896 92.16896 0 0 1-67.876366-89.311007v-321.519627h-139.325172a90.739984 90.739984 0 0 1-82.166127-50.014164A86.453055 86.453055 0 0 1 289.368736 464.417239l307.229866-425.120396a89.668251 89.668251 0 0 1 103.600768-32.151962 89.311007 89.311007 0 0 1 64.303926 89.311007v253.643261h146.470052a98.956596 98.956596 0 0 1 82.166127 46.441724 87.524787 87.524787 0 0 1-3.572441 92.883448l-314.374746 489.424321a103.243525 103.243525 0 0 1-78.593686 45.012747zM392.969505 502.285106h217.918858v375.106231l271.505462-421.547955h-225.063738v-317.947187z m-296.512545-350.099149h328.664507l71.448806-100.028329H64.304997A63.946681 63.946681 0 0 0 0.001072 116.461554v785.936865a63.946681 63.946681 0 0 0 64.303925 64.303926h360.81647v-100.028329H96.45696z m1114.601373-100.028329H850.241863v100.028329H1178.90637v721.63294h-328.664507l-64.303926 100.028328h425.120396a63.946681 63.946681 0 0 0 64.303925-64.303925v-785.936866a66.090146 66.090146 0 0 0-64.303925-71.448806" p-id="5436" fill="#05e3ec"></path></svg>