<?xml version="1.0" standalone="no"?><!DOCTYPE svg PUBLIC "-//W3C//DTD SVG 1.1//EN" "http://www.w3.org/Graphics/SVG/1.1/DTD/svg11.dtd"><svg t="1609915368570" class="icon" viewBox="0 0 1024 1024" version="1.1" xmlns="http://www.w3.org/2000/svg" p-id="2225" xmlns:xlink="http://www.w3.org/1999/xlink" width="200" height="200"><defs><style type="text/css"></style></defs><path d="M978.24 49.1c-0.04-0.14-0.1-0.26-0.14-0.38-0.1-0.34-0.22-0.66-0.36-0.98-0.12-0.3-0.26-0.6-0.4-0.88-0.16-0.26-0.32-0.52-0.5-0.78-0.18-0.28-0.38-0.56-0.58-0.82-0.2-0.24-0.42-0.44-0.62-0.66-0.24-0.24-0.48-0.48-0.74-0.7-0.24-0.18-0.48-0.36-0.74-0.52-0.28-0.2-0.58-0.38-0.88-0.56l-0.78-0.36c-0.36-0.14-0.7-0.28-1.06-0.4-0.12-0.02-0.24-0.08-0.36-0.12-4.34-1.14-107.7-26.64-205.18 70.84L684.2 194.48l-71.12 11.98c-0.04 0-0.06 0.02-0.1 0.02-0.42 0.08-0.8 0.2-1.2 0.32-0.24 0.08-0.48 0.12-0.72 0.22-0.3 0.12-0.58 0.3-0.86 0.44-0.3 0.16-0.62 0.28-0.88 0.46-0.2 0.14-0.38 0.3-0.58 0.46-0.34 0.24-0.68 0.5-0.98 0.78-0.02 0.04-0.06 0.06-0.08 0.08L288.6 528.3c-0.14 0.16-0.24 0.32-0.36 0.46-0.24 0.28-0.48 0.54-0.68 0.84-0.18 0.26-0.34 0.52-0.5 0.8-0.18 0.28-0.32 0.56-0.46 0.86s-0.24 0.6-0.36 0.9c-0.1 0.32-0.2 0.62-0.26 0.94-0.08 0.32-0.14 0.64-0.18 0.96-0.04 0.32-0.08 0.62-0.08 0.94-0.02 0.36 0 0.72 0.02 1.08 0.02 0.2 0 0.38 0.02 0.58l5.64 43.48-47.62 0.4c-0.2 0-0.38 0.06-0.58 0.06-0.44 0.04-0.9 0.06-1.32 0.16-0.32 0.06-0.6 0.16-0.9 0.26-0.32 0.1-0.66 0.18-0.96 0.3-0.34 0.14-0.62 0.32-0.92 0.5-0.28 0.14-0.56 0.26-0.8 0.44-0.38 0.24-0.72 0.56-1.06 0.86-0.14 0.12-0.3 0.22-0.44 0.36l-24.88 24.88a10.006 10.006 0 0 0 0 14.14l187.44 187.44c1.96 1.96 4.52 2.92 7.08 2.92s5.12-0.96 7.06-2.92l24.88-24.88c0.04-0.02 0.04-0.06 0.06-0.08 0.32-0.3 0.58-0.66 0.84-1 0.12-0.18 0.3-0.34 0.42-0.54 0.18-0.3 0.34-0.62 0.5-0.96 0.12-0.24 0.28-0.5 0.4-0.76 0.08-0.22 0.14-0.48 0.2-0.72 0.12-0.38 0.26-0.76 0.34-1.14 0.04-0.22 0.04-0.42 0.06-0.64 0.06-0.44 0.12-0.88 0.1-1.34 0-0.02 0.02-0.06 0.02-0.08l-0.96-48.98 43.16 5.6c0.44 0.06 0.86 0.08 1.3 0.08 0.64 0 1.26-0.06 1.86-0.18 0.12-0.02 0.22-0.06 0.34-0.1 0.5-0.1 0.98-0.24 1.44-0.42 0.2-0.08 0.4-0.2 0.6-0.28 0.36-0.18 0.72-0.36 1.06-0.58 0.2-0.12 0.4-0.28 0.6-0.42 0.32-0.24 0.62-0.48 0.92-0.76l0.24-0.18 319.06-319.08c0.08-0.08 0.14-0.18 0.22-0.26 0.28-0.3 0.54-0.62 0.78-0.94 0.14-0.2 0.28-0.38 0.4-0.58 0.2-0.34 0.38-0.68 0.54-1.04 0.1-0.22 0.22-0.42 0.3-0.66 0.14-0.32 0.22-0.68 0.32-1.04 0.06-0.26 0.16-0.5 0.2-0.76 0-0.04 0.02-0.08 0.04-0.12l11.96-71.12 81.72-81.7c97.46-97.48 71.96-200.84 70.82-205.18z m-168.94 275c-0.02 0.02-0.04 0.06-0.06 0.08-0.32 0.32-0.58 0.68-0.84 1.04-0.14 0.16-0.3 0.34-0.42 0.52-0.18 0.28-0.32 0.6-0.48 0.9-0.14 0.28-0.3 0.56-0.42 0.84-0.08 0.24-0.14 0.48-0.22 0.72-0.12 0.4-0.24 0.8-0.32 1.2 0 0.04-0.02 0.08-0.02 0.12l-11.98 71.1L481.2 713.96l-49.78-6.46c-0.24-0.04-0.48 0-0.72-0.02-0.26-0.02-0.5-0.06-0.76-0.06-0.1 0-0.2 0.02-0.3 0.04-0.3 0-0.6 0.06-0.92 0.1-0.36 0.06-0.72 0.1-1.08 0.2-0.24 0.06-0.48 0.16-0.72 0.24-0.38 0.12-0.76 0.26-1.12 0.42-0.22 0.1-0.42 0.24-0.62 0.36-0.34 0.2-0.68 0.4-1 0.62-0.22 0.16-0.4 0.36-0.6 0.52-0.28 0.24-0.56 0.48-0.8 0.74-0.2 0.24-0.38 0.48-0.56 0.72-0.2 0.26-0.42 0.52-0.58 0.8-0.18 0.28-0.3 0.56-0.44 0.84-0.16 0.3-0.3 0.6-0.42 0.92-0.1 0.28-0.18 0.58-0.26 0.88-0.1 0.34-0.18 0.7-0.24 1.06-0.02 0.08-0.06 0.16-0.06 0.24-0.04 0.26-0.02 0.5-0.02 0.76-0.02 0.24-0.06 0.48-0.06 0.72l1.1 56.32-14.8 14.8-87.5-87.48-85.8-85.82 14.9-14.9 54.7-0.48 0.02 0.02s0-0.02 0.02-0.02h0.16c0.38 0 0.74-0.02 1.12-0.08 0.12-0.02 0.26-0.06 0.38-0.08 0.36-0.06 0.68-0.14 1.02-0.24 0.32-0.08 0.62-0.18 0.92-0.3s0.6-0.26 0.88-0.4c0.3-0.16 0.58-0.3 0.86-0.48 0.26-0.16 0.52-0.36 0.76-0.54 0.26-0.2 0.52-0.4 0.74-0.64 0.24-0.22 0.44-0.44 0.66-0.68 0.2-0.24 0.42-0.48 0.6-0.76 0.18-0.26 0.34-0.52 0.5-0.8 0.16-0.28 0.32-0.56 0.46-0.84 0.14-0.3 0.24-0.6 0.34-0.9 0.12-0.32 0.22-0.62 0.3-0.96 0.06-0.3 0.1-0.62 0.16-0.92 0.04-0.36 0.08-0.7 0.08-1.06 0.02-0.12 0.04-0.26 0.04-0.4 0-0.2-0.04-0.4-0.06-0.6-0.02-0.2 0-0.4-0.02-0.6l-6.46-49.78 313.34-313.34 71.1-11.98c0.04 0 0.08-0.02 0.12-0.02 0.4-0.08 0.8-0.2 1.2-0.32 0.22-0.08 0.48-0.14 0.72-0.22 0.3-0.12 0.58-0.3 0.86-0.44 0.3-0.16 0.6-0.28 0.88-0.46 0.2-0.14 0.38-0.3 0.58-0.46 0.32-0.24 0.66-0.5 0.96-0.78 0.04-0.04 0.08-0.06 0.1-0.08l76.9-76.9 113.22 113.22-76.9 76.9z m90.9-91.16l-112.96-112.98c35.62-33.2 75.74-53.26 119.42-59.64 24.72-3.62 44.1-1.66 53.38-0.18 3.44 21.66 9.4 98.4-59.84 172.8z" fill="#f4ea2a" p-id="2226"></path><path d="M900.2 232.94l-112.96-112.98c35.62-33.2 75.74-53.26 119.42-59.64 24.72-3.62 44.1-1.66 53.38-0.18 3.44 21.66 9.4 98.4-59.84 172.8z" fill="#f4ea2a" p-id="2227"></path><path d="M886.2 247.2l-76.9 76.9c-0.02 0.02-0.04 0.06-0.06 0.08-0.32 0.32-0.58 0.68-0.84 1.04-0.14 0.16-0.3 0.34-0.42 0.52-0.18 0.28-0.32 0.6-0.48 0.9-0.14 0.28-0.3 0.56-0.42 0.84-0.08 0.24-0.14 0.48-0.22 0.72-0.12 0.4-0.24 0.8-0.32 1.2 0 0.04-0.02 0.08-0.02 0.12l-11.98 71.1L481.2 713.96l-49.78-6.46c-0.24-0.04-0.48 0-0.72-0.02-0.26-0.02-0.5-0.06-0.76-0.06-0.1 0-0.2 0.02-0.3 0.04-0.3 0-0.6 0.06-0.92 0.1-0.36 0.06-0.72 0.1-1.08 0.2-0.24 0.06-0.48 0.16-0.72 0.24-0.38 0.12-0.76 0.26-1.12 0.42-0.22 0.1-0.42 0.24-0.62 0.36-0.34 0.2-0.68 0.4-1 0.62-0.22 0.16-0.4 0.36-0.6 0.52-0.28 0.24-0.56 0.48-0.8 0.74-0.2 0.24-0.38 0.48-0.56 0.72-0.2 0.26-0.42 0.52-0.58 0.8-0.18 0.28-0.3 0.56-0.44 0.84-0.16 0.3-0.3 0.6-0.42 0.92-0.1 0.28-0.18 0.58-0.26 0.88-0.1 0.34-0.18 0.7-0.24 1.06-0.02 0.08-0.06 0.16-0.06 0.24-0.04 0.26-0.02 0.5-0.02 0.76-0.02 0.24-0.06 0.48-0.06 0.72l1.1 56.32-14.8 14.8-87.5-87.48-85.8-85.82 14.9-14.9 54.7-0.48 0.02 0.02s0-0.02 0.02-0.02h0.16c0.38 0 0.74-0.02 1.12-0.08 0.12-0.02 0.26-0.06 0.38-0.08 0.36-0.06 0.68-0.14 1.02-0.24 0.32-0.08 0.62-0.18 0.92-0.3s0.6-0.26 0.88-0.4c0.3-0.16 0.58-0.3 0.86-0.48 0.26-0.16 0.52-0.36 0.76-0.54 0.26-0.2 0.52-0.4 0.74-0.64 0.24-0.22 0.44-0.44 0.66-0.68 0.2-0.24 0.42-0.48 0.6-0.76 0.18-0.26 0.34-0.52 0.5-0.8 0.16-0.28 0.32-0.56 0.46-0.84 0.14-0.3 0.24-0.6 0.34-0.9 0.12-0.32 0.22-0.62 0.3-0.96 0.06-0.3 0.1-0.62 0.16-0.92 0.04-0.36 0.08-0.7 0.08-1.06 0.02-0.12 0.04-0.26 0.04-0.4 0-0.2-0.04-0.4-0.06-0.6-0.02-0.2 0-0.4-0.02-0.6l-6.46-49.78 313.34-313.34 71.1-11.98c0.04 0 0.08-0.02 0.12-0.02 0.4-0.08 0.8-0.2 1.2-0.32 0.22-0.08 0.48-0.14 0.72-0.22 0.3-0.12 0.58-0.3 0.86-0.44 0.3-0.16 0.6-0.28 0.88-0.46 0.2-0.14 0.38-0.3 0.58-0.46 0.32-0.24 0.66-0.5 0.96-0.78 0.04-0.04 0.08-0.06 0.1-0.08l76.9-76.9 113.22 113.22z" fill="#f4ea2a" p-id="2228"></path><path d="M961.86 83.68c-8.54-0.1-18.62 0.4-29.8 2.04-43.68 6.38-83.8 26.44-119.42 59.64l-25.4-25.4c35.62-33.2 75.74-53.26 119.42-59.64 24.72-3.62 44.1-1.66 53.38-0.18 0.8 5.08 1.74 13.16 1.82 23.54zM798.38 159.38l-76.9 76.9c-0.02 0.02-0.06 0.04-0.1 0.08-0.3 0.28-0.64 0.54-0.96 0.78-0.2 0.16-0.38 0.32-0.58 0.46-0.28 0.18-0.58 0.3-0.88 0.46-0.28 0.14-0.56 0.32-0.86 0.44-0.24 0.08-0.5 0.14-0.72 0.22-0.4 0.12-0.8 0.24-1.2 0.32-0.04 0-0.08 0.02-0.12 0.02l-71.1 11.98-313.34 313.34 6.46 49.78c0.02 0.2 0 0.4 0.02 0.6s0.06 0.4 0.06 0.6c0 0.14-0.02 0.28-0.04 0.4 0 0.36-0.04 0.7-0.08 1.06-0.06 0.3-0.1 0.62-0.16 0.92-0.08 0.34-0.18 0.64-0.3 0.96-0.1 0.3-0.2 0.6-0.34 0.9a17.432 17.432 0 0 1-0.96 1.64c-0.18 0.28-0.4 0.52-0.6 0.76-0.22 0.24-0.42 0.46-0.66 0.68-0.22 0.24-0.48 0.44-0.74 0.64-0.24 0.18-0.5 0.38-0.76 0.54-0.28 0.18-0.56 0.32-0.86 0.48-0.28 0.14-0.58 0.28-0.88 0.4-0.3 0.12-0.6 0.22-0.92 0.3-0.34 0.1-0.66 0.18-1.02 0.24-0.12 0.02-0.26 0.06-0.38 0.08-0.38 0.06-0.74 0.08-1.12 0.08h-0.16c-0.02 0-0.02 0.02-0.02 0.02l-0.02-0.02-54.7 0.48-14.9 14.9-25.4-25.4 14.9-14.9 54.7-0.48 0.02 0.02s0-0.02 0.02-0.02h0.16c0.38 0 0.74-0.02 1.12-0.08 0.12-0.02 0.26-0.06 0.38-0.08 0.36-0.06 0.68-0.14 1.02-0.24 0.32-0.08 0.62-0.18 0.92-0.3s0.6-0.26 0.88-0.4c0.3-0.16 0.58-0.3 0.86-0.48 0.26-0.16 0.52-0.36 0.76-0.54 0.26-0.2 0.52-0.4 0.74-0.64 0.24-0.22 0.44-0.44 0.66-0.68 0.2-0.24 0.42-0.48 0.6-0.76 0.18-0.26 0.34-0.52 0.5-0.8 0.16-0.28 0.32-0.56 0.46-0.84 0.14-0.3 0.24-0.6 0.34-0.9 0.12-0.32 0.22-0.62 0.3-0.96 0.06-0.3 0.1-0.62 0.16-0.92 0.04-0.36 0.08-0.7 0.08-1.06 0.02-0.12 0.04-0.26 0.04-0.4 0-0.2-0.04-0.4-0.06-0.6-0.02-0.2 0-0.4-0.02-0.6l-6.46-49.78 313.34-313.34 71.1-11.98c0.04 0 0.08-0.02 0.12-0.02 0.4-0.08 0.8-0.2 1.2-0.32 0.22-0.08 0.48-0.14 0.72-0.22 0.3-0.12 0.58-0.3 0.86-0.44 0.3-0.16 0.6-0.28 0.88-0.46 0.2-0.14 0.38-0.3 0.58-0.46 0.32-0.24 0.66-0.5 0.96-0.78 0.04-0.04 0.08-0.06 0.1-0.08l76.9-76.9 25.4 25.4z" fill="#f4ea2a" opacity=".4" p-id="2229"></path><path d="M899.9 232.64l-25.4-25.4c53.02-56.98 61.94-115.34 61.66-149.26 10.38 0.1 18.5 1.04 23.58 1.86 3.44 21.66 9.4 98.4-59.84 172.8zM885.9 246.9L809 323.8c-0.02 0.02-0.04 0.06-0.06 0.08-0.32 0.32-0.58 0.68-0.84 1.04-0.14 0.16-0.3 0.34-0.42 0.52-0.18 0.28-0.32 0.6-0.48 0.9-0.14 0.28-0.3 0.56-0.42 0.84-0.08 0.24-0.14 0.48-0.22 0.72-0.12 0.4-0.24 0.8-0.32 1.2 0 0.04-0.02 0.08-0.02 0.12l-11.98 71.1-313.34 313.34-49.78-6.46c-0.24-0.04-0.48 0-0.72-0.02-0.26-0.02-0.5-0.06-0.76-0.06-0.1 0-0.2 0.02-0.3 0.04-0.3 0-0.6 0.06-0.92 0.1-0.36 0.06-0.72 0.1-1.08 0.2-0.24 0.06-0.48 0.16-0.72 0.24-0.38 0.12-0.76 0.26-1.12 0.42-0.22 0.1-0.42 0.24-0.62 0.36-0.34 0.2-0.68 0.4-1 0.62-0.22 0.16-0.4 0.36-0.6 0.52-0.28 0.24-0.56 0.48-0.8 0.74-0.2 0.24-0.38 0.48-0.56 0.72-0.2 0.26-0.42 0.52-0.58 0.8-0.18 0.28-0.3 0.56-0.44 0.84-0.16 0.3-0.3 0.6-0.42 0.92-0.1 0.28-0.18 0.58-0.26 0.88-0.1 0.34-0.18 0.7-0.24 1.06-0.02 0.08-0.06 0.16-0.06 0.24-0.04 0.26-0.02 0.5-0.02 0.76-0.02 0.24-0.06 0.48-0.06 0.72l1.1 56.32-14.8 14.8-25.4-25.4 14.8-14.8-1.1-56.32c0-0.24 0.04-0.48 0.06-0.72 0-0.26-0.02-0.5 0.02-0.76 0-0.08 0.04-0.16 0.06-0.24 0.06-0.36 0.14-0.72 0.24-1.06 0.08-0.3 0.16-0.6 0.26-0.88 0.12-0.32 0.26-0.62 0.42-0.92 0.14-0.28 0.26-0.56 0.44-0.84 0.16-0.28 0.38-0.54 0.58-0.8 0.18-0.24 0.36-0.48 0.56-0.72 0.24-0.26 0.52-0.5 0.8-0.74 0.2-0.16 0.38-0.36 0.6-0.52 0.32-0.22 0.66-0.42 1-0.62 0.2-0.12 0.4-0.26 0.62-0.36 0.36-0.16 0.74-0.3 1.12-0.42 0.24-0.08 0.48-0.18 0.72-0.24 0.36-0.1 0.72-0.14 1.08-0.2 0.32-0.04 0.62-0.1 0.92-0.1 0.1-0.02 0.2-0.04 0.3-0.04 0.26 0 0.5 0.04 0.76 0.06 0.24 0.02 0.48-0.02 0.72 0.02l49.78 6.46 313.34-313.34 11.98-71.1c0-0.04 0.02-0.08 0.02-0.12 0.08-0.4 0.2-0.8 0.32-1.2 0.08-0.24 0.14-0.48 0.22-0.72 0.12-0.28 0.28-0.56 0.42-0.84 0.16-0.3 0.3-0.62 0.48-0.9 0.12-0.18 0.28-0.36 0.42-0.52 0.26-0.36 0.52-0.72 0.84-1.04 0.02-0.02 0.04-0.06 0.06-0.08l76.9-76.9 25.4 25.4z" fill="#f4ea2a" opacity=".2" p-id="2230"></path><path d="M292.704 729.174a10 10 0 0 0-14.142 0L164.56 843.178a9.996 9.996 0 0 0 7.072 17.07c2.56 0 5.118-0.976 7.072-2.93l114.002-114.004a10 10 0 0 0-0.002-14.14zM174.218 768.088l71.628-71.63a10 10 0 1 0-14.142-14.14l-71.628 71.63a9.996 9.996 0 0 0 7.072 17.07c2.56 0 5.116-0.976 7.07-2.93zM194.13 654.462a10 10 0 1 0-14.142-14.14l-31.462 31.462a9.996 9.996 0 0 0 7.072 17.07c2.56 0 5.118-0.976 7.072-2.93l31.46-31.462zM335.952 873.356c1.952 1.952 4.51 2.928 7.07 2.928s5.12-0.976 7.072-2.93l31.462-31.466a10 10 0 1 0-14.142-14.14l-31.462 31.466a10 10 0 0 0 0 14.142zM339.564 776.036a10.004 10.004 0 0 0-14.142-0.002l-71.63 71.624a10 10 0 0 0 7.072 17.072 9.968 9.968 0 0 0 7.07-2.928l71.63-71.624a10.002 10.002 0 0 0 0-14.142zM314.788 894.518a10.004 10.004 0 0 0-14.142-0.002l-25.358 25.358a10 10 0 0 0 7.072 17.072 9.976 9.976 0 0 0 7.072-2.928l25.358-25.358a10 10 0 0 0-0.002-14.142zM113.218 707.092l-25.356 25.36a10 10 0 1 0 14.142 14.14l25.356-25.36a10 10 0 1 0-14.142-14.14zM729.302 554.626L422.118 861.808a9.996 9.996 0 0 0 7.072 17.07c2.56 0 5.118-0.976 7.072-2.93l307.184-307.184a10 10 0 1 0-14.144-14.138zM387.054 896.874l-71.808 71.806a9.996 9.996 0 0 0 7.072 17.07 9.97 9.97 0 0 0 7.072-2.93l71.808-71.806a10 10 0 0 0-14.144-14.14zM154.516 604.206c2.558 0 5.12-0.976 7.072-2.93l307.184-307.182a10 10 0 1 0-14.142-14.142L147.444 587.134a9.996 9.996 0 0 0 0 14.14 9.97 9.97 0 0 0 7.072 2.932zM126.524 622.202a10 10 0 0 0-14.142 0l-67.384 67.382a9.996 9.996 0 0 0 7.072 17.07 9.97 9.97 0 0 0 7.072-2.93l67.384-67.382a10 10 0 0 0-0.002-14.14z" fill="#f4ea2a" p-id="2231"></path></svg>