<?xml version="1.0" standalone="no"?><!DOCTYPE svg PUBLIC "-//W3C//DTD SVG 1.1//EN" "http://www.w3.org/Graphics/SVG/1.1/DTD/svg11.dtd"><svg t="1608973915904" class="icon" viewBox="0 0 1024 1024" version="1.1" xmlns="http://www.w3.org/2000/svg" p-id="2441" xmlns:xlink="http://www.w3.org/1999/xlink" width="110" height="110"><defs><style type="text/css"></style></defs><path d="M434.005333 512l150.826667-150.869333a42.666667 42.666667 0 1 0-60.330667-60.330667L343.466667 481.834667a42.666667 42.666667 0 0 0 0 60.330666l181.034666 181.034667a42.666667 42.666667 0 0 0 60.330667-60.330667L434.005333 512zM256 85.333333h512a170.666667 170.666667 0 0 1 170.666667 170.666667v512a170.666667 170.666667 0 0 1-170.666667 170.666667H256a170.666667 170.666667 0 0 1-170.666667-170.666667V256a170.666667 170.666667 0 0 1 170.666667-170.666667z" p-id="2442" fill="#707070"></path></svg>