<?xml version="1.0" standalone="no"?><!DOCTYPE svg PUBLIC "-//W3C//DTD SVG 1.1//EN" "http://www.w3.org/Graphics/SVG/1.1/DTD/svg11.dtd"><svg t="1608965338436" class="icon" viewBox="0 0 1024 1024" version="1.1" xmlns="http://www.w3.org/2000/svg" p-id="1714" xmlns:xlink="http://www.w3.org/1999/xlink" width="110" height="110"><defs><style type="text/css"></style></defs><path d="M512 1024c-282.482759 0-512-229.517241-512-512s229.517241-512 512-512 512 229.517241 512 512-229.517241 512-512 512z m3.531034-91.806897c229.517241 0 416.662069-187.144828 416.662069-416.662069s-187.144828-416.662069-416.662069-416.662068-416.662069 187.144828-416.662068 416.662068 187.144828 416.662069 416.662068 416.662069z m-84.744827-617.931034l289.544827 169.489655c14.124138 10.593103 21.186207 28.248276 10.593104 42.372414l-10.593104 10.593103-289.544827 165.958621c-14.124138 10.593103-35.310345 3.531034-42.372414-10.593103-3.531034-3.531034-3.531034-10.593103-3.531034-17.655173v-335.448276c0-17.655172 14.124138-31.77931 31.77931-31.77931 3.531034 3.531034 10.593103 7.062069 14.124138 7.062069z" p-id="1715" fill="#f4ea2a"></path></svg>