<?xml version="1.0" standalone="no"?><!DOCTYPE svg PUBLIC "-//W3C//DTD SVG 1.1//EN" "http://www.w3.org/Graphics/SVG/1.1/DTD/svg11.dtd"><svg t="1608974231863" class="icon" viewBox="0 0 1024 1024" version="1.1" xmlns="http://www.w3.org/2000/svg" p-id="3995" xmlns:xlink="http://www.w3.org/1999/xlink" width="110" height="110"><defs><style type="text/css"></style></defs><path d="M589.994667 512l-150.826667 150.869333a42.666667 42.666667 0 1 0 60.330667 60.330667L680.533333 542.165333a42.666667 42.666667 0 0 0 0-60.330666l-181.034666-181.034667a42.666667 42.666667 0 0 0-60.330667 60.330667L589.994667 512zM768 938.666667l-512 0a170.666667 170.666667 0 0 1-170.666667-170.666667l0-512a170.666667 170.666667 0 0 1 170.666667-170.666667L768 85.333333a170.666667 170.666667 0 0 1 170.666667 170.666667L938.666667 768a170.666667 170.666667 0 0 1-170.666667 170.666667z" p-id="3996" fill="#707070"></path></svg>