<?xml version="1.0" standalone="no"?><!DOCTYPE svg PUBLIC "-//W3C//DTD SVG 1.1//EN" "http://www.w3.org/Graphics/SVG/1.1/DTD/svg11.dtd"><svg t="1609850605652" class="icon" viewBox="0 0 1024 1024" version="1.1" xmlns="http://www.w3.org/2000/svg" p-id="12584" xmlns:xlink="http://www.w3.org/1999/xlink" width="250" height="250"><defs><style type="text/css"></style></defs><path d="M0 509.888v0.032c0 281.6 228.288 509.888 509.888 509.888s509.888-228.288 509.888-509.888v-0.032-0.032c0-281.6-228.288-509.888-509.888-509.888S0 228.256 0 509.856v0.032z m662.848-212.448c-29.728-16.992-63.744-21.248-93.472-21.248-50.976 0-89.216 21.248-118.976 63.744s-46.752 101.984-46.752 178.464c25.504-50.976 72.224-80.736 131.712-80.736 50.976 0 89.216 16.992 118.976 50.976s46.752 76.48 46.752 131.712-16.992 101.984-50.976 140.224-80.736 50.976-135.968 50.976c-59.488 0-106.208-21.248-140.224-67.968s-50.976-110.464-50.976-195.456c0-101.984 21.248-182.72 67.968-242.176 42.496-59.488 101.984-89.216 174.208-89.216 42.496 0 72.224 4.256 97.728 16.992v63.744z m-254.944 314.4c0 38.24 8.512 72.224 29.728 97.728s46.752 42.496 80.736 42.496 59.488-12.736 76.48-33.984 29.728-55.232 29.728-89.216c0-38.24-8.512-72.224-29.728-93.472s-46.752-33.984-80.736-33.984-59.488 12.736-80.736 33.984-25.504 46.752-25.504 76.48z" p-id="12585" fill="#d81e06"></path></svg>