<?xml version="1.0" standalone="no"?><!DOCTYPE svg PUBLIC "-//W3C//DTD SVG 1.1//EN" "http://www.w3.org/Graphics/SVG/1.1/DTD/svg11.dtd"><svg t="1609850924003" class="icon" viewBox="0 0 1024 1024" version="1.1" xmlns="http://www.w3.org/2000/svg" p-id="22549" xmlns:xlink="http://www.w3.org/1999/xlink" width="250" height="250"><defs><style type="text/css"></style></defs><path d="M733.514235 0.017731H416.290291a221.641184 221.641184 0 0 0-221.641184 221.641184v180.637565a221.641184 221.641184 0 0 0 60.951326 418.624785v191.996676a11.082059 11.082059 0 0 0 11.082059 11.082059h616.716594a11.082059 11.082059 0 0 0 11.082059-11.082059v-193.936036A87.825319 87.825319 0 0 0 955.155419 728.940174V221.658915a218.870669 218.870669 0 0 0-221.641184-221.641184zM416.290291 63.185469H733.514235A154.040623 154.040623 0 0 1 891.987681 221.658915v58.734914a26.042839 26.042839 0 0 0 0 4.432823A158.196395 158.196395 0 0 1 733.514235 443.300099h-176.481792a126.335475 126.335475 0 0 0-109.158283-63.167738H290.231868a223.026441 223.026441 0 0 0-30.752715 2.216412V221.658915a158.473446 158.473446 0 0 1 156.811138-158.473446zM131.48137 602.327648a157.642292 157.642292 0 0 1 105.833665-148.499593s1.662309 0 2.770515-1.662309A158.750498 158.750498 0 0 1 290.231868 443.300099h158.196395a63.444789 63.444789 0 1 1 0 126.612526H290.231868a31.86092 31.86092 0 0 0 0 63.444789h158.196395a126.889578 126.889578 0 0 0 126.612526-126.612526H733.514235a221.641184 221.641184 0 0 0 159.304601-67.600561v289.795847a31.583869 31.583869 0 0 1-19.116552 27.705148H263.634926a158.750498 158.750498 0 0 1-132.153556-154.317674z m692.628699 341.327423a11.082059 11.082059 0 0 1-11.082059 11.082059H335.945362a11.082059 11.082059 0 0 1-11.082059-11.082059v-105.556614a11.082059 11.082059 0 0 1 11.082059-11.082059h478.190854a11.082059 11.082059 0 0 1 11.082059 11.082059z" p-id="22550" fill="#d81e06"></path></svg>