<?xml version="1.0" standalone="no"?><!DOCTYPE svg PUBLIC "-//W3C//DTD SVG 1.1//EN" "http://www.w3.org/Graphics/SVG/1.1/DTD/svg11.dtd"><svg t="1609850791863" class="icon" viewBox="0 0 1024 1024" version="1.1" xmlns="http://www.w3.org/2000/svg" p-id="16321" xmlns:xlink="http://www.w3.org/1999/xlink" width="250" height="250"><defs><style type="text/css"></style></defs><path d="M464.7936 230.8096c-0.2048 0.2048-5.0176 0.7168-10.6496 1.024-13.9264 0.9216-36.6592 4.8128-48.64 8.2944-40.448 11.8784-69.2224 26.0096-101.376 49.8688-2.4576 1.8432-8.704 7.4752-13.824 12.5952-5.12 5.0176-7.68 7.7824-5.7344 6.144 1.9456-1.7408 4.1984-3.7888 4.8128-4.608 0.7168-0.8192 1.6384-1.536 2.1504-1.536s1.9456-1.024 3.3792-2.3552c1.3312-1.2288 2.9696-2.2528 3.4816-2.2528 0.6144 0-2.3552 3.1744-6.5536 6.8608-21.0944 18.7392-32.5632 31.5392-53.0432 59.1872-6.4512 8.8064-23.8592 39.424-22.3232 39.424 0.2048 0 2.56-3.7888 5.2224-8.4992 7.4752-12.8 19.3536-31.1296 20.992-32.4608 0.4096-0.3072 2.1504-2.6624 3.8912-5.3248 1.8432-2.56 3.8912-5.3248 4.5056-6.144 0.7168-0.7168 3.1744-3.6864 5.4272-6.4512 6.0416-7.68 31.8464-33.5872 39.424-39.7312 3.6864-2.8672 7.4752-6.0416 8.3968-6.8608 2.1504-1.9456 15.0528-11.264 22.2208-15.9744 6.0416-4.096 34.0992-18.8416 35.5328-18.8416 0.512 0.1024-0.4096 0.8192-1.9456 1.6384-1.6384 0.9216-2.7648 1.8432-2.4576 2.1504 0.3072 0.2048 2.2528-0.512 4.5056-1.6384 2.1504-1.1264 3.1744-2.048 2.3552-2.1504-2.1504-0.1024 1.8432-3.072 3.9936-3.072 1.3312 0.1024 1.2288 0.4096-0.4096 1.6384-1.9456 1.6384-1.9456 1.6384 0.512 0.9216 1.4336-0.4096 3.8912-1.4336 5.5296-2.2528 2.1504-1.1264 3.1744-1.2288 4.096-0.3072 0.8192 0.8192 0.7168 1.024-0.6144 0.512-1.1264-0.4096-1.8432-0.2048-1.8432 0.512 0 0.6144-0.4096 0.8192-1.024 0.512-0.512-0.3072-1.024-0.2048-1.024 0.3072s-1.536 1.536-3.2768 2.2528c-2.9696 1.024-13.312 5.5296-21.2992 9.0112-3.7888 1.7408-13.6192 7.3728-15.36 8.9088-0.8192 0.7168-3.3792 2.2528-5.632 3.4816-2.2528 1.2288-6.144 3.6864-8.704 5.5296-9.9328 7.168-16.9984 12.4928-18.2272 13.7216-0.7168 0.6144-3.4816 2.9696-6.144 5.12-8.192 6.656-28.8768 27.136-34.304 34.0992-2.8672 3.6864-5.5296 6.8608-5.9392 7.168-1.4336 1.1264-12.288 16.7936-15.36 22.3232-1.8432 3.1744-3.6864 6.0416-3.9936 6.3488-1.4336 1.024-16.4864 30.72-21.2992 41.984-6.7584 15.9744-13.7216 36.864-13.2096 39.6288 0.2048 1.2288 0.1024 2.048-0.3072 1.8432-1.1264-0.7168-3.2768 8.6016-2.4576 10.9568 0.4096 1.536 0.3072 1.8432-0.6144 1.3312-1.024-0.6144-1.1264-0.1024-0.6144 1.9456 0.4096 1.6384 0.2048 2.6624-0.512 2.6624s-0.8192 1.1264-0.4096 3.1744c0.512 2.3552 0.4096 2.9696-0.4096 2.4576s-1.024 0.1024-0.512 1.9456c0.3072 1.4336 0.2048 2.6624-0.2048 2.6624-0.512 0-1.024 2.7648-1.1264 6.144-0.1024 3.3792-0.512 6.5536-0.8192 7.168-0.8192 1.3312-0.9216 2.56-2.048 32.768-1.2288 30.72 0.9216 49.8688 9.4208 86.528 2.9696 12.9024 9.4208 32.256 10.6496 32.256 1.2288 0 1.2288 0.3072-1.2288-7.0656-1.1264-3.584-1.8432-6.9632-1.7408-7.4752 0.2048-0.6144 1.9456 3.8912 3.7888 10.0352 1.8432 6.144 3.8912 11.776 4.4032 12.3904 0.6144 0.7168 0.7168 1.3312 0.3072 1.3312-0.512 0-0.1024 0.8192 0.8192 1.7408 1.6384 1.8432 1.7408 2.1504 1.7408 5.0176 0 0.9216 0.512 1.2288 1.2288 0.8192 0.7168-0.4096 0.8192-0.3072 0.4096 0.512-0.9216 1.3312 2.3552 9.3184 3.8912 9.3184 0.512 0 0.6144 0.3072 0.3072 0.6144-0.3072 0.4096-0.1024 1.6384 0.512 2.8672 0.7168 1.1264 1.3312 2.3552 1.3312 2.6624 0.1024 1.7408 2.9696 7.168 3.6864 7.168 0.512 0 0.8192 0.3072 0.8192 0.7168-0.4096 2.2528 0.3072 4.1984 2.1504 6.2464 1.2288 1.2288 1.8432 2.2528 1.4336 2.2528-0.4096 0 0.1024 0.9216 1.1264 2.048s1.4336 2.048 1.024 2.048c-0.512 0 0.2048 1.2288 1.6384 2.7648 1.3312 1.4336 1.7408 2.3552 0.9216 1.8432-0.8192-0.4096-0.512 0.2048 0.8192 1.4336 1.2288 1.2288 2.048 2.6624 1.7408 3.1744-0.3072 0.4096 0.2048 1.1264 1.1264 1.4336 0.9216 0.4096 1.4336 0.9216 1.024 1.3312-0.3072 0.4096 0.4096 1.8432 1.6384 3.1744 1.3312 1.4336 1.6384 2.2528 0.8192 1.8432-0.8192-0.4096-0.6144 0 0.512 0.9216s1.9456 2.048 1.8432 2.56c-0.1024 0.4096 0.4096 1.4336 1.2288 2.048 0.8192 0.7168 1.536 1.9456 1.536 2.6624 0 0.8192 0.4096 1.4336 0.9216 1.4336s3.3792 3.3792 6.3488 7.3728c8.3968 11.6736 11.264 15.36 16.7936 21.8112 14.0288 16.4864 35.7376 38.1952 46.2848 46.2848 1.536 1.2288 3.9936 3.1744 5.4272 4.4032 1.4336 1.2288 3.584 3.072 4.8128 4.096 1.2288 1.024 4.5056 3.4816 7.168 5.3248 2.6624 1.8432 6.5536 4.608 8.4992 6.144 1.9456 1.536 8.6016 5.3248 14.848 8.6016 6.144 3.1744 13.1072 6.9632 15.36 8.3968 7.9872 5.0176 32.768 16.5888 34.4064 16.0768 1.024-0.3072 6.7584 1.2288 12.9024 3.4816 16.6912 6.144 23.1424 8.2944 24.3712 8.192 0.512 0-3.6864-1.8432-9.5232-4.1984-5.8368-2.2528-10.4448-4.3008-10.24-4.5056 0.2048-0.2048 2.8672 0.6144 5.9392 1.7408 6.8608 2.56 23.2448 7.0656 23.8592 6.4512 0.2048-0.2048 6.144 0.9216 13.1072 2.56 6.9632 1.7408 15.9744 3.2768 19.8656 3.584l7.168 0.6144-8.192-1.9456c-25.088-5.632-52.0192-14.1312-71.68-22.3232-12.3904-5.2224-37.2736-17.408-38.4-18.8416-0.3072-0.4096-1.536-0.9216-2.7648-1.3312-1.3312-0.4096-2.9696-1.3312-3.584-1.9456-0.7168-0.7168-4.8128-3.2768-9.0112-5.8368-4.1984-2.4576-8.0896-4.9152-8.704-5.3248-0.512-0.512-4.1984-3.1744-8.192-5.9392-7.7824-5.5296-12.4928-9.1136-14.2336-10.8544-0.6144-0.6144-1.9456-1.536-2.9696-2.048-6.8608-3.8912-49.8688-47.9232-49.8688-51.2 0-0.4096-1.536-2.4576-3.2768-4.4032-1.8432-1.9456-2.4576-2.9696-1.4336-2.1504 1.1264 0.8192 4.4032 4.5056 7.2704 8.192 5.8368 7.168 20.48 22.2208 31.4368 32.256 7.7824 7.168 10.0352 9.0112 20.2752 16.6912 4.1984 3.2768 8.2944 6.4512 9.0112 7.0656 0.7168 0.7168 1.7408 1.3312 2.2528 1.3312 0.512 0 1.536 0.6144 2.2528 1.3312 0.7168 0.7168 4.3008 3.1744 7.9872 5.5296 3.6864 2.3552 7.168 4.7104 7.68 5.12 6.8608 5.7344 55.6032 29.696 58.2656 28.5696 0.6144-0.2048 0.512-0.512-0.3072-0.512-1.6384-0.1024-37.0688-17.408-37.9904-18.5344-0.3072-0.3072-4.4032-2.7648-9.216-5.5296-7.8848-4.4032-18.2272-11.6736-12.5952-8.9088 1.6384 0.8192 2.3552 0.8192 2.6624-0.2048 0.3072-0.7168 0.6144-0.4096 0.6144 0.6144 0.1024 1.024 0.6144 1.536 1.1264 1.2288 0.6144-0.3072 1.024-0.1024 1.024 0.512s0.4096 0.8192 1.024 0.512c0.512-0.3072 1.024-0.2048 1.024 0.3072s0.6144 0.9216 1.3312 0.9216c0.6144 0 6.0416 2.6624 11.9808 5.9392 11.3664 6.3488 33.0752 16.4864 44.032 20.5824 27.5456 10.4448 60.3136 17.7152 89.6 20.0704 21.7088 1.6384 69.12 1.6384 83.456-0.1024 9.5232-1.1264 28.7744-4.3008 34.304-5.632 1.1264-0.2048 6.4512-1.4336 11.776-2.6624 11.5712-2.56 23.9616-6.144 23.3472-6.656-0.2048-0.3072-2.1504 0-4.3008 0.6144-4.3008 1.2288-4.1984 1.1264-14.4384 3.3792-9.0112 2.048-13.0048 1.9456-6.144-0.1024 27.7504-8.192 40.2432-12.3904 58.5728-19.968 31.232-12.8 59.6992-30.208 94.5152-58.0608 15.1552-12.0832 49.664-45.568 48.64-47.2064-0.512-0.8192-4.8128 2.7648-16.6912 14.0288-3.072 2.9696-5.8368 5.4272-6.0416 5.4272-0.2048 0-1.4336 1.024-2.7648 2.2528-2.1504 2.2528-5.5296 5.12-17.408 15.1552-2.7648 2.3552-6.2464 5.0176-7.68 5.9392-1.4336 0.9216-3.3792 2.2528-4.1984 2.9696-4.096 3.2768-14.7456 11.264-16.896 12.5952-1.3312 0.8192-5.2224 3.4816-8.704 5.8368-3.4816 2.4576-6.7584 4.4032-7.168 4.4032-0.4096 0-1.3312 0.7168-2.048 1.536s-1.6384 1.3312-2.048 1.024c-0.512-0.3072-1.024-0.1024-1.2288 0.3072-0.4096 1.024-13.1072 8.6016-13.1072 7.7824 0-0.3072-1.3312 0.4096-2.8672 1.536-2.56 1.7408-9.728 4.3008-8.3968 2.8672 0.3072-0.2048 3.072-1.8432 6.144-3.584 9.6256-5.12 13.5168-7.3728 19.3536-11.264 3.1744-2.048 6.2464-3.9936 6.7584-4.3008 1.7408-0.8192 13.312-8.9088 20.6848-14.4384 15.4624-11.4688 43.8272-38.4 56.7296-53.76 4.1984-5.0176 7.8848-9.3184 8.192-9.6256 0.3072-0.3072 0.8192-1.4336 1.2288-2.56 0.6144-1.7408 0.4096-1.7408-1.024 0.3072-0.8192 1.2288-3.2768 4.096-5.3248 6.2464-2.048 2.1504-6.4512 7.0656-9.8304 10.9568-9.6256 11.0592-25.088 26.112-36.0448 34.9184-1.2288 1.024-3.072 2.56-4.096 3.3792-1.024 0.9216-4.1984 3.1744-6.9632 5.12-2.8672 1.8432-7.2704 5.2224-9.8304 7.3728-2.6624 2.1504-5.2224 3.8912-5.8368 3.8912-0.512 0-1.6384 0.7168-2.3552 1.6384-0.7168 0.9216-2.2528 2.048-3.4816 2.56-1.1264 0.512-3.3792 1.8432-5.12 2.9696-1.6384 1.1264-4.9152 2.9696-7.168 4.096-5.5296 2.8672-8.0896 4.4032-8.9088 5.632-0.4096 0.512-0.8192 0.6144-0.8192 0.1024s-0.9216-0.1024-2.048 0.9216-2.048 1.536-2.048 1.2288c0-0.4096-2.2528 0.7168-5.12 2.3552-2.7648 1.6384-5.12 2.56-5.12 1.9456 0-0.512 1.2288-1.536 2.8672-2.2528 2.3552-1.1264 6.656-3.4816 16.0768-9.216 1.1264-0.7168 3.4816-2.2528 5.3248-3.4816 1.7408-1.3312 3.4816-2.3552 3.8912-2.3552 0.3072 0 1.1264-0.512 1.8432-1.1264 0.7168-0.6144 4.3008-3.1744 7.9872-5.8368 17.6128-12.4928 25.1904-18.7392 39.0144-31.8464 6.144-5.9392 8.6016-8.9088 7.7824-9.4208-0.9216-0.6144-0.6144-1.3312 1.024-2.7648 1.2288-1.1264 2.2528-2.56 2.2528-3.2768 0-0.7168 0.3072-1.1264 0.6144-0.7168 0.9216 0.9216 22.7328-21.6064 29.0816-30.1056 1.4336-1.8432 3.4816-4.4032 4.608-5.632 3.584-3.8912 22.3232-30.8224 22.1184-31.744-0.2048-0.4096 0.4096-1.1264 1.3312-1.6384s1.6384-1.8432 1.6384-2.9696c0-1.1264 0.512-1.7408 1.024-1.4336 0.6144 0.3072 1.024 0 1.024-0.8192 0-2.1504 2.6624-6.9632 3.3792-6.144 0.4096 0.3072 0.7168 0.1024 0.7168-0.512s1.536-3.7888 3.3792-7.0656c4.5056-7.68 12.6976-22.9376 15.872-29.4912 11.3664-23.3472 15.1552-31.8464 16.1792-35.7376 0.6144-2.6624 0.512-2.7648-1.3312-1.8432-2.4576 1.3312-7.4752 11.3664-12.9024 25.8048-1.4336 3.6864-3.3792 8.704-4.4032 11.264-2.6624 6.3488-18.5344 35.6352-21.504 39.5264-1.3312 1.7408-2.4576 3.4816-2.4576 3.9936 0 0.8192-19.1488 28.4672-22.3232 32.0512-1.1264 1.2288-3.072 3.8912-4.4032 5.7344-1.2288 1.8432-3.1744 3.9936-4.3008 4.608-1.3312 0.9216-0.9216-0.2048 1.4336-3.6864 1.8432-2.6624 3.6864-5.12 3.9936-5.4272 1.4336-1.024 20.5824-30.9248 20.1728-31.4368-0.3072-0.2048-3.584 4.096-7.4752 9.6256-9.9328 14.5408-17.7152 24.6784-22.7328 29.7984-5.2224 5.2224-6.656 5.3248-2.2528 0.2048 2.9696-3.4816 3.7888-5.12 2.4576-5.12-0.4096 0-2.4576 1.9456-4.7104 4.3008l-3.9936 4.4032 2.8672-4.096c1.536-2.2528 3.072-4.3008 3.3792-4.608 2.8672-2.6624 11.1616-15.6672 10.6496-16.6912-0.4096-0.7168-0.4096-0.9216 0.1024-0.512 0.4096 0.4096 1.3312 0.3072 2.048-0.2048 0.8192-0.7168 1.2288-0.512 1.2288 0.512 0 0.8192-0.4096 1.536-0.9216 1.536-0.4096 0-0.8192 0.7168-0.8192 1.536s-0.4096 1.536-1.024 1.536c-0.512 0-1.024 0.4096-1.024 1.024 0 2.8672 4.1984-2.048 4.5056-5.3248 0.1024-0.4096 0.8192-1.536 1.6384-2.56 4.1984-5.0176 11.1616-16.384 9.216-15.1552-0.512 0.3072-1.024 0.1024-1.024-0.512s-0.512-0.8192-1.024-0.512c-0.6144 0.4096-0.8192 1.536-0.512 2.56 0.3072 1.024 0.1024 2.1504-0.4096 2.56-0.7168 0.4096-0.9216-0.1024-0.512-1.2288 0.4096-1.1264-0.4096-0.7168-2.2528 1.2288l-2.7648 3.072 1.8432-3.072c4.5056-7.4752 6.9632-10.6496 7.7824-10.24 0.4096 0.3072 1.1264 0 1.536-0.6144 0.4096-0.8192 0.3072-0.9216-0.4096-0.512-2.048 1.2288-1.3312-1.4336 1.6384-5.8368 1.536-2.3552 3.3792-5.2224 4.096-6.3488 2.3552-3.7888 12.1856-24.576 19.2512-40.6528 3.8912-8.8064 7.3728-15.872 7.68-15.5648 0.4096 0.2048 0.512-0.6144 0.1024-1.8432-0.3072-1.4336-0.1024-1.9456 0.6144-1.4336 0.8192 0.512 1.024 0.1024 0.512-1.024-0.512-1.3312-0.3072-1.536 0.7168-0.9216s1.2288 0.3072 0.8192-1.3312c-0.4096-1.2288-0.3072-2.048 0.1024-1.7408 1.1264 0.6144 4.4032-10.5472 3.584-11.9808-0.4096-0.7168-0.3072-0.8192 0.4096-0.4096 1.6384 1.024 6.4512-15.0528 5.7344-19.2512-0.512-2.56-0.3072-2.8672 0.6144-1.6384 1.024 1.3312 1.1264 1.3312 0.7168-0.2048-0.3072-0.9216 0.512-6.656 1.9456-12.8 5.3248-23.552 10.8544-65.1264 10.5472-79.5648-0.1024-6.4512-0.7168-3.2768-1.8432 9.6256-1.6384 18.7392-3.4816 31.5392-4.1984 28.7744-0.3072-1.6384-1.2288 1.3312-2.4576 8.704-0.9216 6.144-2.6624 15.4624-3.7888 20.7872-1.024 5.2224-1.6384 10.752-1.2288 12.1856 0.4096 1.9456 0.3072 2.3552-0.7168 1.7408-0.9216-0.512-1.1264-0.4096-0.6144 0.3072 0.4096 0.6144-0.2048 5.0176-1.3312 9.6256-2.048 8.6016-13.0048 40.96-16.4864 48.4352-1.024 2.2528-3.3792 7.5776-5.12 11.776-2.8672 6.7584-7.8848 16.6912-17.8176 35.328-1.536 2.7648-3.3792 5.7344-4.1984 6.656-0.8192 0.9216-1.536 2.1504-1.536 2.7648 0 0.6144-0.7168 1.4336-1.6384 1.7408-0.8192 0.3072-1.2288 1.024-0.9216 1.6384 0.3072 0.512 0.1024 1.024-0.6144 1.024s-1.024 0.3072-0.6144 0.6144c0.3072 0.4096-0.2048 1.4336-1.2288 2.3552-1.024 0.9216-4.7104 6.2464-8.2944 11.8784s-6.7584 10.4448-7.0656 10.752c-0.3072 0.3072-2.6624 3.2768-5.2224 6.656-5.8368 7.68-6.9632 9.1136-10.9568 13.7216-1.8432 2.048-3.3792 3.9936-3.3792 4.4032 0 0.512-0.512 0.8192-1.1264 0.8192-0.6144 0 0.3072-1.7408 2.048-3.8912 7.4752-8.9088 8.2944-10.24 7.68-11.8784-0.6144-1.6384-0.8192-1.6384-2.56 0-1.3312 1.1264-1.7408 2.56-1.3312 3.8912 0.4096 1.7408 0.3072 1.8432-0.6144 0.6144-0.9216-1.3312-1.1264-1.3312-2.048 0-2.4576 3.8912-2.9696 4.5056-3.3792 4.096-0.4096-0.4096 9.6256-14.4384 14.1312-19.6608 0.8192-1.024 3.2768-4.5056 5.3248-7.68 2.1504-3.2768 4.5056-6.5536 5.2224-7.2704 2.4576-2.6624 15.1552-24.9856 23.1424-40.7552 5.12-10.1376 14.2336-32.256 13.6192-32.8704-0.3072-0.2048-1.024 1.1264-1.7408 2.9696-3.8912 9.5232-13.1072 29.4912-13.824 29.4912-0.2048 0-0.2048-0.8192 0.1024-1.8432 0.9216-2.7648-2.8672 3.584-7.168 12.0832-2.2528 4.1984-5.9392 10.6496-8.2944 14.336-2.3552 3.6864-5.7344 9.1136-7.68 11.9808-1.8432 2.9696-3.7888 5.4272-4.3008 5.4272s-0.6144 0.6144-0.2048 1.2288c0.6144 1.024 0.4096 1.024-0.8192 0-1.3312-1.024-1.8432-1.024-2.4576-0.1024-0.4096 0.8192-0.3072 0.9216 0.4096 0.512s1.2288-0.4096 1.2288-0.1024c0 0.8192-3.9936 6.5536-5.8368 8.4992-0.7168 0.7168-1.3312 1.6384-1.3312 2.048 0 0.4096-1.024 1.9456-2.3552 3.4816-1.2288 1.4336-3.7888 4.5056-5.632 6.8608-1.8432 2.2528-4.608 5.4272-6.144 7.0656-1.536 1.6384-4.4032 4.9152-6.3488 7.3728-9.728 12.0832-31.9488 34.4064-46.08 46.1824-8.8064 7.3728-27.3408 20.3776-29.0816 20.3776-0.8192 0-1.9456 0.7168-2.7648 1.6384-1.1264 1.3312-8.9088 5.9392-12.6976 7.4752-0.512 0.2048 1.6384-1.7408 4.8128-4.3008 3.1744-2.6624 6.0416-4.8128 6.3488-4.8128 0.512 0 20.3776-14.336 25.1904-18.1248 2.4576-1.9456 15.5648-12.9024 18.7392-15.6672 7.68-6.7584 30.4128-30.1056 37.9904-39.0144 6.0416-7.2704 17.3056-22.528 16.7936-22.9376-0.3072-0.4096-4.3008 3.9936-9.5232 10.5472-0.512 0.7168-2.3552 2.8672-4.096 4.7104-1.6384 1.9456-5.0176 5.7344-7.3728 8.3968-10.0352 11.776-21.7088 23.8592-31.3344 32.5632-10.4448 9.3184-22.016 19.0464-22.6304 19.0464-0.3072 0-1.4336 0.6144-2.3552 1.4336-3.3792 2.7648-27.9552 19.0464-28.5696 19.0464-0.4096 0-2.2528 1.1264-4.096 2.56-1.8432 1.4336-3.7888 2.56-4.4032 2.56-0.6144 0-3.2768 1.3312-5.9392 2.8672-2.6624 1.536-6.7584 3.6864-9.0112 4.7104-28.5696 13.312-30.9248 14.2336-38.912 16.6912-2.7648 0.8192-5.7344 2.048-6.3488 2.56-0.7168 0.6144-1.3312 0.8192-1.3312 0.512 0-0.3072-3.584 0.7168-7.9872 2.3552-4.3008 1.536-9.3184 3.072-10.9568 3.3792-1.7408 0.3072-5.8368 1.2288-9.216 2.048-3.3792 0.9216-7.4752 1.8432-9.216 2.1504-1.6384 0.3072-4.1984 0.8192-5.632 1.1264-5.2224 1.024-8.8064 1.536-14.848 2.048-4.3008 0.3072-2.048-0.4096 7.68-2.4576 25.1904-5.3248 37.2736-8.6016 51.2-14.0288 12.9024-5.0176 25.6-11.0592 21.6064-10.24-3.3792 0.7168-1.536-0.7168 3.9936-2.9696 2.56-1.024 5.4272-2.56 6.4512-3.3792 0.9216-0.8192 1.7408-1.2288 1.7408-0.8192 0 0.4096 1.536-0.4096 3.3792-1.7408 1.7408-1.3312 3.9936-2.7648 4.8128-3.1744 0.8192-0.3072 3.1744-1.6384 5.12-2.8672 1.9456-1.1264 4.5056-2.6624 5.632-3.2768 5.8368-3.2768 22.016-13.9264 22.016-14.5408 0-0.6144-5.2224 2.4576-11.776 6.7584-2.2528 1.536-5.12 3.072-6.3488 3.4816-1.1264 0.4096-2.7648 1.3312-3.3792 2.1504-0.7168 0.8192-1.9456 1.536-2.8672 1.536-1.7408 0 2.1504-3.2768 5.2224-4.4032 2.6624-1.024 24.576-16.0768 26.112-17.92 0.6144-0.9216 1.2288-1.3312 1.2288-1.024 0 0.3072 1.2288-0.512 2.8672-1.8432 1.536-1.3312 6.2464-5.2224 10.4448-8.8064 9.216-7.5776 34.2016-32.4608 38.4-38.1952 1.7408-2.2528 3.2768-4.3008 3.584-4.608 1.1264-0.9216 15.0528-19.968 18.0224-24.4736 1.6384-2.4576 4.9152-7.5776 7.2704-11.264 2.3552-3.6864 4.7104-7.2704 5.2224-7.7824 1.8432-2.2528 11.5712-20.2752 16.5888-30.8224 6.4512-13.6192 11.0592-24.6784 15.2576-36.6592 3.6864-10.3424 3.584-13.2096 0-3.7888-1.3312 3.3792-2.7648 5.8368-3.2768 5.5296-0.512-0.3072-0.6144 0.4096-0.2048 1.7408 0.512 1.4336 0.3072 2.048-0.3072 1.6384-0.6144-0.3072-1.3312 0-1.6384 0.6144-1.024 2.56 0.6144-4.9152 2.56-10.9568 6.5536-21.1968 12.4928-49.3568 13.6192-65.024 0.3072-4.1984 0.9216-12.8 1.3312-18.944 1.2288-16.6912 0.8192-58.0608-0.6144-68.608-0.7168-5.12-1.536-11.264-1.8432-13.824-1.2288-11.264-7.168-40.5504-9.728-47.616-0.6144-1.7408-2.1504-5.4272-3.4816-8.3968-1.3312-2.8672-2.4576-5.632-2.4576-6.144 0-0.4096-1.4336-4.3008-3.1744-8.4992-1.7408-4.1984-3.2768-8.3968-3.4816-9.216-1.1264-5.0176-13.5168-30.6176-20.6848-42.7008-8.8064-15.0528-18.6368-29.3888-19.5584-28.5696-0.3072 0.3072 0.3072 1.536 1.3312 2.6624s1.4336 2.048 1.024 2.048c-0.4096 0-0.1024 0.8192 0.8192 1.8432 1.024 1.024 1.4336 2.2528 1.024 2.56-0.3072 0.4096-0.1024 0.7168 0.6144 0.7168 0.8192 0 1.1264 0.6144 0.7168 1.6384-0.3072 0.8192-0.2048 1.3312 0.3072 1.024 0.512-0.3072 1.2288 0.1024 1.536 1.024 0.3072 0.8192 0.2048 1.2288-0.4096 0.9216-1.024-0.6144 0.9216 4.5056 2.048 5.632 0.512 0.512 6.5536 12.6976 12.288 24.576 1.2288 2.56 5.0176 11.776 8.3968 20.48 3.3792 8.704 6.3488 16.1792 6.656 16.5888 0.2048 0.512 0 0.8192-0.512 0.8192s-2.1504-2.9696-3.7888-6.656c-1.536-3.6864-3.2768-6.656-3.7888-6.656s-0.6144 0.6144-0.2048 1.2288c0.512 0.7168 0.9216 1.9456 1.024 2.8672 0 0.8192 0.7168 3.584 1.4336 6.144 0.8192 2.56 1.4336 4.8128 1.536 5.12 0 0.3072 1.1264 3.6864 2.3552 7.68 4.4032 13.7216 5.3248 17.5104 8.3968 32.768 1.7408 8.3968 3.2768 16.4864 3.4816 17.92 0.2048 1.4336 0.6144 4.608 1.024 7.168 2.4576 17.2032 3.584 55.6032 2.2528 75.776-1.3312 20.48-2.3552 20.6848-1.8432 0.512 0.3072-10.752 0.2048-19.2512-0.1024-18.944-0.2048 0.3072-0.8192 6.656-1.1264 14.1312-0.7168 13.9264-3.4816 35.328-6.144 47.3088-0.8192 3.6864-2.1504 9.8304-3.072 13.824-6.656 30.4128-16.9984 58.7776-30.4128 83.6608-3.9936 7.4752-7.68 13.824-7.9872 14.1312-0.4096 0.3072-2.2528 3.072-4.096 6.144-8.704 14.6432-21.9136 30.8224-40.7552 49.8688-11.9808 12.0832-23.8592 23.1424-23.8592 22.2208 0-0.2048-0.8192 0.4096-1.8432 1.3312-1.024 1.024-3.1744 2.8672-4.8128 4.096-6.0416 4.608-11.264 8.6016-12.8 9.8304-4.7104 3.7888-33.3824 21.1968-34.9184 21.1968-0.4096 0-2.56 1.024-4.7104 2.2528-11.0592 6.5536-38.5024 17.3056-54.3744 21.4016-2.8672 0.7168-4.8128 1.6384-4.1984 2.048 1.4336 0.8192 0.4096 1.1264-12.3904 3.8912-21.8112 4.608-34.6112 5.8368-60.416 5.632-27.5456-0.2048-59.5968-5.3248-83.968-13.4144-43.9296-14.5408-77.0048-34.304-106.3936-63.6928-26.8288-26.7264-44.4416-53.1456-58.4704-87.6544-3.3792-8.2944-7.7824-21.504-8.6016-26.112-0.2048-1.4336-0.512-2.56-0.6144-2.56-0.1024 0-0.3072-0.9216-0.4096-2.048-0.2048-1.1264-0.8192-4.8128-1.4336-8.192-9.0112-47.9232-5.12-99.4304 10.24-136.192 5.2224-12.5952 9.0112-20.2752 14.848-30.1056 5.7344-9.6256 16.4864-24.6784 17.8176-24.6784 0.4096 0 3.6864-3.072 7.168-6.7584 6.144-6.3488 13.5168-13.6192 20.3776-19.968 1.6384-1.536 4.7104-4.096 6.8608-5.632 2.1504-1.6384 4.5056-3.4816 5.2224-4.1984 3.2768-3.072 22.3232-15.0528 32.9728-20.5824 28.0576-14.6432 57.7536-21.7088 91.7504-21.7088 41.7792 0 78.9504 11.9808 111.5136 35.84 5.12 3.7888 13.4144 10.6496 18.432 15.36 7.168 6.7584 7.8848 7.168 3.072 2.1504-18.944-19.7632-48.0256-37.888-74.9568-46.6944-2.9696-0.9216-5.4272-1.8432-5.4272-2.1504 0-1.9456 26.4192 7.8848 37.888 14.1312 9.728 5.3248 23.552 14.6432 30.208 20.3776 12.8 11.0592 28.9792 29.2864 31.232 35.2256 0.6144 1.536 3.072 6.0416 5.5296 10.1376 10.24 16.7936 17.5104 34.6112 21.6064 52.8384 0.9216 4.1984 2.1504 8.4992 2.6624 9.4208 0.512 1.024 0.9216 3.1744 0.9216 4.9152 0 1.6384 0.512 3.072 1.1264 3.072 0.512 0 0.8192 0.4096 0.4096 0.9216-0.3072 0.512-0.1024 1.2288 0.512 1.6384 1.536 0.9216 1.2288 23.7568-0.4096 35.328-2.1504 15.1552-7.68 33.8944-14.4384 48.64-10.4448 23.1424-29.9008 44.6464-54.6816 60.7232-4.8128 3.1744-9.728 6.5536-10.752 7.5776-1.1264 1.024-2.56 1.8432-3.2768 1.8432-0.7168 0-1.4336 0.4096-1.6384 0.8192-0.512 1.1264-11.8784 6.0416-19.3536 8.2944-33.0752 9.9328-69.7344 6.4512-99.1232-9.216-12.8-6.8608-22.6304-14.336-32.9728-25.2928-6.5536-6.7584-7.68-7.7824-5.0176-3.8912 6.3488 8.9088 21.4016 21.6064 33.792 28.5696 8.192 4.608 7.3728 4.9152-1.3312 0.6144-21.4016-10.752-41.0624-30.208-51.712-50.9952-2.4576-4.8128-4.1984-7.68-3.7888-6.2464 1.4336 5.0176 9.0112 19.0464 14.336 26.624 9.9328 14.0288 26.9312 29.2864 41.7792 37.376 8.0896 4.5056 9.216 5.8368 1.536 1.9456-10.6496-5.3248-23.3472-14.9504-32.9728-24.9856-14.848-15.5648-22.3232-27.4432-28.5696-46.08-14.1312-41.5744-3.9936-85.1968 26.9312-115.5072 3.9936-3.8912 13.824-11.4688 14.9504-11.4688 0.4096 0 1.536-0.6144 2.3552-1.4336 2.6624-2.4576 19.1488-8.6016 27.2384-10.3424 14.336-2.9696 33.8944-1.3312 48.128 4.096 3.6864 1.3312 6.4512 2.048 6.144 1.536-2.9696-4.9152 15.5648 7.8848 22.016 15.1552 6.0416 6.656 11.776 15.6672 12.9024 20.0704 0.7168 2.9696 0.7168 2.9696-1.2288 1.024-1.1264-1.024-3.3792-3.8912-5.0176-6.3488-6.0416-9.0112-20.992-20.48-34.2016-26.2144-26.5216-11.6736-58.0608-6.8608-83.5584 12.4928-9.4208 7.2704-11.5712 9.3184-18.2272 18.1248-9.3184 12.3904-16.896 29.696-19.5584 44.9536-1.7408 10.0352-2.1504 23.1424-0.7168 23.1424 0.7168 0 0.9216 1.536 0.512 4.3008-0.4096 2.4576-0.3072 3.9936 0.2048 3.584 0.4096-0.4096 1.3312 0.9216 1.9456 3.072 0.9216 3.072 1.024 1.024 0.7168-10.1376-0.6144-19.8656 2.1504-34.9184 9.216-49.664 5.2224-10.8544 6.7584-11.8784 2.2528-1.536-4.096 9.6256-6.8608 19.968-6.0416 22.7328 0.4096 1.1264 0.3072 2.048-0.2048 2.048-0.9216 0-0.9216 25.3952 0 30.0032 0.3072 1.536 1.1264 5.5296 1.7408 8.8064 1.6384 9.0112 4.5056 16.6912 10.24 27.2384 2.7648 5.2224 4.7104 9.8304 4.3008 10.24-0.4096 0.512-0.2048 0.512 0.4096 0.2048 0.7168-0.4096 2.9696 1.8432 5.3248 5.2224 3.9936 5.632 16.5888 18.8416 16.5888 17.3056 0-0.3072-2.56-3.3792-5.7344-6.5536-5.4272-5.5296-12.288-14.2336-14.1312-17.7152-0.4096-0.8192 0.9216 0.4096 2.9696 2.7648 2.048 2.4576 4.3008 4.4032 4.9152 4.4032 0.7168 0 3.7888 2.56 6.8608 5.7344 7.7824 7.8848 15.9744 13.4144 29.184 19.6608 35.9424 16.896 74.24 16.0768 111.7184-2.4576 29.7984-14.848 50.4832-38.1952 63.8976-72.0896 7.2704-18.3296 8.4992-25.6 8.4992-48.128 0-29.0816-2.9696-43.8272-13.4144-67.584-12.0832-27.5456-31.9488-51.4048-56.6272-67.7888-22.528-14.9504-43.1104-23.6544-66.3552-27.9552-40.5504-7.4752-75.5712-3.1744-112.7424 14.0288-6.4512 2.9696-21.504 11.8784-21.504 12.6976 0 1.024 2.048 0.3072 3.4816-1.2288 0.9216-0.8192 1.6384-1.3312 1.6384-1.024 0 0.3072 2.3552-0.8192 5.12-2.4576 2.8672-1.7408 5.632-3.072 6.144-3.072 0.4096 0 1.024-0.3072 1.2288-0.8192 0.7168-1.6384 21.9136-10.3424 26.9312-11.0592 1.1264-0.1024 2.048-0.3072 2.048-0.4096 0-0.1024 1.6384-0.4096 3.584-0.6144 1.9456-0.1024 8.9088-1.2288 15.36-2.3552 6.4512-1.1264 14.1312-2.048 16.896-1.9456h5.12l-5.12 1.1264c-2.7648 0.512-5.3248 1.3312-5.632 1.6384-0.3072 0.4096-5.3248 1.7408-11.264 3.072-24.064 5.12-45.9776 14.336-62.464 26.112-48.2304 34.304-77.4144 79.6672-85.2992 132.7104-4.096 27.7504-3.9936 50.3808 0.4096 75.264 2.6624 15.1552 11.5712 41.5744 18.8416 55.7056 8.0896 15.872 26.624 40.448 43.008 57.0368 14.0288 14.2336 21.2992 20.2752 36.864 30.4128 10.0352 6.656 34.304 18.3296 34.304 16.5888 0-0.2048-3.2768-2.1504-7.168-4.1984-7.5776-3.9936-9.1136-5.632-2.6624-2.9696 5.9392 2.4576 3.4816 0.1024-4.3008-4.096-3.7888-2.1504-7.0656-4.096-7.3728-4.5056-0.3072-0.4096-2.048-1.6384-3.8912-2.7648-1.8432-1.024-3.072-2.4576-2.7648-3.2768 0.2048-0.7168-0.1024-1.2288-0.8192-1.1264-0.6144 0.1024-1.9456 0.1024-2.7648 0-1.3312-0.1024-1.3312-0.3072-0.1024-1.024 1.9456-1.2288 5.5296 0.6144 4.608 2.1504-0.4096 0.7168-0.2048 0.8192 0.512 0.4096 0.7168-0.512 4.3008 0.8192 8.3968 2.9696 3.8912 2.048 7.0656 3.4816 7.0656 3.1744 0-0.2048 4.7104 1.7408 10.5472 4.4032 24.576 11.5712 50.8928 18.6368 74.9568 20.0704 5.632 0.4096 12.3904 0.8192 15.1552 1.024 2.6624 0.2048 4.8128-0.1024 4.8128-0.6144s-1.9456-1.024-4.3008-1.1264c-2.4576 0-4.8128-0.2048-5.4272-0.3072-0.512-0.1024-3.7888-0.512-7.168-0.9216s-6.8608-1.024-7.68-1.4336c-2.6624-1.024 10.24-1.9456 22.528-1.536 7.3728 0.2048 11.0592 0 9.728-0.512-1.1264-0.512-5.7344-1.024-10.24-1.1264-11.8784-0.3072-35.0208-3.7888-48.64-7.3728-18.944-5.0176-34.0992-11.4688-54.784-23.2448-6.656-3.7888-23.04-15.2576-25.088-17.5104-0.3072-0.3072-3.2768-2.9696-6.656-5.7344-8.4992-7.0656-21.0944-20.0704-20.7872-21.504 0.2048-0.6144 0-1.024-0.3072-1.024-1.1264 0-5.0176-3.7888-5.0176-4.9152 0-0.512 0.8192-0.3072 1.8432 0.4096 1.536 1.3312 1.6384 1.2288 0.3072-0.3072-0.7168-1.024-1.7408-1.536-2.2528-1.3312-1.024 0.7168-3.1744-3.072-2.1504-4.096 0.4096-0.3072 0-0.512-0.8192-0.3072-0.9216 0.2048-1.536-0.4096-1.536-1.4336 0-1.024-1.024-2.56-2.3552-3.4816-1.2288-0.8192-2.048-1.9456-1.7408-2.4576 0.3072-0.512-0.4096-2.56-1.6384-4.5056-2.3552-4.096-3.6864-5.0176-1.9456-1.4336 1.1264 2.3552 1.1264 2.3552-0.512 0.3072-0.9216-1.1264-2.1504-2.9696-2.7648-4.096-1.024-1.8432-1.024-1.9456 0.512-0.6144 1.1264 0.9216 0.8192-0.3072-1.024-3.584-2.9696-5.5296-3.9936-6.9632-3.072-4.1984 0.4096 1.1264 0.3072 1.6384-0.4096 1.2288-0.6144-0.4096-0.8192-1.4336-0.512-2.2528 0.3072-0.8192-0.512-3.8912-1.9456-6.7584-3.4816-7.5776-9.4208-24.2688-12.288-35.0208-9.8304-37.0688-7.68-79.5648 5.7344-112.64 2.3552-5.632 4.3008-10.8544 4.3008-11.5712 0-0.6144 0.4096-1.2288 0.9216-1.2288s0.6144-0.512 0.3072-1.024c-0.3072-0.6144-0.1024-1.024 0.512-1.024s0.9216-0.4096 0.6144-0.9216c-0.4096-0.512-0.2048-1.1264 0.4096-1.3312 0.6144-0.2048 1.2288-1.3312 1.536-2.6624 0.2048-1.2288 3.8912-7.5776 8.2944-14.1312 7.7824-11.8784 23.1424-28.5696 38.8096-42.2912 3.3792-2.9696 5.4272-5.0176 4.608-4.7104-0.8192 0.4096-0.6144 0 0.4096-0.9216 1.024-0.8192 2.3552-1.3312 2.9696-0.9216 0.6144 0.3072 0.7168 0.2048 0.4096-0.3072-0.512-0.9216 12.1856-9.0112 21.2992-13.5168 6.0416-2.9696 22.6304-8.0896 34.6112-10.6496 13.824-2.9696 42.0864-3.1744 57.5488-0.4096 28.5696 5.12 52.736 17.408 72.3968 36.864 5.2224 5.12 10.24 10.24 11.0592 11.3664 16.0768 21.2992 24.064 39.3216 28.0576 63.488 2.8672 17.3056 0.9216 40.7552-4.608 55.808-3.2768 8.8064-11.0592 23.6544-14.7456 28.16-11.4688 13.9264-29.696 29.7984-39.424 34.4064-18.2272 8.704-43.1104 12.1856-60.6208 8.6016-25.4976-5.2224-46.6944-20.7872-57.5488-42.1888-7.7824-15.4624-8.9088-35.6352-2.9696-52.6336 6.4512-18.7392 18.6368-31.6416 33.9968-36.1472 7.7824-2.2528 19.968-2.1504 25.2928 0.3072 7.168 3.2768 6.7584 4.5056-1.2288 3.584-15.6672-1.7408-29.696 0.1024-36.1472 4.8128-7.0656 5.12-18.432 28.672-18.5344 38.2976 0 2.6624 0.3072 3.584 0.9216 2.6624 0.7168-1.1264 0.9216-1.1264 1.4336 0 0.512 1.2288 0.8192 1.1264 1.6384-0.1024 0.512-0.8192 1.7408-2.4576 2.56-3.584 1.536-2.048 1.536-2.048 1.6384 0.2048 0 1.2288 0.512 2.56 1.024 2.8672 0.6144 0.3072 1.024-0.1024 1.024-0.9216 0-6.3488 10.6496-23.1424 16.6912-26.4192 2.1504-1.1264 2.1504-1.1264 0.4096 1.3312-0.9216 1.3312-2.4576 3.4816-3.3792 4.8128-0.9216 1.2288-1.8432 3.7888-2.048 5.632-0.2048 1.8432-0.6144 3.7888-0.8192 4.5056-0.3072 0.7168 0.1024 1.024 1.024 0.6144 1.7408-0.6144 1.7408-0.9216 0 4.9152-0.9216 2.8672-1.4336 9.3184-1.4336 15.872 0 10.3424 0.2048 11.5712 2.9696 16.7936 1.6384 3.1744 4.096 6.8608 5.3248 8.192 1.2288 1.4336 3.8912 4.7104 6.0416 7.2704 2.1504 2.7648 6.2464 5.9392 9.9328 7.9872 7.5776 3.9936 9.0112 5.8368 4.096 4.9152-6.9632-1.2288 4.7104 3.1744 12.9024 4.9152 11.3664 2.3552 21.1968 1.9456 31.8464-1.1264 15.4624-4.4032 27.8528-12.288 40.1408-25.4976 5.8368-6.2464 6.9632-7.168 5.12-3.9936-1.2288 2.1504-6.144 7.8848-10.752 12.6976-9.4208 9.8304-21.9136 18.0224-32.0512 21.0944-3.3792 1.024-6.144 2.2528-6.144 2.7648 0 0.4096 0.8192 0.6144 1.8432 0.3072 0.9216-0.3072 3.2768-0.8192 5.2224-1.1264 8.9088-1.536 28.672-11.8784 32.1536-16.896 0.8192-1.2288 2.048-1.9456 2.6624-1.6384 1.024 0.6144 6.2464-3.584 6.2464-5.12 0-0.4096-1.4336 0.512-3.2768 2.2528-3.584 3.1744-2.2528 1.1264 2.8672-4.8128 7.8848-9.0112 15.0528-22.6304 18.6368-35.328 1.7408-6.4512 1.9456-8.8064 1.1264-23.04-0.9216-17.6128-1.8432-23.2448-5.632-35.2256-5.632-17.3056-16.4864-34.5088-30.4128-48.128-21.0944-20.48-43.2128-30.0032-77.5168-33.28l-9.728-0.9216 10.24 0.4096c12.1856 0.512 21.1968 1.9456 30.1056 4.7104 3.584 1.024 7.5776 1.7408 8.704 1.4336 1.7408-0.512 1.8432-0.4096 0.6144 0.512-1.2288 0.9216-1.024 1.024 0.9216 0.512 1.3312-0.4096 2.1504-0.3072 1.8432 0.2048-0.3072 0.512 2.048 2.2528 5.2224 3.7888 18.7392 9.1136 37.7856 25.088 48.2304 40.5504 5.0176 7.3728 9.728 16.0768 11.3664 20.8896 0.6144 2.048 1.4336 3.584 1.7408 3.2768 1.3312-1.2288-6.2464-17.7152-11.9808-26.2144-4.1984-6.2464-18.1248-21.6064-19.2512-21.1968-1.3312 0.4096-7.2704-4.7104-6.656-5.7344 0.3072-0.6144 0.1024-0.7168-0.512-0.3072-1.4336 0.9216-5.8368-1.9456-5.8368-3.7888 0-0.6144-0.8192-1.1264-1.8432-0.9216-1.024 0.2048-1.6384-0.3072-1.536-0.9216 0.2048-0.7168-0.8192-1.3312-2.2528-1.3312-1.4336-0.1024-2.56-0.6144-2.56-1.3312 0-0.6144-0.4096-1.536-0.9216-2.048s-0.6144-0.3072-0.2048 0.4096c1.024 1.8432-0.6144 1.6384-3.072-0.2048-1.9456-1.536-1.9456-1.536 0.1024-1.024 1.1264 0.3072-1.6384-1.3312-6.144-3.584-11.264-5.632-26.112-9.3184-38.4-9.5232-5.3248-0.1024-10.0352-0.7168-10.4448-1.2288-0.512-0.6144-0.8192-0.512-0.8192 0.2048 0 0.9216-2.1504 1.3312-7.5776 1.3312-26.3168 0-58.4704 12.0832-81.5104 30.5152-21.6064 17.408-38.1952 41.6768-48.128 70.2464-5.3248 15.5648-7.168 26.9312-7.8848 49.4592-0.6144 19.5584 3.4816 41.8816 11.264 61.44 1.4336 3.4816 2.3552 6.4512 2.1504 6.7584-1.4336 1.4336 19.968 37.5808 22.3232 37.5808 0.4096 0 0.8192 0.7168 0.8192 1.536s0.7168 1.536 1.536 1.536 1.536 0.4096 1.536 1.024c0 1.024 28.2624 29.696 29.2864 29.696 0.3072 0-0.8192-1.2288-2.3552-2.6624l-2.8672-2.56 3.2768 2.2528c1.8432 1.2288 2.9696 2.7648 2.6624 3.584-0.3072 0.8192 0.1024 1.4336 1.024 1.4336 0.8192 0 1.7408 0.7168 2.048 1.536 0.3072 0.8192 1.536 1.2288 2.56 1.024 1.3312-0.2048 1.9456 0.2048 1.8432 1.2288 0 0.9216 0.8192 1.7408 1.8432 1.9456 1.024 0.1024 2.2528 0.8192 2.7648 1.536 0.4096 0.7168 1.536 1.4336 2.56 1.536 1.024 0.2048 2.6624 1.3312 3.584 2.56 0.9216 1.2288 2.1504 1.9456 2.7648 1.536 0.512-0.3072 1.3312 0.1024 1.6384 1.024 0.3072 0.8192 1.1264 1.4336 1.8432 1.3312 2.7648-0.3072 3.9936 0.1024 3.2768 1.3312-0.4096 0.7168-0.3072 0.8192 0.4096 0.4096s1.2288-0.3072 1.2288 0.3072 0.7168 0.7168 1.7408 0.4096c1.1264-0.4096 1.4336-0.3072 0.9216 0.512-0.512 0.8192-0.1024 1.024 1.024 0.512 1.2288-0.4096 1.536-0.3072 1.024 0.512s-0.2048 1.024 0.8192 0.6144c2.3552-0.9216 2.1504-1.2288-3.1744-3.6864-2.7648-1.2288-5.8368-3.072-6.9632-4.1984-1.1264-1.024 2.8672 0.4096 8.704 3.1744 26.5216 12.4928 53.9648 18.3296 85.504 18.432 8.4992 0 19.7632-0.6144 25.088-1.4336 5.3248-0.8192 12.6976-1.8432 16.384-2.3552 16.7936-2.3552 57.7536-20.3776 69.8368-30.9248 1.2288-1.1264-1.7408 0.4096-6.8608 3.4816-5.0176 3.072-10.3424 5.9392-11.776 6.2464-2.2528 0.6144-2.1504 0.512 0.512-1.024 3.072-1.6384 5.3248-3.072 16.384-10.1376 3.3792-2.1504 6.656-3.8912 7.3728-3.8912 0.7168 0 1.024-0.3072 0.8192-0.7168-0.2048-0.4096 3.584-3.9936 8.4992-7.9872 4.9152-3.8912 10.9568-9.3184 13.5168-11.8784 4.3008-4.5056 7.168-5.9392 7.168-3.6864 0 0.9216-1.536 1.4336-3.3792 1.1264-0.512-0.1024-0.6144 0.3072-0.2048 0.9216 0.3072 0.6144-2.048 3.4816-5.3248 6.5536-3.2768 2.9696-7.5776 6.9632-9.5232 8.8064l-3.584 3.2768 4.608-3.3792c2.56-1.8432 6.2464-4.9152 8.3968-6.8608 2.2528-2.1504 4.1984-3.1744 5.0176-2.7648 0.8192 0.6144 1.024 0.4096 0.4096-0.4096-0.512-0.9216 1.3312-3.4816 5.2224-7.3728 3.2768-3.2768 5.632-6.2464 5.3248-6.656-0.4096-0.3072-2.048 0.9216-3.6864 2.7648-1.9456 2.1504-3.1744 2.8672-3.6864 2.1504-0.4096-0.7168 0.3072-1.7408 1.8432-2.4576 1.4336-0.6144 2.6624-1.536 2.6624-2.048s-0.6144-0.6144-1.2288-0.2048c-0.7168 0.4096-0.512-0.2048 0.6144-1.4336 1.024-1.2288 2.3552-2.048 3.072-1.9456 0.6144 0.1024 1.024-0.4096 0.8192-1.1264-0.1024-0.8192 0.2048-1.1264 0.7168-0.8192 0.8192 0.512 2.3552-1.7408 2.56-3.8912 0.1024-0.8192 3.6864-1.9456 3.6864-1.1264 0 0.1024-1.6384 2.048-3.584 4.1984-3.3792 3.8912-4.3008 5.5296-2.9696 5.5296 0.8192 0 0.9216-0.1024 10.24-12.3904 9.4208-12.5952 15.1552-22.1184 23.04-37.9904 3.4816-7.2704 6.5536-12.9024 6.8608-12.6976 0.2048 0.3072-1.7408 4.9152-4.3008 10.4448-2.56 5.4272-4.608 10.1376-4.4032 10.3424 0.8192 0.7168 12.0832-24.064 11.9808-26.2144-0.1024-0.3072-0.7168 0.512-1.536 1.9456-2.1504 3.7888-1.8432 2.4576 1.9456-8.704 1.9456-5.632 3.584-9.6256 3.584-9.0112 0.1024 0.7168-0.8192 4.096-2.048 7.5776-1.2288 3.3792-1.9456 6.4512-1.6384 6.656 1.6384 1.6384 9.8304-32.1536 11.9808-49.3568 1.536-12.0832 2.4576-28.672 1.4336-27.7504-0.4096 0.4096-0.9216 2.2528-1.024 4.096-1.536 24.7808-3.4816 40.0384-4.5056 36.9664-0.9216-2.4576-0.7168-12.3904 0.3072-13.312 0.4096-0.4096 0.4096-2.2528 0.1024-4.1984-0.3072-1.8432-0.3072-4.1984 0-5.12 1.2288-2.9696 1.2288-37.1712 0.1024-37.1712-0.512 0-0.4096-0.4096 0.4096-0.9216 1.1264-0.7168 1.2288-2.4576 0.6144-7.7824-0.512-4.7104-1.024-6.4512-1.6384-5.5296-0.6144 1.1264-0.9216 0.8192-0.9216-0.9216 0-1.3312 0.4096-2.1504 0.9216-1.8432 0.9216 0.6144-1.8432-15.872-4.5056-27.0336-2.2528-9.0112-7.5776-25.7024-9.1136-28.16-0.7168-1.1264-2.1504-4.4032-3.1744-7.168-3.6864-9.9328-15.9744-32.256-23.9616-43.52-1.7408-2.56-3.9936-5.7344-4.9152-7.168-3.7888-5.632-15.5648-19.456-23.8592-27.9552-8.6016-9.0112-11.9808-11.6736-13.0048-10.5472-0.3072 0.3072 0.512 1.024 1.8432 1.536s1.7408 1.024 0.9216 1.024c-0.8192 0-2.8672-1.1264-4.608-2.56-2.048-1.8432-2.3552-2.2528-0.8192-1.536 1.536 0.8192 2.4576 0.8192 2.8672 0.1024 0.4096-0.6144 0.2048-0.9216-0.2048-0.8192-0.512 0.2048-2.1504-1.024-3.584-2.6624-1.9456-2.2528-2.7648-2.6624-3.3792-1.6384-0.6144 0.9216-0.4096 1.1264 0.512 0.512 0.9216-0.6144 1.1264-0.4096 0.512 0.512-0.512 0.8192-0.4096 1.1264 0.3072 0.6144 0.6144-0.3072 1.3312-0.2048 1.6384 0.3072 1.536 2.3552-2.8672 0.1024-7.168-3.7888-3.072-2.7648-4.4032-4.608-3.8912-5.5296 0.6144-1.1264 0.512-1.1264-0.8192 0-1.3312 1.024-1.8432 1.024-2.4576 0.1024-0.512-0.8192-0.3072-1.024 0.7168-0.512 0.8192 0.4096 0.3072-0.2048-1.024-1.4336-1.4336-1.2288-3.072-2.8672-3.6864-3.7888-1.024-1.3312-1.4336-1.3312-2.048-0.3072-0.512 0.7168-0.4096 1.1264 0.1024 0.8192 0.512-0.3072 1.8432 0.6144 2.9696 2.1504 1.9456 2.6624 1.9456 2.6624 0 1.1264-2.56-1.8432-8.4992-8.0896-8.704-9.0112-0.3072-1.536-0.8192-1.3312-0.6144 0.2048 0.1024 0.9216 1.1264 2.3552 2.2528 3.2768 1.8432 1.536 1.8432 1.536-0.3072 0.4096-1.3312-0.6144-2.7648-1.9456-3.3792-3.072-0.6144-1.1264-1.4336-1.9456-1.8432-1.8432-0.4096 0.1024-2.6624-1.024-5.0176-2.56-2.4576-1.536-4.8128-2.7648-5.4272-2.7648-0.6144 0-1.024-0.7168-0.8192-1.6384 0.3072-1.536-8.0896-7.2704-9.1136-6.144-0.3072 0.2048 1.7408 1.6384 4.5056 3.072 2.6624 1.4336 4.3008 2.56 3.584 2.6624-1.8432 0-9.4208-4.9152-9.4208-6.2464 0-2.56-33.5872-15.9744-55.0912-21.9136-13.9264-3.8912-17.408-4.608-35.0208-7.2704-9.5232-1.3312-51.2-3.072-52.3264-2.048z m33.6896 7.3728c-0.3072 0.3072-11.1616 0.6144-23.9616 0.8192-12.9024 0.2048-20.6848 0-17.3056-0.4096 7.5776-0.8192 41.984-1.2288 41.2672-0.4096z m11.264 1.1264c-1.024 0.2048-2.6624 0.2048-3.584 0-1.024-0.3072-0.2048-0.512 1.7408-0.512s2.7648 0.2048 1.8432 0.512z m-62.464 1.024c-1.024 0.2048-2.8672 0.2048-4.096 0-1.3312-0.2048-0.512-0.4096 1.7408-0.4096 2.2528-0.1024 3.2768 0.1024 2.3552 0.4096z m71.68 0c-1.024 0.2048-2.8672 0.2048-4.096 0-1.3312-0.2048-0.512-0.4096 1.7408-0.4096 2.2528-0.1024 3.2768 0.1024 2.3552 0.4096z m-79.36 1.024c-0.7168 0.2048-1.9456 0.2048-2.56 0-0.7168-0.3072-0.2048-0.512 1.2288-0.512s1.9456 0.2048 1.3312 0.512z m50.8928-0.4096c-1.2288 1.1264-19.0464 2.2528-26.112 1.7408-3.584-0.3072-3.3792-0.4096 2.048-0.9216 8.6016-0.8192 24.6784-1.3312 24.064-0.8192z m35.1232 0.4096c-0.7168 0.2048-1.9456 0.2048-2.56 0-0.7168-0.3072-0.2048-0.512 1.2288-0.512s1.9456 0.2048 1.3312 0.512z m-91.648 1.024c-1.024 0.2048-2.6624 0.2048-3.584 0-1.024-0.3072-0.2048-0.512 1.7408-0.512s2.7648 0.2048 1.8432 0.512z m24.9856 0.512c-0.7168 0.7168-3.2768 1.4336-5.632 1.536-2.3552 0.2048-5.9392 0.512-7.8848 0.8192-10.24 1.4336-27.7504 4.5056-32.5632 5.632-2.9696 0.6144-5.632 1.024-5.9392 0.8192-1.3312-1.4336 29.3888-7.2704 48.7424-9.3184 1.9456-0.2048 3.7888-0.512 4.096-0.512 0.2048-0.1024-0.2048 0.4096-0.8192 1.024z m49.2544-0.512c-0.7168 0.2048-1.9456 0.2048-2.56 0-0.7168-0.3072-0.2048-0.512 1.2288-0.512s1.9456 0.2048 1.3312 0.512z m27.3408 0.3072c2.048 0.6144 2.1504 0.8192 0.512 0.8192-1.1264 0-3.1744-0.4096-4.608-0.8192-2.048-0.6144-2.1504-0.8192-0.512-0.8192 1.1264 0 3.1744 0.4096 4.608 0.8192z m-112.128 1.536c-5.5296 1.4336-9.4208 1.8432-8.4992 1.024 0.7168-0.7168 8.9088-2.3552 11.5712-2.3552 1.1264 0-0.2048 0.6144-3.072 1.3312z m95.6416-1.1264c-0.2048 0.2048-2.048 0.6144-3.9936 1.024-2.56 0.4096-3.1744 0.3072-2.048-0.4096 1.4336-0.9216 7.0656-1.536 6.0416-0.6144z m8.2944 1.024c0 0.2048-1.1264 0.6144-2.56 0.8192-1.3312 0.3072-2.2528 0.1024-1.9456-0.3072 0.512-0.9216 4.5056-1.3312 4.5056-0.512z m8.704 1.6384c2.7648 0.7168 2.7648 0.8192 0.512 0.8192-1.4336 0-3.6864-0.4096-5.12-0.8192-2.048-0.6144-2.1504-0.8192-0.512-0.8192 1.1264 0 3.4816 0.4096 5.12 0.8192z m-128 2.048c-3.3792 1.024-7.68 2.3552-9.4208 2.9696-1.8432 0.512-3.3792 0.6144-3.3792 0.1024 0-0.7168 2.3552-1.4336 12.288-4.1984 5.7344-1.536 6.2464-0.6144 0.512 1.1264z m139.264 0.4096c14.848 4.1984 19.7632 5.7344 23.04 7.2704 4.3008 1.9456 3.584 1.8432-15.872-3.9936-8.3968-2.56-14.6432-4.608-13.824-4.608 0.8192-0.1024 3.8912 0.6144 6.656 1.3312z m-157.2864 5.4272c0 1.024-0.3072 1.3312-0.512 0.6144-0.3072-0.7168-1.3312-0.9216-2.2528-0.6144-1.536 0.4096-1.536 0.3072-0.2048-0.6144 2.2528-1.536 3.072-1.4336 2.9696 0.6144z m14.4384-0.7168c-0.8192 0.512-2.2528 1.024-3.072 1.024-1.3312 0-1.3312-0.1024 0-1.024 0.8192-0.512 2.2528-1.024 3.072-1.024 1.3312 0 1.3312 0.1024 0 1.024z m-21.504 2.56c-1.4336 0.8192-3.2768 1.4336-4.096 1.4336-0.8192 0-0.1024-0.7168 1.536-1.4336 3.9936-1.8432 5.8368-1.8432 2.56 0z m14.336-0.512c-1.8432 1.2288-4.4032 1.3312-3.6864 0.2048 0.2048-0.4096 1.536-0.8192 2.8672-0.9216 1.8432-0.2048 1.9456 0 0.8192 0.7168z m156.672 0c-0.8192 0.512-1.9456 1.024-2.56 1.024-0.512 0-0.3072-0.512 0.512-1.024s2.048-1.024 2.56-1.024c0.6144 0 0.3072 0.512-0.512 1.024z m3.4816 1.2288c-0.512 0.8192 0 0.9216 1.4336 0.6144 1.4336-0.4096 2.048-0.2048 1.536 0.512-0.4096 0.6144 0.2048 0.8192 1.536 0.512 1.2288-0.4096 2.2528-0.2048 2.2528 0.4096 0 0.6144 0.9216 0.8192 2.048 0.512 1.3312-0.3072 1.8432-0.1024 1.3312 0.6144-0.4096 0.6144 0 0.8192 1.024 0.4096s1.7408-0.2048 1.7408 0.4096c0 0.6144 0.7168 0.9216 1.536 0.512 0.8192-0.3072 1.536-0.1024 1.536 0.512s0.6144 0.9216 1.2288 0.7168c0.7168-0.3072 1.9456 0.2048 2.7648 0.9216 0.7168 0.8192 2.048 1.2288 2.7648 0.9216 0.8192-0.3072 1.4336-0.2048 1.4336 0.3072s2.1504 1.6384 4.9152 2.6624c7.168 2.6624 36.0448 18.432 36.0448 19.6608 0 0.2048-0.3072 0.2048-0.7168 0-19.3536-11.1616-42.496-21.8112-59.0848-27.0336-5.632-1.8432-7.5776-2.8672-6.656-3.4816 1.9456-1.2288 2.2528-1.1264 1.3312 0.3072z m-168.3456 0.7168c0 0.512-0.9216 1.1264-2.048 1.4336-1.1264 0.3072-2.048 0.1024-2.048-0.3072 0-0.512 0.8192-1.1264 1.8432-1.3312 0.9216-0.3072 1.8432-0.512 2.048-0.6144 0.1024 0 0.2048 0.3072 0.2048 0.8192z m-13.312 1.1264c-0.8192 0.512-1.9456 1.024-2.56 1.024-0.512 0-0.3072-0.512 0.512-1.024s2.048-1.024 2.56-1.024c0.6144 0 0.3072 0.512-0.512 1.024z m7.68 0c0.3072 0.6144-0.1024 0.7168-0.9216 0.4096-0.9216-0.3072-1.6384-0.1024-1.6384 0.6144 0 0.6144-0.512 0.8192-1.1264 0.4096-0.8192-0.4096-0.7168-0.9216 0.2048-1.536 1.8432-1.1264 2.6624-1.1264 3.4816 0.1024z m205.312 4.7104c11.8784 4.8128 28.4672 13.4144 40.96 21.1968 6.7584 4.1984 26.112 19.2512 34.0992 26.624 6.656 6.0416 19.3536 19.968 27.4432 30.1056 11.0592 13.7216 24.4736 37.1712 33.28 58.1632 4.5056 10.9568 11.6736 36.9664 13.2096 48.128 0.4096 2.7648 1.024 5.5296 1.3312 6.144 0.3072 0.512 0.512 2.3552 0.3072 3.9936-0.1024 1.6384 0.1024 2.6624 0.7168 2.2528 2.2528-1.3312 3.7888 28.3648 2.3552 45.9776-3.072 37.5808-12.0832 66.56-29.4912 95.232-3.2768 5.4272-6.7584 11.3664-7.68 13.1072-1.024 1.8432-1.8432 2.8672-1.8432 2.3552 0-0.6144-0.6144-0.1024-1.4336 0.9216-0.8192 1.1264-1.2288 2.3552-1.024 2.7648 0.3072 0.512-0.1024 0.8192-1.024 0.8192-0.8192 0-1.6384 0.4096-1.8432 0.9216-0.512 1.3312-9.8304 12.0832-15.5648 18.0224-5.2224 5.3248-4.608 3.584 0.8192-2.3552 1.6384-1.7408 2.6624-3.2768 2.2528-3.2768-0.512 0-1.536 0.8192-2.2528 1.7408-0.7168 1.024-1.6384 1.536-2.048 1.024-0.4096-0.4096 0.3072-1.8432 1.6384-3.2768 1.3312-1.4336 2.1504-2.56 1.9456-2.56-0.3072 0-2.3552 1.9456-4.5056 4.3008-2.2528 2.3552-3.2768 3.6864-2.2528 2.9696 0.9216-0.8192 2.048-1.1264 2.3552-0.8192 0.3072 0.3072-0.4096 1.024-1.536 1.7408-1.2288 0.6144-2.1504 0.8192-2.1504 0.4096s-2.6624 1.7408-5.9392 4.8128c-7.8848 7.3728-10.9568 9.9328-17.6128 14.848-10.3424 7.5776-10.8544 7.2704-1.024-0.6144 5.4272-4.3008 23.8592-22.4256 30.208-29.696 14.9504-16.9984 24.7808-32.8704 36.864-59.8016 5.7344-12.8 11.5712-36.2496 14.336-57.4464 1.6384-12.8 1.3312-41.3696-0.512-54.0672-0.6144-4.4032-0.9216-9.3184-0.7168-10.752 0.2048-1.536 0.2048-2.048-0.1024-1.2288-0.7168 2.3552-4.5056-14.5408-3.7888-17.408 0.4096-1.7408 0.3072-2.1504-0.4096-1.1264s-1.1264 0.6144-1.6384-1.7408c-0.3072-1.8432-0.3072-3.7888 0.1024-4.4032 0.4096-0.7168 0.3072-0.9216-0.3072-0.6144-1.3312 0.8192-4.8128-10.0352-3.7888-11.6736 0.4096-0.7168 0.3072-0.9216-0.3072-0.6144-0.6144 0.4096-2.048-2.048-3.3792-5.7344-1.3312-3.4816-4.096-10.1376-6.3488-14.848-2.1504-4.608-3.6864-8.9088-3.2768-9.6256 0.4096-0.7168 0.3072-0.8192-0.512-0.4096-0.6144 0.4096-1.4336 0-1.8432-1.1264-0.4096-1.024-1.7408-3.584-3.072-5.632-2.6624-4.3008-3.1744-6.4512-0.8192-3.2768 0.8192 1.024 1.536 1.536 1.536 1.1264 0-0.4096-1.1264-1.9456-2.56-3.1744-1.4336-1.3312-2.8672-3.4816-3.072-4.8128-0.3072-1.2288-1.024-2.7648-1.6384-3.3792-0.9216-0.8192-1.024-0.8192-0.512 0.1024 1.7408 3.072-0.4096 1.024-2.9696-2.8672-1.536-2.3552-2.1504-3.8912-1.3312-3.4816 0.7168 0.4096-0.1024-0.512-1.8432-2.1504s-3.9936-4.096-5.12-5.5296c-1.9456-2.4576-1.9456-2.4576 0-1.024 1.9456 1.536 1.9456 1.4336 0.2048-1.3312-1.8432-2.7648-3.4816-3.9936-2.048-1.536 0.4096 0.8192 0.3072 1.024-0.2048 0.512s-1.024-1.3312-1.024-1.8432c-0.1024-0.512-0.2048-1.3312-0.3072-1.7408-0.512-3.584-28.4672-31.232-41.6768-41.2672-15.5648-11.776-35.5328-23.9616-37.4784-22.8352-0.512 0.3072-0.7168 0-0.6144-0.8192 0.2048-0.8192-0.6144-1.3312-1.9456-1.2288-1.2288 0-2.1504-0.3072-2.048-0.8192 0.2048-0.9216-19.2512-9.9328-21.504-10.0352-1.024 0-3.1744-2.048-2.1504-2.048 0.2048 0 6.656 2.56 14.1312 5.7344z m39.5264 27.136c0.3072 0.6144-0.512 0.3072-2.048-0.6144-1.4336-1.024-2.6624-1.9456-2.6624-2.2528 0-0.7168 3.9936 1.7408 4.7104 2.8672z m-327.0656 7.2704c-0.7168 0.7168-1.2288 0.8192-1.2288 0.2048 0-1.4336 1.2288-2.6624 1.9456-1.9456 0.2048 0.3072-0.1024 1.1264-0.7168 1.7408z m346.9312 7.68c0 0.2048-1.8432-1.024-4.096-2.7648-2.2528-1.7408-4.096-3.4816-4.096-3.7888 0-0.2048 1.8432 1.024 4.096 2.7648 2.2528 1.7408 4.096 3.4816 4.096 3.7888z m20.48 1.4336c1.1264 1.9456 1.024 2.048-1.024 0.9216-1.1264-0.6144-1.8432-1.536-1.536-2.1504 0.9216-1.3312 1.3312-1.1264 2.56 1.2288z m-15.7696 2.1504l2.9696 3.3792-3.2768-2.9696c-3.1744-2.8672-3.8912-3.6864-3.072-3.6864 0.2048 0 1.6384 1.536 3.3792 3.2768z m6.0416 5.7344c-0.3072 0.3072-1.1264 0-1.8432-0.7168-0.9216-1.024-0.8192-1.1264 0.6144-0.512 1.024 0.3072 1.536 0.9216 1.2288 1.2288zM677.888 315.392c0 0.512-0.512 1.024-1.1264 1.024-0.512 0-0.7168-0.512-0.4096-1.024 0.3072-0.6144 0.8192-1.024 1.1264-1.024 0.2048 0 0.4096 0.4096 0.4096 1.024z m-9.216 7.8848l7.68 7.9872-8.192-7.68c-4.5056-4.1984-8.2944-7.7824-8.6016-7.9872-0.2048-0.1024 0-0.2048 0.512-0.2048s4.4032 3.584 8.6016 7.8848z m22.9376 9.0112l3.8912 5.12-4.8128-5.12c-2.56-2.8672-6.144-6.9632-7.8848-9.216l-3.1744-4.096 3.9936 4.096c2.2528 2.2528 5.8368 6.3488 7.9872 9.216z m-12.1856 2.56c1.024 1.1264 1.6384 2.048 1.3312 2.048-0.3072 0-1.3312-0.9216-2.3552-2.048-1.024-1.1264-1.6384-2.048-1.3312-2.048 0.3072 0 1.3312 0.9216 2.3552 2.048z m-61.952 4.8128c0 0.2048-0.8192-0.1024-1.7408-0.6144-2.8672-1.7408-5.4272-3.8912-5.4272-4.608 0-0.4096 1.6384 0.512 3.584 2.048 1.9456 1.4336 3.584 2.8672 3.584 3.1744z m-133.8368-4.096c-0.7168 0.2048-2.1504 0.2048-3.072 0-1.024-0.3072-0.4096-0.512 1.2288-0.512 1.7408 0 2.4576 0.2048 1.8432 0.512z m37.888 2.048c-0.7168 0.2048-1.9456 0.2048-2.56 0-0.7168-0.3072-0.2048-0.512 1.2288-0.512s1.9456 0.2048 1.3312 0.512z m6.144 1.024c-0.7168 0.2048-2.1504 0.2048-3.072 0-1.024-0.3072-0.4096-0.512 1.2288-0.512 1.7408 0 2.4576 0.2048 1.8432 0.512z m172.4416 4.7104c4.3008 6.3488 4.9152 7.7824 1.9456 4.3008-3.072-3.584-7.168-10.1376-5.8368-9.216 0.6144 0.3072 2.3552 2.56 3.8912 4.9152z m-154.0096-0.3072c16.0768 5.3248 33.4848 14.336 47.2064 24.4736 7.7824 5.7344 22.528 19.7632 27.5456 26.2144 4.3008 5.4272 0.8192 2.6624-7.3728-6.0416-20.0704-20.992-44.8512-35.9424-76.3904-46.08-5.2224-1.6384-6.7584-2.4576-4.096-2.048 2.2528 0.3072 8.192 1.9456 13.1072 3.4816z m84.0704 6.7584c7.0656 6.0416 23.9616 25.8048 27.648 32.3584 2.56 4.608 1.024 2.9696-7.0656-7.3728-6.656-8.4992-19.5584-22.3232-28.0576-29.9008-2.3552-2.048-4.1984-4.096-4.1984-4.5056 0-0.4096 1.024 0.1024 2.3552 1.2288 1.2288 1.1264 5.4272 4.8128 9.3184 8.192z m211.968 4.7104c1.4336 3.8912 2.3552 6.9632 2.1504 6.9632-0.2048 0 0.2048 1.8432 1.024 4.096s1.1264 4.096 0.7168 4.096c-0.6144 0-5.12-13.0048-5.9392-16.9984-0.1024-0.6144-0.512-2.2528-0.9216-3.584-1.536-4.8128 0.4096-1.3312 2.9696 5.4272z m-134.5536-0.1024c1.536 2.8672 0.512 2.3552-1.536-0.7168-0.9216-1.536-1.2288-2.3552-0.6144-2.048 0.6144 0.4096 1.6384 1.6384 2.1504 2.7648z m5.8368 9.6256c2.1504 4.3008 0.1024 1.9456-2.6624-3.072-1.3312-2.2528-1.536-3.1744-0.6144-2.048s2.3552 3.3792 3.2768 5.12z m4.1984 8.192c-0.3072 0.3072-0.9216-0.2048-1.2288-1.2288-0.6144-1.4336-0.512-1.536 0.512-0.6144 0.7168 0.7168 1.024 1.536 0.7168 1.8432z m130.2528 2.9696c0 2.6624-0.6144 1.8432-1.4336-1.9456-0.512-2.2528-0.4096-2.6624 0.4096-1.536 0.512 0.8192 1.024 2.4576 1.024 3.4816zM720.7936 377.856c1.1264 2.4576 1.1264 2.4576-0.3072 0.6144-0.9216-1.1264-1.6384-2.4576-1.6384-3.072 0-1.2288 0.512-0.7168 1.9456 2.4576z m4.096 8.704c0 0.512-0.6144-0.1024-1.4336-1.536-0.8192-1.4336-1.4336-3.072-1.4336-3.584 0-0.6144 0.6144 0.1024 1.4336 1.536 0.8192 1.4336 1.4336 2.9696 1.4336 3.584z m-240.8448-1.9456c-0.3072 0.3072-1.2288 0.4096-1.9456 0.1024-0.8192-0.3072-0.512-0.6144 0.6144-0.6144 1.1264-0.1024 1.7408 0.2048 1.3312 0.512z m245.4528 12.0832c1.536 3.8912 2.56 7.168 2.3552 7.4752-0.3072 0.2048-0.9216-0.9216-1.536-2.4576-0.512-1.536-2.048-5.4272-3.2768-8.4992-1.2288-3.072-1.7408-5.2224-1.2288-4.608 0.512 0.512 2.1504 4.1984 3.6864 8.0896zM546.816 392.704c1.4336 0.8192 2.1504 1.4336 1.536 1.4336-0.512 0-2.1504-0.6144-3.584-1.4336-1.4336-0.8192-2.048-1.4336-1.536-1.4336 0.6144 0 2.1504 0.6144 3.584 1.4336zM441.344 395.264c-0.8192 0.512-1.9456 1.024-2.56 1.024-0.512 0-0.3072-0.512 0.512-1.024s2.048-1.024 2.56-1.024c0.6144 0 0.3072 0.512-0.512 1.024z m16.384-0.6144c0 0.3072-1.7408 1.024-3.7888 1.7408-5.4272 1.7408-22.016 9.728-27.2384 13.0048-6.5536 4.1984-18.432 12.8-20.1728 14.5408-0.8192 0.9216-3.1744 2.9696-5.12 4.608s-0.8192 0.2048 2.56-3.1744c10.4448-10.3424 20.2752-17.5104 32.256-23.552 10.752-5.3248 21.504-8.9088 21.504-7.168z m209.408 2.6624c0.9216 1.6384 1.3312 3.072 1.1264 3.072-0.3072 0-1.2288-1.4336-2.1504-3.072-0.9216-1.7408-1.3312-3.072-1.1264-3.072 0.3072 0 1.2288 1.3312 2.1504 3.072z m-229.888-0.6144c0 0.2048-0.7168 0.7168-1.6384 1.024-0.8192 0.3072-1.2288 0.2048-0.9216-0.4096 0.6144-1.024 2.56-1.4336 2.56-0.6144z m19.1488 1.3312c-0.9216 0.2048-1.4336 0.9216-1.1264 1.536 0.4096 0.6144 0.2048 0.8192-0.4096 0.4096-0.6144-0.3072-1.4336-0.2048-1.7408 0.4096-0.4096 0.6144-1.6384 0.8192-2.7648 0.4096-1.2288-0.3072-1.8432-0.2048-1.536 0.3072 0.7168 1.1264-4.096 3.6864-5.4272 2.8672-0.512-0.3072-1.024-0.2048-1.2288 0.2048-0.1024 0.512-2.8672 2.1504-5.9392 3.7888-5.632 2.9696-13.824 8.2944-15.9744 10.3424-0.6144 0.512-3.4816 2.9696-6.3488 5.4272-10.6496 9.0112-24.7808 25.4976-30.4128 35.5328-4.9152 8.8064-11.264 25.3952-14.2336 37.0688-3.8912 15.4624-5.0176 27.0336-4.5056 44.8512 0.3072 10.752 0.1024 15.2576-0.512 13.2096-0.512-1.6384-1.024-11.776-1.1264-22.4256-0.1024-15.5648 0.3072-21.1968 1.8432-28.16 8.704-39.8336 30.4128-72.0896 62.3616-92.5696 3.2768-2.048 6.3488-3.6864 6.8608-3.6864 0.6144 0 1.024-0.512 1.024-1.1264 0-0.512 0.512-0.7168 1.024-0.4096 0.6144 0.3072 1.024 0.1024 1.024-0.512s1.2288-1.6384 2.8672-2.2528c9.0112-3.6864 15.2576-5.8368 16.5888-5.7344 1.024 0 0.9216 0.2048-0.3072 0.512z m92.0576 0.8192c1.8432 1.3312 1.8432 1.4336-0.4096 0.8192-1.2288-0.3072-2.56-0.9216-2.8672-1.4336-0.8192-1.4336 1.024-1.1264 3.2768 0.6144zM436.224 400.384c-0.8192 0.512-1.9456 1.024-2.56 1.024-0.512 0-0.3072-0.512 0.512-1.024s2.048-1.024 2.56-1.024c0.6144 0 0.3072 0.512-0.512 1.024z m119.296 2.1504c2.048 1.2288 3.4816 2.3552 3.2768 2.6624-0.512 0.4096-7.8848-3.6864-7.8848-4.4032 0-0.7168 0.9216-0.4096 4.608 1.7408z m-124.416 0.4096c-0.7168 0.8192-1.8432 1.536-2.4576 1.536-0.6144 0-0.2048-0.7168 0.8192-1.536 2.56-1.9456 3.2768-1.9456 1.6384 0z m239.4112 1.024c-0.3072 0.3072-0.9216-0.2048-1.2288-1.2288-0.6144-1.4336-0.512-1.536 0.512-0.6144 0.7168 0.7168 1.024 1.536 0.7168 1.8432z m-247.0912 0.3072c-2.7648 2.4576-11.8784 8.3968-11.264 7.4752 0.6144-1.1264 10.8544-8.2944 11.6736-8.2944 0.3072 0 0.1024 0.4096-0.4096 0.8192z m3.584 0.7168c0 0.7168-7.5776 5.632-8.704 5.632-0.512 0 1.024-1.4336 3.584-3.072 4.8128-3.1744 5.12-3.3792 5.12-2.56z m308.736 8.8064c1.536 4.5056 2.56 8.4992 2.2528 8.704-0.4096 0.512-5.8368-14.7456-5.8368-16.4864 0-2.048 1.2288 0.6144 3.584 7.7824z m-62.1568-3.6864c-0.3072 0.3072-0.9216-0.2048-1.2288-1.2288-0.6144-1.4336-0.512-1.536 0.512-0.6144 0.7168 0.7168 1.024 1.536 0.7168 1.8432zM410.624 412.9792c0 0.2048-1.536 1.6384-3.2768 3.3792l-3.3792 2.9696 2.9696-3.3792c2.8672-3.072 3.6864-3.7888 3.6864-2.9696z m161.792 4.3008c1.3312 1.4336 2.1504 2.56 1.8432 2.56-0.2048 0-1.536-1.1264-2.8672-2.56-1.3312-1.4336-2.1504-2.56-1.8432-2.56 0.2048 0 1.536 1.1264 2.8672 2.56z m-171.2128 4.4032c-2.2528 2.6624-4.4032 5.12-13.6192 15.0528-2.048 2.2528-3.3792 3.3792-2.9696 2.56 1.1264-2.048 4.7104-6.2464 12.0832-14.0288 6.2464-6.656 8.8064-8.704 4.5056-3.584z m337.8176 4.5056c-0.3072 0.8192-0.6144 0.512-0.6144-0.6144-0.1024-1.1264 0.2048-1.7408 0.512-1.3312 0.3072 0.3072 0.4096 1.2288 0.1024 1.9456z m-154.2144 3.584c1.3312 1.6384 1.2288 1.7408-0.3072 0.4096-1.024-0.7168-1.8432-1.536-1.8432-1.7408 0-0.8192 0.8192-0.3072 2.1504 1.3312z m155.2384 0.512c-0.3072 0.8192-0.6144 0.512-0.6144-0.6144-0.1024-1.1264 0.2048-1.7408 0.512-1.3312 0.3072 0.3072 0.4096 1.2288 0.1024 1.9456z m-152.1664 3.584c1.3312 1.6384 1.2288 1.7408-0.3072 0.4096-1.024-0.7168-1.8432-1.536-1.8432-1.7408 0-0.8192 0.8192-0.3072 2.1504 1.3312z m154.2144 4.608c-0.3072 0.8192-0.6144 0.512-0.6144-0.6144-0.1024-1.1264 0.2048-1.7408 0.512-1.3312 0.3072 0.3072 0.4096 1.2288 0.1024 1.9456zM382.7712 443.392c-0.7168 1.024-1.4336 1.7408-1.7408 1.536-0.4096-0.4096 1.8432-3.584 2.56-3.584 0.2048 0-0.1024 0.9216-0.8192 2.048z m360.3456 1.2288c-0.3072 0.8192-0.6144 0.512-0.6144-0.6144-0.1024-1.1264 0.2048-1.7408 0.512-1.3312 0.3072 0.3072 0.4096 1.2288 0.1024 1.9456z m-55.296 11.264c-0.3072 0.7168-0.512 0.2048-0.512-1.2288s0.2048-1.9456 0.512-1.3312c0.2048 0.7168 0.2048 1.9456 0 2.56z m1.024 5.632c-0.3072 1.024-0.512 0.4096-0.512-1.2288 0-1.7408 0.2048-2.4576 0.512-1.8432 0.2048 0.7168 0.2048 2.1504 0 3.072z m57.344 4.608c-0.2048 1.3312-0.4096 0.512-0.4096-1.7408-0.1024-2.2528 0.1024-3.2768 0.4096-2.3552 0.2048 1.024 0.2048 2.8672 0 4.096z m-2.048-2.048c-0.3072 0.8192-0.6144 0.512-0.6144-0.6144-0.1024-1.1264 0.2048-1.7408 0.512-1.3312 0.3072 0.3072 0.4096 1.2288 0.1024 1.9456z m-53.76 3.8912c0.2048 2.2528 0 4.096-0.4096 4.096-0.512 0-0.8192-1.8432-0.8192-4.096s0.2048-4.096 0.4096-4.096 0.6144 1.8432 0.8192 4.096z m-0.2048 43.52c-7.68 59.5968-41.1648 107.4176-91.9552 131.1744-10.6496 5.0176-15.5648 6.8608-16.1792 6.3488-0.2048-0.3072 1.024-1.1264 2.8672-1.8432 8.4992-3.3792 26.0096-12.5952 32.768-17.3056 21.7088-14.9504 40.1408-36.1472 52.736-60.5184 14.1312-27.2384 19.456-49.3568 19.968-81.8176l0.2048-14.9504 0.4096 14.848c0.2048 8.192-0.2048 18.944-0.8192 24.064z m54.9888-33.0752c-0.3072 0.8192-0.6144 0.512-0.6144-0.6144-0.1024-1.1264 0.2048-1.7408 0.512-1.3312 0.3072 0.3072 0.4096 1.2288 0.1024 1.9456z m0.2048 56.4224c0 2.1504-0.1024 2.1504-0.9216 0.2048-1.2288-2.8672-1.2288-3.7888 0-3.072 0.6144 0.3072 1.024 1.6384 0.9216 2.8672z m-1.536 7.2704c-0.3072 2.1504-0.8192 3.584-1.1264 3.2768-0.2048-0.2048-0.1024-2.048 0.3072-4.096 0.3072-2.1504 0.8192-3.584 1.1264-3.2768 0.2048 0.2048 0.1024 2.048-0.3072 4.096z m-1.7408 6.9632c-0.3072 0.8192-0.6144 0.512-0.6144-0.6144-0.1024-1.1264 0.2048-1.7408 0.512-1.3312 0.3072 0.3072 0.4096 1.2288 0.1024 1.9456z m165.888 15.36c-0.3072 0.8192-0.6144 0.512-0.6144-0.6144-0.1024-1.1264 0.2048-1.7408 0.512-1.3312 0.3072 0.3072 0.4096 1.2288 0.1024 1.9456z m8.8064 24.8832c-0.3072 0.9216-0.8192 1.4336-1.024 1.1264-0.3072-0.3072-0.2048-0.9216 0.2048-1.536 0.9216-1.6384 1.536-1.3312 0.8192 0.4096z m-217.1904 34.5088c-0.7168 0.7168-1.2288 0.8192-1.2288 0.2048 0-1.4336 1.2288-2.6624 1.9456-1.9456 0.2048 0.3072-0.1024 1.1264-0.7168 1.7408z m-495.104 2.048c-0.3072 0.8192-0.6144 0.512-0.6144-0.6144-0.1024-1.1264 0.2048-1.7408 0.512-1.3312 0.3072 0.3072 0.4096 1.2288 0.1024 1.9456z m2.6624 7.68c0.9216 2.9696 1.2288 5.4272 0.8192 5.4272-0.8192 0-3.1744-7.68-3.1744-10.3424 0-2.1504 0.7168-0.6144 2.3552 4.9152z m660.1728-2.9696c0 0.512-0.7168 1.7408-1.536 2.8672-1.4336 1.8432-1.4336 1.7408-0.4096-0.9216 1.2288-2.7648 1.9456-3.4816 1.9456-1.9456z m-261.12 11.264c0 1.8432-19.0464 10.1376-31.0272 13.4144-10.1376 2.8672-12.0832 3.1744-23.2448 3.6864-9.728 0.4096-9.728 0.4096-2.3552-0.512 12.6976-1.6384 31.3344-6.7584 43.9296-12.1856 14.0288-5.9392 12.6976-5.4272 12.6976-4.4032zM494.08 643.072c0.3072 0.512 0.1024 1.024-0.4096 1.024-0.6144 0-1.1264-0.512-1.1264-1.024 0-0.6144 0.2048-1.024 0.4096-1.024 0.3072 0 0.8192 0.4096 1.1264 1.024z m-5.12 5.2224c6.2464 2.1504 10.6496 3.8912 9.8304 3.9936-2.048 0-19.2512-5.9392-22.4256-7.7824-1.536-0.8192-1.8432-1.2288-0.7168-0.8192 1.1264 0.4096 7.168 2.4576 13.312 4.608z m16.384-2.6624c3.3792 0.7168 5.12 1.4336 3.7888 1.4336-3.2768 0.1024-11.776-2.048-13.0048-3.2768-0.7168-0.7168-0.3072-0.8192 1.024-0.3072 1.1264 0.4096 4.8128 1.4336 8.192 2.1504z m168.96 2.56c-1.6384 1.6384-3.072 2.8672-3.3792 2.6624-0.512-0.6144 4.1984-5.632 5.3248-5.632 0.6144-0.1024-0.3072 1.2288-1.9456 2.9696z m-94.9248 2.048c-0.9216 0.6144-6.4512 2.1504-12.288 3.584-12.0832 2.8672-29.184 4.4032-41.2672 3.4816-7.0656-0.512-6.2464-0.6144 6.144-0.8192 7.8848-0.1024 16.1792-0.4096 18.432-0.7168 6.7584-0.8192 24.4736-4.608 26.112-5.632 0.8192-0.4096 2.2528-0.8192 3.072-0.8192 1.2288 0 1.2288 0.1024-0.2048 0.9216z m-75.264 2.7648c-0.7168 0.2048-1.9456 0.2048-2.56 0-0.7168-0.3072-0.2048-0.512 1.2288-0.512s1.9456 0.2048 1.3312 0.512z m6.656 1.024c-1.024 0.2048-2.6624 0.2048-3.584 0-1.024-0.3072-0.2048-0.512 1.7408-0.512s2.7648 0.2048 1.8432 0.512z m7.68 1.024c-0.7168 0.2048-2.1504 0.2048-3.072 0-1.024-0.3072-0.4096-0.512 1.2288-0.512 1.7408 0 2.4576 0.2048 1.8432 0.512z m337.408 24.7808c-1.8432 2.7648-3.584 4.9152-3.6864 4.7104-0.512-0.4096 5.8368-9.728 6.5536-9.728 0.2048 0-1.024 2.2528-2.8672 5.0176z m-2.4576-0.4096c-0.9216 1.4336-1.8432 2.56-2.1504 2.56-0.512 0 0.512-1.8432 2.048-3.8912 1.7408-2.2528 1.8432-1.3312 0.1024 1.3312z m-31.3344 28.672c-0.3072 0.3072-0.9216-0.2048-1.2288-1.2288-0.6144-1.4336-0.512-1.536 0.512-0.6144 0.7168 0.7168 1.024 1.536 0.7168 1.8432z m-1.8432 1.9456c0 0.2048-0.8192 1.024-1.7408 1.7408-1.6384 1.3312-1.7408 1.2288-0.4096-0.4096 1.3312-1.6384 2.1504-2.1504 2.1504-1.3312z m-6.656 7.8848c-8.0896 8.4992-13.4144 13.7216-15.872 15.7696l-2.56 2.048 2.56-2.9696c1.4336-1.536 4.9152-5.2224 7.8848-8.0896 2.8672-2.8672 5.0176-5.632 4.8128-6.0416-0.3072-0.4096 0.1024-0.8192 0.8192-0.8192 0.8192 0 2.048-0.9216 2.8672-2.048 0.8192-1.1264 1.9456-2.048 2.4576-2.048 0.6144 0-0.8192 1.9456-2.9696 4.1984z m5.632-2.7648c0 0.2048-0.8192 1.024-1.7408 1.7408-1.6384 1.3312-1.7408 1.2288-0.4096-0.4096 1.3312-1.6384 2.1504-2.1504 2.1504-1.3312z m-26.2144 23.04c-1.024 1.024-2.1504 1.6384-2.4576 1.4336-0.3072-0.3072 0.4096-1.1264 1.4336-1.9456 2.8672-2.048 3.3792-1.7408 1.024 0.512zM504.32 740.352c0.3072 0.6144-0.4096 1.024-1.7408 1.024-1.8432 0-2.048-0.2048-0.8192-1.024 1.9456-1.2288 1.8432-1.2288 2.56 0z m284.0576 1.7408c-1.7408 2.2528-4.3008 4.3008-5.3248 4.4032-0.7168 0 5.5296-6.0416 6.3488-6.144 0.2048 0-0.3072 0.8192-1.024 1.7408z m-9.1136 8.0896c-0.8192 0.8192-2.3552 2.048-3.4816 2.56-1.3312 0.6144-1.024 0 0.9216-1.536 3.4816-2.9696 4.4032-3.3792 2.56-1.024z m33.792-1.024c0 0.9216-3.2768 3.3792-4.5056 3.4816-0.512 0-0.1024-0.9216 0.9216-2.048 1.8432-2.048 3.584-2.6624 3.584-1.4336z m-6.7584 6.2464c-4.1984 3.8912-5.9392 4.7104-3.072 1.536 1.7408-1.8432 3.4816-3.2768 4.096-3.2768 0.512 0 0.1024 0.8192-1.024 1.7408z m-35.2256 2.1504c-1.9456 1.536-4.608 3.7888-5.9392 5.0176-1.3312 1.3312-2.56 2.3552-2.8672 2.3552-0.3072 0-1.7408 1.2288-3.2768 2.6624-1.536 1.4336-3.6864 3.072-4.8128 3.6864-1.1264 0.512-0.2048-0.6144 2.048-2.56 11.0592-9.5232 16.4864-13.9264 17.408-13.9264 0.6144-0.1024-0.6144 1.2288-2.56 2.7648z m-67.584 17.1008c0 0.2048-1.024 0.9216-2.2528 1.536-2.2528 1.1264-2.2528 1.024-0.4096-0.4096 2.1504-1.7408 2.6624-1.9456 2.6624-1.1264zM672.768 794.624c-0.8192 0.512-1.9456 1.024-2.56 1.024-0.512 0-0.3072-0.512 0.512-1.024s2.048-1.024 2.56-1.024c0.6144 0 0.3072 0.512-0.512 1.024z m-7.168 2.4576c0 0.2048-0.7168 0.7168-1.6384 1.024-0.8192 0.3072-1.2288 0.2048-0.9216-0.4096 0.6144-1.024 2.56-1.4336 2.56-0.6144z m15.9744 7.68c-0.6144 0.9216-4.7104 2.2528-4.7104 1.536 0-0.3072 1.024-0.9216 2.3552-1.4336 2.9696-1.1264 2.9696-1.1264 2.3552-0.1024z m-92.9792 16.1792c-1.024 0.2048-2.8672 0.2048-4.096 0-1.3312-0.2048-0.512-0.4096 1.7408-0.4096 2.2528-0.1024 3.2768 0.1024 2.3552 0.4096z m118.9888 2.7648c0 0.2048-0.7168 0.7168-1.6384 1.024-0.8192 0.3072-1.2288 0.2048-0.9216-0.4096 0.6144-1.024 2.56-1.4336 2.56-0.6144z m-10.24 8.8064c-0.8192 0.512-1.9456 1.024-2.56 1.024-0.512 0-0.3072-0.512 0.512-1.024s2.048-1.024 2.56-1.024c0.6144 0 0.3072 0.512-0.512 1.024z m-4.096 1.4336c0 0.6144-12.6976 5.632-15.5648 6.144-1.3312 0.2048-4.9152 1.3312-7.9872 2.4576-13.5168 4.9152-47.7184 12.3904-64.512 13.9264l-5.632 0.512 6.656-1.4336c3.6864-0.8192 11.776-2.4576 17.92-3.584 6.2464-1.2288 11.9808-2.3552 12.8-2.6624 0.8192-0.2048 4.3008-1.024 7.68-1.9456 3.3792-0.8192 7.0656-1.7408 8.192-1.9456 1.1264-0.2048 3.2768-0.9216 4.9152-1.536 1.536-0.6144 2.7648-0.9216 2.7648-0.6144 0 0.2048 2.56-0.512 5.632-1.536s5.632-1.7408 5.632-1.536c0 0.2048 2.6624-0.512 5.9392-1.6384 3.1744-1.1264 6.9632-2.3552 8.2944-2.56 1.4336-0.3072 3.2768-0.9216 4.096-1.4336 1.7408-1.024 3.1744-1.3312 3.1744-0.6144z" p-id="16322" fill="#d81e06"></path><path d="M688.128 345.4976c0 0.2048 0.8192 1.024 1.8432 1.7408 1.536 1.3312 1.6384 1.2288 0.3072-0.4096s-2.1504-2.1504-2.1504-1.3312zM734.3104 457.3184c0 1.1264 0.3072 1.4336 0.6144 0.6144 0.3072-0.7168 0.2048-1.6384-0.1024-1.9456-0.3072-0.4096-0.6144 0.2048-0.512 1.3312zM350.5152 269.9264c-2.4576 1.4336-4.4032 2.8672-4.4032 3.1744 0 0.4096 8.704-4.3008 10.1376-5.4272 1.6384-1.4336-2.2528 0.1024-5.7344 2.2528zM621.568 269.7216c0 0.2048 0.7168 0.7168 1.6384 1.024 0.8192 0.3072 1.2288 0.2048 0.9216-0.4096-0.6144-1.024-2.56-1.4336-2.56-0.6144zM649.8304 291.0208c0.4096 0.512 0.9216 0.7168 1.2288 0.4096 0.3072-0.3072 1.536 0.2048 2.6624 1.1264 2.1504 1.8432 2.1504 1.8432 0.3072-0.3072-1.6384-2.048-5.3248-3.072-4.1984-1.2288zM483.1232 326.3488c3.4816 0.2048 9.216 0.2048 12.8 0 3.4816-0.2048 0.6144-0.3072-6.4512-0.3072-7.0656 0-9.9328 0.1024-6.3488 0.3072zM467.7632 327.3728c1.2288 0.2048 3.072 0.2048 4.096 0 0.9216-0.3072-0.1024-0.512-2.3552-0.4096-2.2528 0-3.072 0.2048-1.7408 0.4096zM508.2112 327.3728c0.9216 0.2048 2.3552 0.2048 3.072 0 0.6144-0.3072-0.1024-0.512-1.8432-0.512-1.6384 0-2.2528 0.2048-1.2288 0.512zM515.3792 328.3968c0.9216 0.2048 2.56 0.2048 3.584 0 0.9216-0.3072 0.1024-0.512-1.8432-0.512-1.9456 0-2.7648 0.2048-1.7408 0.512zM523.0592 329.4208c0.6144 0.2048 1.8432 0.2048 2.56 0 0.6144-0.3072 0.1024-0.512-1.3312-0.512-1.4336 0-1.9456 0.2048-1.2288 0.512zM528.1792 330.4448c0.6144 0.2048 1.8432 0.2048 2.56 0 0.6144-0.3072 0.1024-0.512-1.3312-0.512-1.4336 0-1.9456 0.2048-1.2288 0.512zM533.2992 331.4688c0.7168 0.3072 1.6384 0.2048 1.9456-0.1024 0.4096-0.3072-0.2048-0.6144-1.3312-0.512-1.1264 0-1.4336 0.3072-0.6144 0.6144zM538.112 332.5952c3.1744 1.4336 8.4992 2.4576 6.656 1.3312-0.8192-0.512-3.1744-1.1264-5.12-1.536-2.4576-0.4096-2.8672-0.3072-1.536 0.2048zM550.912 336.4864c0 0.7168 5.3248 2.56 5.8368 2.048 0.2048-0.2048-1.024-0.8192-2.6624-1.4336-1.7408-0.6144-3.1744-0.9216-3.1744-0.6144z" p-id="16323" fill="#d81e06"></path><path d="M569.1392 345.088c17.92 9.5232 31.8464 19.456 44.6464 32.1536 6.3488 6.2464 13.1072 13.5168 14.9504 16.1792 1.8432 2.7648 3.7888 4.9152 4.1984 4.9152 0.4096 0 1.024 1.1264 1.3312 2.56 0.4096 1.4336 1.1264 2.56 1.6384 2.56 0.6144 0 1.024 0.7168 1.024 1.536s0.4096 1.536 0.8192 1.536c1.3312 0 8.3968 13.9264 7.5776 14.848-0.4096 0.512-0.1024 0.4096 0.7168 0 1.1264-0.6144 1.3312-0.4096 0.8192 0.9216-0.512 1.1264-0.3072 1.536 0.512 1.024s0.9216-0.2048 0.512 1.024c-0.4096 0.9216-0.3072 1.536 0.1024 1.2288 0.9216-0.512 6.656 13.5168 10.1376 24.9856 1.8432 5.9392 2.2528 6.656 1.7408 3.072-1.3312-9.6256-8.8064-29.7984-15.5648-41.984-14.6432-26.4192-41.8816-51.2-73.728-67.072-15.0528-7.4752-15.9744-7.168-1.4336 0.512zM393.728 347.136c-0.3072 0.6144 0.1024 0.7168 0.9216 0.4096 1.8432-0.7168 2.1504-1.4336 0.7168-1.4336-0.6144 0-1.3312 0.4096-1.6384 1.024zM382.6688 353.6896c-17.8176 11.1616-34.816 26.2144-49.8688 44.2368-20.6848 24.6784-39.0144 64.4096-44.4416 96.5632-1.1264 6.2464 0.4096 2.6624 2.4576-5.7344 7.0656-29.7984 22.9376-64.3072 38.2976-83.3536 1.2288-1.4336 3.584-4.4032 5.2224-6.656 5.632-7.2704 16.6912-19.3536 21.6064-23.4496 2.56-2.2528 5.5296-4.8128 6.4512-5.7344 2.7648-2.7648 16.6912-12.6976 23.4496-16.7936 5.632-3.4816 7.168-4.608 6.0416-4.608-0.2048 0-4.4032 2.4576-9.216 5.5296zM480.768 366.1824c-11.8784 1.4336-19.968 3.1744-30.72 6.7584-12.0832 4.096-30.9248 12.6976-29.9008 13.7216 0.3072 0.3072 1.536 0.1024 2.6624-0.6144 1.2288-0.6144 2.1504-0.8192 2.1504-0.6144 0 0.6144-5.632 3.6864-6.656 3.6864-0.3072 0-0.3072-0.512 0.1024-1.2288s0.3072-0.8192-0.512-0.4096c-0.6144 0.4096-0.9216 1.1264-0.6144 1.6384 0.3072 0.4096-1.2288 1.8432-3.2768 3.1744-4.8128 2.8672-20.48 14.848-21.4016 16.384-0.3072 0.6144 3.4816-2.1504 8.4992-6.144 5.12-3.9936 9.5232-7.2704 9.9328-7.2704 0.4096 0 2.2528-1.1264 3.9936-2.4576 4.4032-3.2768 27.2384-14.1312 35.5328-16.896 32.6656-10.6496 74.8544-6.9632 107.008 9.3184 33.4848 16.9984 63.488 57.4464 69.632 93.7984 0.8192 4.7104 1.3312 6.4512 1.4336 4.3008 0.3072-20.3776-17.1008-57.1392-35.84-75.4688-19.8656-19.456-40.448-31.3344-65.3312-37.6832-13.7216-3.4816-34.9184-5.3248-46.6944-3.9936z" p-id="16324" fill="#d81e06"></path><path d="M657.8176 434.7904c0.2048 1.6384 0.9216 5.0176 1.6384 7.5776 0.7168 2.56 1.4336 5.5296 1.6384 6.656 0.1024 1.1264 0.3072 2.048 0.4096 2.048 0.1024 0 0.3072 1.6384 0.512 3.584 0.3072 1.9456 0.6144 4.5056 0.9216 5.632 4.5056 21.504 2.9696 49.8688-3.8912 73.728-4.1984 14.336-10.3424 28.16-17.1008 38.1952-1.6384 2.4576-2.7648 4.8128-2.4576 5.3248 0.3072 0.512 0 1.2288-0.6144 1.6384-0.8192 0.4096-0.9216 0.3072-0.512-0.4096 1.536-2.56-0.3072-1.024-2.048 1.536-1.7408 2.7648-1.7408 2.8672 0.2048 1.4336 1.024-0.8192 0.1024 0.2048-2.1504 2.2528-2.2528 1.9456-4.1984 4.096-4.1984 4.7104-0.1024 0.6144-0.2048 1.6384-0.3072 2.2528 0 0.512-0.512 0.8192-1.024 0.512-0.8192-0.512-4.8128 3.072-5.4272 5.0176-0.2048 0.512-0.7168 0.9216-1.3312 0.7168-0.512-0.2048-0.7168 0-0.2048 0.4096 0.4096 0.4096-0.1024 1.7408-1.024 2.8672-1.024 1.1264 1.1264-0.4096 4.7104-3.4816 7.168-6.0416 11.9808-11.776 18.7392-22.1184 2.3552-3.584 4.8128-6.5536 5.5296-6.5536 1.6384 0 9.8304-16.9984 13.0048-27.136 4.608-14.2336 5.8368-20.7872 7.4752-41.472 1.2288-15.7696-2.3552-39.3216-8.704-57.856-3.4816-9.9328-4.4032-11.6736-3.7888-7.0656z m4.4032 104.0384c-0.3072 0.8192-0.6144 0.512-0.6144-0.6144-0.1024-1.1264 0.2048-1.7408 0.512-1.3312 0.3072 0.3072 0.4096 1.2288 0.1024 1.9456z m-2.7648 7.68c-1.1264 1.7408-1.1264 1.7408-0.6144 0 0.3072-1.024 0.6144-2.4576 0.7168-3.072 0-0.9216 0.2048-0.9216 0.512 0 0.3072 0.7168 0 2.048-0.6144 3.072z m-2.4576 6.144c-0.8192 1.536-1.536 2.56-1.6384 2.1504 0-1.2288 2.3552-5.9392 2.7648-5.5296 0.3072 0.2048-0.2048 1.7408-1.1264 3.3792z m-2.6624 6.2464c0 0.512-0.7168 1.7408-1.536 2.8672-1.4336 1.8432-1.4336 1.7408-0.4096-0.9216 1.2288-2.7648 1.9456-3.4816 1.9456-1.9456z m-19.456 26.112c0 0.2048-1.024 1.2288-2.2528 2.3552l-2.3552 1.9456 1.9456-2.3552c1.8432-2.1504 2.6624-2.7648 2.6624-1.9456z m-6.144 7.168c0 0.2048-1.024 1.2288-2.2528 2.3552l-2.3552 1.9456 1.9456-2.3552c1.8432-2.1504 2.6624-2.7648 2.6624-1.9456zM940.7488 449.536c-0.3072 1.9456-1.1264 7.9872-1.6384 13.312-0.6144 5.3248-2.4576 19.1488-4.1984 30.6176-1.7408 11.4688-2.8672 21.0944-2.56 21.4016 0.3072 0.3072 0.512-0.2048 0.512-1.1264 0-1.024 0.6144-1.7408 1.4336-1.7408 1.4336 0 1.7408-1.2288 4.1984-16.7936 1.7408-11.264 3.8912-39.6288 3.3792-45.1584l-0.4096-4.096-0.7168 3.584zM612.864 454.656c4.5056 19.456 4.9152 22.7328 5.0176 35.328 0 24.3712-6.9632 46.592-20.0704 64-2.7648 3.584-4.5056 6.7584-3.9936 6.9632 0.6144 0.2048 0.8192 0.9216 0.4096 1.536-1.024 1.8432 2.6624-1.3312 7.0656-5.8368 4.4032-4.5056 13.0048-21.504 15.5648-30.6176 6.7584-23.6544 5.7344-51.8144-2.4576-69.4272-1.1264-2.4576-1.8432-3.3792-1.536-1.9456z" p-id="16325" fill="#d81e06"></path><path d="M660.5824 460.3904c0 1.1264 0.3072 1.4336 0.6144 0.6144 0.3072-0.7168 0.2048-1.6384-0.1024-1.9456-0.3072-0.4096-0.6144 0.2048-0.512 1.3312zM609.3824 465.5104c0 1.1264 0.3072 1.4336 0.6144 0.6144 0.3072-0.7168 0.2048-1.6384-0.1024-1.9456-0.3072-0.4096-0.6144 0.2048-0.512 1.3312zM661.6064 466.5344c0 1.1264 0.3072 1.4336 0.6144 0.6144 0.3072-0.7168 0.2048-1.6384-0.1024-1.9456-0.3072-0.4096-0.6144 0.2048-0.512 1.3312zM749.7728 471.04c0 1.4336 0.2048 1.9456 0.512 1.2288 0.2048-0.6144 0.2048-1.8432 0-2.56-0.3072-0.6144-0.512-0.1024-0." p-id="16326" fill="#d81e06"></path></svg>