<?xml version="1.0" standalone="no"?><!DOCTYPE svg PUBLIC "-//W3C//DTD SVG 1.1//EN" "http://www.w3.org/Graphics/SVG/1.1/DTD/svg11.dtd"><svg t="1609760539954" class="icon" viewBox="0 0 1024 1024" version="1.1" xmlns="http://www.w3.org/2000/svg" p-id="3311" xmlns:xlink="http://www.w3.org/1999/xlink" width="250" height="250"><defs><style type="text/css"></style></defs><path d="M635.862626 280.953535H491.571717l-194.973737 98.521212v232.468687h225.745454c15.773737-55.337374 58.69899-99.167677 113.519192-116.363636v-214.626263z m0-99.296969V74.084848c0-13.705051 11.119192-24.824242 24.824243-24.824242h49.648485c13.705051 0 24.824242 11.119192 24.824242 24.824242v107.571718h179.975758c13.705051 0 24.824242 11.119192 24.824242 24.824242v49.648485c0 13.705051-11.119192 24.824242-24.824242 24.824242H735.159596v213.721212c56.113131 16.420202 100.460606 60.89697 116.622222 117.268687h65.422222c13.705051 0 24.824242 11.119192 24.824243 24.824243v49.648485c0 13.705051-11.119192 24.824242-24.824243 24.824242h-66.973737c-17.325253 53.915152-60.509091 96.193939-115.070707 112.09697v127.870707c0 13.705051-11.119192 24.824242-24.824242 24.824242h-49.648485c-13.705051 0-24.824242-11.119192-24.824243-24.824242v-128.775758c-53.010101-16.549495-94.90101-58.311111-111.967677-111.191919H296.59798v239.967677c0 13.705051-11.119192 24.824242-24.824243 24.824242H222.125253c-13.705051 0-24.824242-11.119192-24.824243-24.824242V711.240404H106.278788c-13.705051 0-24.824242-11.119192-24.824243-24.824242v-49.648485c0-13.705051 11.119192-24.824242 24.824243-24.824243h91.022222V380.250505H106.278788c-13.705051 0-24.824242-11.119192-24.824243-24.824242v-49.648485c0-13.705051 11.119192-24.824242 24.824243-24.824243h169.115151l196.525253-99.296969h163.943434z m51.2 555.442424c43.183838 0 78.092929-34.909091 78.09293-78.092929s-34.909091-78.092929-78.09293-78.09293-78.092929 34.909091-78.092929 78.09293c0 43.054545 34.909091 78.092929 78.092929 78.092929z m0 0" p-id="3312" fill="#f4ea2a"></path><path d="M690.294949 659.135354m-91.539393 0a91.539394 91.539394 0 1 0 183.078787 0 91.539394 91.539394 0 1 0-183.078787 0Z" p-id="3313" fill="#f4ea2a"></path></svg>